<svg width="9" height="8" viewBox="0 0 9 8" fill="none" xmlns="http://www.w3.org/2000/svg">
<mask id="mask0_3194_478" style="mask-type:alpha" maskUnits="userSpaceOnUse" x="0" y="0" width="9" height="8">
<rect x="0.948975" width="8" height="8" fill="#D9D9D9"/>
</mask>
<g mask="url(#mask0_3194_478)">
<path d="M2.82097 7.00001C2.66753 7.00001 2.53942 6.94862 2.43664 6.84585C2.33386 6.74307 2.28247 6.61496 2.28247 6.46151V2.20518C2.28247 2.05173 2.33386 1.92362 2.43664 1.82085C2.53942 1.71807 2.66753 1.66668 2.82097 1.66668H3.41064V0.923096H3.76964V1.66668H6.1543V0.923096H6.48764V1.66668H7.0773C7.23075 1.66668 7.35886 1.71807 7.46164 1.82085C7.56441 1.92362 7.6158 2.05173 7.6158 2.20518V6.46151C7.6158 6.61496 7.56441 6.74307 7.46164 6.84585C7.35886 6.94862 7.23075 7.00001 7.0773 7.00001H2.82097ZM2.82097 6.66668H7.0773C7.12864 6.66668 7.17566 6.64532 7.21839 6.6026C7.26111 6.55987 7.28247 6.51285 7.28247 6.46151V3.53851H2.6158V6.46151C2.6158 6.51285 2.63717 6.55987 2.67989 6.6026C2.72261 6.64532 2.76964 6.66668 2.82097 6.66668ZM2.6158 3.2051H7.28247V2.20518C7.28247 2.15385 7.26111 2.10682 7.21839 2.0641C7.17566 2.02137 7.12864 2.00001 7.0773 2.00001H2.82097C2.76964 2.00001 2.72261 2.02137 2.67989 2.0641C2.63717 2.10682 2.6158 2.15385 2.6158 2.20518V3.2051Z" fill="#AAAAAA"/>
</g>
</svg>
