<svg width="19" height="19" viewBox="0 0 19 19" fill="none" xmlns="http://www.w3.org/2000/svg">
<g id="edit">
<mask id="mask0_2251_9388" style="mask-type:alpha" maskUnits="userSpaceOnUse" x="0" y="0" width="19" height="19">
<rect id="Bounding box" x="0.792969" y="0.5" width="18" height="18" fill="#D9D9D9"/>
</mask>
<g mask="url(#mask0_2251_9388)">
<path id="edit_2" d="M4.54297 14.75H5.36647L13.3902 6.7265L12.5665 5.90281L4.54297 13.9265V14.75ZM3.79297 15.5V13.6106L13.6785 3.71488C13.7554 3.64638 13.8402 3.59344 13.933 3.55606C14.0258 3.51869 14.1227 3.5 14.2234 3.5C14.3242 3.5 14.4218 3.51587 14.5163 3.54762C14.6107 3.57937 14.6978 3.63656 14.7777 3.71919L15.5781 4.52412C15.6607 4.60387 15.7172 4.69137 15.7476 4.78662C15.7778 4.882 15.793 4.97731 15.793 5.07256C15.793 5.17419 15.7758 5.27144 15.7416 5.36431C15.7073 5.45706 15.6528 5.54188 15.5781 5.61875L5.68241 15.5H3.79297ZM12.9711 6.32188L12.5665 5.90281L13.3902 6.7265L12.9711 6.32188Z" fill="#AAAAAA"/>
</g>
</g>
</svg>
