<svg width="16" height="17" viewBox="0 0 16 17" fill="none" xmlns="http://www.w3.org/2000/svg">
<g id="Group">
<path id="Shape" fill-rule="evenodd" clip-rule="evenodd" d="M15.904 8.54052C15.904 7.98743 15.8544 7.45561 15.7622 6.94507H8.41602V9.96225H12.6138C12.433 10.9372 11.8835 11.7633 11.0574 12.3164V14.2735H13.5782C15.0531 12.9156 15.904 10.916 15.904 8.54052Z" fill="#4285F4"/>
<path id="Shape_2" fill-rule="evenodd" clip-rule="evenodd" d="M8.41604 16.1632C10.522 16.1632 12.2877 15.4648 13.5782 14.2735L11.0574 12.3164C10.3589 12.7844 9.46549 13.0609 8.41604 13.0609C6.3845 13.0609 4.66495 11.6889 4.05159 9.84521H1.44568V11.8661C2.72913 14.4153 5.36695 16.1632 8.41604 16.1632Z" fill="#34A853"/>
<path id="Shape_3" fill-rule="evenodd" clip-rule="evenodd" d="M4.05157 9.84526C3.89557 9.37726 3.80694 8.87735 3.80694 8.36326C3.80694 7.84917 3.89557 7.34926 4.05157 6.88126V4.86035H1.44566C0.917391 5.91335 0.616028 7.10462 0.616028 8.36326C0.616028 9.6219 0.917391 10.8132 1.44566 11.8662L4.05157 9.84526Z" fill="#FBBC05"/>
<path id="Shape_4" fill-rule="evenodd" clip-rule="evenodd" d="M8.41604 3.6655C9.56122 3.6655 10.5894 4.05905 11.3978 4.83196L13.6349 2.59478C12.2841 1.33614 10.5185 0.563232 8.41604 0.563232C5.36695 0.563232 2.72913 2.31114 1.44568 4.86032L4.05159 6.88123C4.66495 5.0376 6.3845 3.6655 8.41604 3.6655Z" fill="#EA4335"/>
</g>
</svg>
