<svg width="29" height="28" viewBox="0 0 29 28" fill="none" xmlns="http://www.w3.org/2000/svg">
<path d="M21.4997 15.1644H15.6663V20.9977C15.6663 21.3071 15.5434 21.6039 15.3246 21.8227C15.1058 22.0415 14.8091 22.1644 14.4997 22.1644C14.1903 22.1644 13.8935 22.0415 13.6747 21.8227C13.4559 21.6039 13.333 21.3071 13.333 20.9977V15.1644H7.49967C7.19026 15.1644 6.89351 15.0415 6.67472 14.8227C6.45592 14.6039 6.33301 14.3071 6.33301 13.9977C6.33301 13.6883 6.45592 13.3916 6.67472 13.1728C6.89351 12.954 7.19026 12.8311 7.49967 12.8311H13.333V6.99772C13.333 6.6883 13.4559 6.39156 13.6747 6.17276C13.8935 5.95397 14.1903 5.83105 14.4997 5.83105C14.8091 5.83105 15.1058 5.95397 15.3246 6.17276C15.5434 6.39156 15.6663 6.6883 15.6663 6.99772V12.8311H21.4997C21.8091 12.8311 22.1058 12.954 22.3246 13.1728C22.5434 13.3916 22.6663 13.6883 22.6663 13.9977C22.6663 14.3071 22.5434 14.6039 22.3246 14.8227C22.1058 15.0415 21.8091 15.1644 21.4997 15.1644Z" fill="white"/>
</svg>
