<svg width="32" height="32" viewBox="0 0 32 32" fill="none" xmlns="http://www.w3.org/2000/svg">
<g id="Frame 1321317712">
<rect width="32" height="32" rx="16" fill="#383838"/>
<g id="add_a_photo">
<mask id="mask0_2272_94527" style="mask-type:alpha" maskUnits="userSpaceOnUse" x="4" y="4" width="25" height="24">
<rect id="Bounding box" x="4.45898" y="4" width="24" height="24" fill="#D9D9D9"/>
</mask>
<g mask="url(#mask0_2272_94527)">
<path id="add_a_photo_2" d="M8.07448 24C7.61415 24 7.22982 23.8458 6.92148 23.5375C6.61315 23.2292 6.45898 22.8448 6.45898 22.3845V11.6155C6.45898 11.1552 6.61315 10.7708 6.92148 10.4625C7.22982 10.1542 7.61415 10 8.07448 10H11.032L12.882 8H18.0745V9H13.3147L11.4705 11H8.07448C7.89498 11 7.74748 11.0577 7.63198 11.173C7.51665 11.2885 7.45898 11.436 7.45898 11.6155V22.3845C7.45898 22.564 7.51665 22.7115 7.63198 22.827C7.74748 22.9423 7.89498 23 8.07448 23H22.8435C23.023 23 23.1705 22.9423 23.286 22.827C23.4013 22.7115 23.459 22.564 23.459 22.3845V14.3845H24.459V22.3845C24.459 22.8448 24.3048 23.2292 23.9965 23.5375C23.6882 23.8458 23.3038 24 22.8435 24H8.07448ZM23.459 11V9H21.459V8H23.459V6H24.459V8H26.459V9H24.459V11H23.459ZM15.459 20.7308C16.5038 20.7308 17.3868 20.3702 18.108 19.649C18.8292 18.9278 19.1897 18.0448 19.1897 17C19.1897 15.9552 18.8292 15.0722 18.108 14.351C17.3868 13.6298 16.5038 13.2693 15.459 13.2693C14.4142 13.2693 13.5312 13.6298 12.81 14.351C12.0888 15.0722 11.7282 15.9552 11.7282 17C11.7282 18.0448 12.0888 18.9278 12.81 19.649C13.5312 20.3702 14.4142 20.7308 15.459 20.7308ZM15.459 19.7308C14.682 19.7308 14.0327 19.4698 13.511 18.948C12.9892 18.4263 12.7282 17.777 12.7282 17C12.7282 16.223 12.9892 15.5737 13.511 15.052C14.0327 14.5302 14.682 14.2693 15.459 14.2693C16.236 14.2693 16.8853 14.5302 17.407 15.052C17.9288 15.5737 18.1897 16.223 18.1897 17C18.1897 17.777 17.9288 18.4263 17.407 18.948C16.8853 19.4698 16.236 19.7308 15.459 19.7308Z" fill="#F5F5F5"/>
</g>
</g>
</g>
</svg>
