<svg width="26" height="26" viewBox="0 0 26 26" fill="none" xmlns="http://www.w3.org/2000/svg">
<mask id="mask0_3442_13402" style="mask-type:alpha" maskUnits="userSpaceOnUse" x="0" y="0" width="26" height="26">
<rect width="26" height="26" fill="#D9D9D9"/>
</mask>
<g mask="url(#mask0_3442_13402)">
<path d="M13.6677 20.1078C13.2878 20.4484 12.7125 20.4484 12.3326 20.1078L11.7523 19.5876C10.3037 18.2824 9.1061 17.1565 8.15948 16.2099C7.21287 15.2633 6.45988 14.4135 5.90051 13.6605C5.34115 12.9075 4.95031 12.2155 4.728 11.5844C4.50569 10.9533 4.39453 10.3079 4.39453 9.64812C4.39453 8.29991 4.84633 7.17401 5.74991 6.27042C6.6535 5.36683 7.7794 4.91504 9.12762 4.91504C9.87343 4.91504 10.5834 5.07281 11.2575 5.38835C11.9316 5.70389 12.5125 6.14851 13.0001 6.72222C13.4878 6.14851 14.0687 5.70389 14.7428 5.38835C15.4169 5.07281 16.1268 4.91504 16.8727 4.91504C18.2209 4.91504 19.3468 5.36683 20.2504 6.27042C21.154 7.17401 21.6057 8.29991 21.6057 9.64812C21.6057 10.3079 21.4946 10.9533 21.2723 11.5844C21.05 12.2155 20.6591 12.9075 20.0998 13.6605C19.5404 14.4135 18.7874 15.2633 17.8408 16.2099C16.8942 17.1565 15.6966 18.2824 14.248 19.5876L13.6677 20.1078Z" stroke="white" stroke-width="2"/>
</g>
</svg>
