<svg width="26" height="26" viewBox="0 0 26 26" fill="none" xmlns="http://www.w3.org/2000/svg">
<mask id="mask0_3479_20415" style="mask-type:alpha" maskUnits="userSpaceOnUse" x="0" y="0" width="26" height="26">
<rect width="26" height="26" fill="#D9D9D9"/>
</mask>
<g mask="url(#mask0_3479_20415)">
<path d="M13.6676 20.1069C13.2878 20.4474 12.7124 20.4474 12.3325 20.1069L11.7523 19.5866C10.3037 18.2814 9.10604 17.1555 8.15942 16.2089C7.21281 15.2623 6.45982 14.4125 5.90045 13.6595C5.34109 12.9065 4.95025 12.2145 4.72794 11.5834C4.50563 10.9523 4.39447 10.3069 4.39447 9.64715C4.39447 8.29893 4.84626 7.17303 5.74985 6.26945C6.65344 5.36586 7.77934 4.91406 9.12755 4.91406C9.87337 4.91406 10.5833 5.07183 11.2574 5.38737C11.9315 5.70291 12.5124 6.14753 13.0001 6.72124C13.4877 6.14753 14.0686 5.70291 14.7427 5.38737C15.4168 5.07183 16.1268 4.91406 16.8726 4.91406C18.2208 4.91406 19.3467 5.36586 20.2503 6.26945C21.1539 7.17303 21.6057 8.29893 21.6057 9.64715C21.6057 10.3069 21.4945 10.9523 21.2722 11.5834C21.0499 12.2145 20.6591 12.9065 20.0997 13.6595C19.5403 14.4125 18.7873 15.2623 17.8407 16.2089C16.8941 17.1555 15.6965 18.2814 14.2479 19.5866L13.6676 20.1069Z" fill="white" stroke="white" stroke-width="2"/>
</g>
</svg>
