<svg width="24" height="24" viewBox="0 0 24 24" fill="none" xmlns="http://www.w3.org/2000/svg">
<path d="M18.1566 7.41333H10.33C10.0832 7.41397 9.83887 7.46327 9.6111 7.55841C9.38332 7.65355 9.17654 7.79267 9.00258 7.96781C8.82862 8.14294 8.69089 8.35066 8.59729 8.57907C8.50368 8.80748 8.45602 9.05211 8.45705 9.29895V19.1143C8.45705 20.1554 9.29575 20.9999 10.33 20.9999H18.1566C18.4035 20.9993 18.6478 20.95 18.8755 20.8548C19.1033 20.7597 19.3101 20.6206 19.4841 20.4455C19.658 20.2703 19.7957 20.0626 19.8893 19.8342C19.983 19.6058 20.0306 19.3612 20.0296 19.1143V9.29895C20.0296 8.25787 19.1909 7.41333 18.1566 7.41333Z" stroke="#767676" stroke-width="1.5" stroke-linecap="round" stroke-linejoin="round"/>
<path d="M15.5432 7.41341V4.88562C15.5432 4.38551 15.3457 3.90584 14.9945 3.55265C14.8211 3.3778 14.6148 3.23896 14.3876 3.14411C14.1603 3.04927 13.9165 3.00029 13.6703 3H5.84368C5.34746 3 4.8707 3.19849 4.52043 3.55265C4.16892 3.90732 3.97139 4.38627 3.9707 4.88562V14.701C3.9707 15.2011 4.16822 15.6808 4.51946 16.0339C4.8707 16.3871 5.34649 16.5866 5.84368 16.5866H8.45611" stroke="#767676" stroke-width="1.5" stroke-linecap="round" stroke-linejoin="round"/>
</svg>
