<svg width="26" height="26" viewBox="0 0 26 26" fill="none" xmlns="http://www.w3.org/2000/svg">
<path d="M15.0723 19.2344C15.0723 19.3982 15.0298 19.5592 14.9482 19.7012C14.8666 19.8432 14.749 19.9615 14.6074 20.0439C14.4658 20.1264 14.3045 20.17 14.1406 20.1709C13.9768 20.1718 13.8153 20.1297 13.6729 20.0488L13.5918 19.9961L11.127 18.2354L15.0723 14.291V19.2344ZM14.043 5.00488C14.2061 4.98867 14.371 5.01577 14.5205 5.08301C14.6698 5.15025 14.7986 5.256 14.8945 5.38867C14.9905 5.52143 15.0503 5.67691 15.0674 5.83984L15.0723 5.93652V10.0488L8.65234 16.4678L7.98633 15.9922H5.70312C5.27356 15.9922 4.85994 15.8301 4.54492 15.5381C4.22986 15.2459 4.0362 14.8455 4.00391 14.417L4 14.2891V10.8818C3.9999 10.4523 4.16215 10.0387 4.4541 9.72363C4.74632 9.40851 5.14762 9.21485 5.57617 9.18262L5.70312 9.17871H7.98633L13.5908 5.17578C13.7241 5.08042 13.8799 5.0211 14.043 5.00488Z" fill="white"/>
<path d="M18.8571 5.14258L3.99997 19.9997" stroke="white" stroke-width="2" stroke-linecap="round"/>
</svg>
