<svg width="19" height="18" viewBox="0 0 19 18" fill="none" xmlns="http://www.w3.org/2000/svg">
<g id="open_in_new">
<mask id="mask0_2966_265314" style="mask-type:alpha" maskUnits="userSpaceOnUse" x="0" y="0" width="19" height="18">
<rect id="Bounding box" x="0.5" width="18" height="18" fill="#D9D9D9"/>
</mask>
<g mask="url(#mask0_2966_265314)">
<path id="open_in_new_2" d="M4.71162 15C4.36637 15 4.07813 14.8844 3.84688 14.6531C3.61563 14.4219 3.5 14.1336 3.5 13.7884V4.21162C3.5 3.86637 3.61563 3.57813 3.84688 3.34688C4.07813 3.11563 4.36637 3 4.71162 3H8.92306V3.75H4.71162C4.59612 3.75 4.49031 3.79806 4.39419 3.89419C4.29806 3.99031 4.25 4.09612 4.25 4.21162V13.7884C4.25 13.9039 4.29806 14.0097 4.39419 14.1058C4.49031 14.2019 4.59612 14.25 4.71162 14.25H14.2884C14.4039 14.25 14.5097 14.2019 14.6058 14.1058C14.7019 14.0097 14.75 13.9039 14.75 13.7884V9.57694H15.5V13.7884C15.5 14.1336 15.3844 14.4219 15.1531 14.6531C14.9219 14.8844 14.6336 15 14.2884 15H4.71162ZM7.80388 11.2269L7.27306 10.6961L14.2192 3.75H11V3H15.5V7.5H14.75V4.28081L7.80388 11.2269Z" fill="#AAAAAA"/>
</g>
</g>
</svg>
