<svg width="160" height="160" viewBox="0 0 160 160" fill="none" xmlns="http://www.w3.org/2000/svg">
<g id="Vector">
<path d="M160 80C160 124.183 124.183 160 80 160C35.8172 160 0 124.183 0 80C0 35.8172 35.8172 0 80 0C124.183 0 160 35.8172 160 80Z" fill="#D9D9D9"/>
<path d="M29.5384 142.081C33.8677 120.775 54.8134 104.615 80 104.615C105.187 104.615 126.132 120.775 130.462 142.081C116.696 153.284 99.1321 160 80 160C60.8679 160 43.3043 153.284 29.5384 142.081Z" fill="#AFAFAF"/>
<path d="M104.615 69.2308C104.615 83.1087 93.3651 94.359 79.4872 94.359C65.6093 94.359 54.359 83.1087 54.359 69.2308C54.359 55.3528 65.6093 44.1026 79.4872 44.1026C93.3651 44.1026 104.615 55.3528 104.615 69.2308Z" fill="#AFAFAF"/>
</g>
</svg>
