<svg width="18" height="16" viewBox="0 0 18 16" fill="none" xmlns="http://www.w3.org/2000/svg">
<path d="M9.59057 0.174899C9.72388 0.0795398 9.87987 0.0208187 10.043 0.00459919C10.2061 -0.0116204 10.3706 0.0152292 10.52 0.0824669C10.6695 0.149705 10.7987 0.254978 10.8948 0.387775C10.9909 0.520572 11.0504 0.676247 11.0675 0.839255L11.0726 0.936353V14.2337C11.0727 14.3976 11.0297 14.5587 10.948 14.7008C10.8664 14.8429 10.7489 14.9611 10.6072 15.0436C10.4656 15.1261 10.3048 15.17 10.1409 15.1709C9.97701 15.1718 9.81574 15.1297 9.67319 15.0488L9.59142 14.996L3.98614 10.992H1.70348C1.27371 10.9921 0.859773 10.8298 0.544646 10.5376C0.229519 10.2454 0.0364914 9.84482 0.00425887 9.41626L8.54021e-08 9.2885V5.88155C-0.00013592 5.45178 0.162176 5.03784 0.4544 4.72272C0.746623 4.40759 1.14716 4.21456 1.57572 4.18233L1.70348 4.17807H3.98614L9.59057 0.174899ZM15.0477 3.1415C15.6728 3.70072 16.1729 4.38555 16.5153 5.15124C16.8577 5.91693 17.0347 6.74626 17.0348 7.58502C17.0347 8.42379 16.8577 9.25311 16.5153 10.0188C16.1729 10.7845 15.6728 11.4693 15.0477 12.0285C14.9645 12.1044 14.8672 12.163 14.7613 12.201C14.6554 12.239 14.543 12.2556 14.4306 12.2499C14.3183 12.2442 14.2081 12.2163 14.1066 12.1678C14.0051 12.1194 13.9141 12.0512 13.8391 11.9674C13.764 11.8836 13.7063 11.7857 13.6693 11.6794C13.6323 11.5732 13.6167 11.4607 13.6235 11.3483C13.6302 11.236 13.6591 11.1262 13.7085 11.0251C13.758 10.924 13.8269 10.8337 13.9114 10.7595C14.3581 10.36 14.7155 9.87078 14.9601 9.32376C15.2048 8.77675 15.3313 8.18426 15.3313 7.58502C15.3313 6.32445 14.7845 5.19164 13.9114 4.41059C13.8269 4.33632 13.758 4.24604 13.7085 4.14496C13.6591 4.04389 13.6302 3.93402 13.6235 3.8217C13.6167 3.70939 13.6323 3.59685 13.6693 3.4906C13.7063 3.38434 13.764 3.28647 13.8391 3.20265C13.9141 3.11882 14.0051 3.05069 14.1066 3.0022C14.2081 2.95371 14.3183 2.92581 14.4306 2.92013C14.543 2.91444 14.6554 2.93108 14.7613 2.96908C14.8672 3.00707 14.9645 3.06568 15.0477 3.1415ZM13.3442 5.04599C13.7013 5.36545 13.987 5.75662 14.1826 6.19398C14.3782 6.63134 14.4794 7.10505 14.4796 7.58417C14.4797 8.06358 14.3786 8.53761 14.1829 8.97529C13.9873 9.41296 13.7015 9.80441 13.3442 10.1241C13.1827 10.2675 12.9727 10.3442 12.7567 10.3387C12.5408 10.3331 12.335 10.2457 12.181 10.0942C12.0271 9.94261 11.9365 9.73821 11.9276 9.52237C11.9187 9.30653 11.9921 9.09536 12.133 8.93162L12.208 8.85497C12.5572 8.54153 12.7761 8.08925 12.7761 7.58502C12.7762 7.14902 12.6092 6.72957 12.3093 6.41303L12.208 6.31508C12.1234 6.24081 12.0545 6.15053 12.005 6.04945C11.9556 5.94837 11.9267 5.8385 11.92 5.72619C11.9132 5.61387 11.9288 5.50134 11.9659 5.39508C12.0029 5.28883 12.0606 5.19096 12.1356 5.10713C12.2107 5.02331 12.3016 4.95518 12.4031 4.90669C12.5046 4.8582 12.6148 4.8303 12.7272 4.82462C12.8395 4.81893 12.9519 4.83557 13.0578 4.87357C13.1637 4.91156 13.2611 4.97017 13.3442 5.04599Z" fill="white"/>
</svg>
