<svg xmlns="http://www.w3.org/2000/svg" width="25" height="24" viewBox="0 0 25 24" fill="none">
  <mask id="mask0_2188_49570" style="mask-type:alpha" maskUnits="userSpaceOnUse" x="0" y="0" width="25" height="24">
    <rect x="0.625" width="24" height="24" fill="#D9D9D9"/>
  </mask>
  <g mask="url(#mask0_2188_49570)">
    <path d="M12.625 15.5C13.6058 15.5 14.4343 15.1618 15.1105 14.4855C15.7868 13.8093 16.125 12.9808 16.125 12C16.125 11.0192 15.7868 10.1907 15.1105 9.5145C14.4343 8.83817 13.6058 8.5 12.625 8.5C11.6442 8.5 10.8157 8.83817 10.1395 9.5145C9.46317 10.1907 9.125 11.0192 9.125 12C9.125 12.9808 9.46317 13.8093 10.1395 14.4855C10.8157 15.1618 11.6442 15.5 12.625 15.5ZM12.625 13C12.3417 13 12.1042 12.9042 11.9125 12.7125C11.7208 12.5208 11.625 12.2833 11.625 12C11.625 11.7167 11.7208 11.4792 11.9125 11.2875C12.1042 11.0958 12.3417 11 12.625 11C12.9083 11 13.1458 11.0958 13.3375 11.2875C13.5292 11.4792 13.625 11.7167 13.625 12C13.625 12.2833 13.5292 12.5208 13.3375 12.7125C13.1458 12.9042 12.9083 13 12.625 13ZM12.6283 21C11.3837 21 10.2137 20.7638 9.118 20.2915C8.0225 19.8192 7.0695 19.1782 6.259 18.3685C5.4485 17.5588 4.80692 16.6067 4.33425 15.512C3.86142 14.4175 3.625 13.2479 3.625 12.0033C3.625 10.7587 3.86117 9.58867 4.3335 8.493C4.80583 7.3975 5.44683 6.4445 6.2565 5.634C7.06617 4.8235 8.01833 4.18192 9.113 3.70925C10.2075 3.23642 11.3771 3 12.6217 3C13.8663 3 15.0363 3.23617 16.132 3.7085C17.2275 4.18083 18.1805 4.82183 18.991 5.6315C19.8015 6.44117 20.4431 7.39333 20.9158 8.488C21.3886 9.5825 21.625 10.7521 21.625 11.9967C21.625 13.2413 21.3888 14.4113 20.9165 15.507C20.4442 16.6025 19.8032 17.5555 18.9935 18.366C18.1838 19.1765 17.2317 19.8181 16.137 20.2908C15.0425 20.7636 13.8729 21 12.6283 21ZM12.625 20C14.8583 20 16.75 19.225 18.3 17.675C19.85 16.125 20.625 14.2333 20.625 12C20.625 9.76667 19.85 7.875 18.3 6.325C16.75 4.775 14.8583 4 12.625 4C10.3917 4 8.5 4.775 6.95 6.325C5.4 7.875 4.625 9.76667 4.625 12C4.625 14.2333 5.4 16.125 6.95 17.675C8.5 19.225 10.3917 20 12.625 20Z" fill="#CCFF00"/>
  </g>
</svg>