<svg width="14" height="14" viewBox="0 0 14 14" fill="none" xmlns="http://www.w3.org/2000/svg">
<path d="M4.48 10.5L7 7.98L9.52 10.5L10.5 9.52L7.98 7L10.5 4.48L9.52 3.5L7 6.02L4.48 3.5L3.5 4.48L6.02 7L3.5 9.52L4.48 10.5ZM7 14C6.03167 14 5.12167 13.8162 4.27 13.4487C3.41833 13.0812 2.6775 12.5825 2.0475 11.9525C1.4175 11.3225 0.91875 10.5817 0.55125 9.73C0.18375 8.87833 0 7.96833 0 7C0 6.03167 0.18375 5.12167 0.55125 4.27C0.91875 3.41833 1.4175 2.6775 2.0475 2.0475C2.6775 1.4175 3.41833 0.91875 4.27 0.55125C5.12167 0.18375 6.03167 0 7 0C7.96833 0 8.87833 0.18375 9.73 0.55125C10.5817 0.91875 11.3225 1.4175 11.9525 2.0475C12.5825 2.6775 13.0812 3.41833 13.4487 4.27C13.8162 5.12167 14 6.03167 14 7C14 7.96833 13.8162 8.87833 13.4487 9.73C13.0812 10.5817 12.5825 11.3225 11.9525 11.9525C11.3225 12.5825 10.5817 13.0812 9.73 13.4487C8.87833 13.8162 7.96833 14 7 14Z" fill="#1A1A1A"/>
</svg>
