<svg width="25" height="25" viewBox="0 0 25 25" fill="none" xmlns="http://www.w3.org/2000/svg">
<mask id="mask0_3104_139366" style="mask-type:alpha" maskUnits="userSpaceOnUse" x="0" y="0" width="25" height="25">
<rect x="0.789062" y="0.0839844" width="24" height="24" fill="#D9D9D9"/>
</mask>
<g mask="url(#mask0_3104_139366)">
<path d="M10.3388 15.234L18.8138 6.75898C19.0138 6.55898 19.2471 6.45898 19.5138 6.45898C19.7804 6.45898 20.0138 6.55898 20.2138 6.75898C20.4138 6.95898 20.5138 7.19648 20.5138 7.47148C20.5138 7.74648 20.4138 7.98398 20.2138 8.18398L11.0388 17.384C10.8388 17.584 10.6054 17.684 10.3388 17.684C10.0721 17.684 9.83878 17.584 9.63878 17.384L5.33878 13.084C5.13878 12.884 5.04295 12.6465 5.05128 12.3715C5.05961 12.0965 5.16378 11.859 5.36378 11.659C5.56378 11.459 5.80128 11.359 6.07628 11.359C6.35128 11.359 6.58878 11.459 6.78878 11.659L10.3388 15.234Z" fill="#00FFB3"/>
</g>
</svg>
