<svg xmlns="http://www.w3.org/2000/svg" width="16" height="16" viewBox="0 0 16 16" fill="none">
  <mask id="mask0_786_15499" style="mask-type:alpha" maskUnits="userSpaceOnUse" x="0" y="0" width="16" height="16">
    <rect width="16" height="16" fill="#AAAAAA"/>
  </mask>
  <g mask="url(#mask0_786_15499)">
    <path d="M1.6001 14.3996V2.79961C1.6001 2.46961 1.7176 2.18711 1.9526 1.95211C2.1876 1.71711 2.4701 1.59961 2.8001 1.59961H13.2001C13.5301 1.59961 13.8126 1.71711 14.0476 1.95211C14.2826 2.18711 14.4001 2.46961 14.4001 2.79961V10.7996C14.4001 11.1296 14.2826 11.4121 14.0476 11.6471C13.8126 11.8821 13.5301 11.9996 13.2001 11.9996H4.0001L1.6001 14.3996ZM4.0001 9.59961H9.6001V8.39961H4.0001V9.59961ZM4.0001 7.39961H12.0001V6.19961H4.0001V7.39961ZM4.0001 5.19961H12.0001V3.99961H4.0001V5.19961Z" fill="#AAAAAA"/>
  </g>
</svg>