<svg xmlns="http://www.w3.org/2000/svg" width="22" height="22" viewBox="0 0 22 22" fill="none">
  <path d="M15.2639 3.11133C13.5552 3.11133 12.0694 3.90605 11.1955 5.23785C10.3216 3.90605 8.83586 3.11133 7.12715 3.11133C5.83282 3.11288 4.59193 3.64387 3.6767 4.58781C2.76146 5.53176 2.24662 6.81157 2.24512 8.1465C2.24512 10.597 3.726 13.1473 6.64708 15.7253C7.98561 16.9016 9.43148 17.9415 10.9644 18.8303C11.0355 18.8697 11.1149 18.8903 11.1955 18.8903C11.2762 18.8903 11.3555 18.8697 11.4266 18.8303C12.9595 17.9415 14.4054 16.9016 15.7439 15.7253C18.665 13.1473 20.1459 10.597 20.1459 8.1465C20.1444 6.81157 19.6295 5.53176 18.7143 4.58781C17.7991 3.64387 16.5582 3.11288 15.2639 3.11133ZM11.1955 17.8065C9.86027 17.0118 3.22152 12.8225 3.22152 8.1465C3.2226 7.07851 3.63443 6.05459 4.36664 5.2994C5.09886 4.54422 6.09164 4.11947 7.12715 4.11836C8.77727 4.11836 10.163 5.02721 10.7439 6.49077C10.7807 6.58312 10.8433 6.66211 10.9237 6.7177C11.0041 6.77329 11.0987 6.80297 11.1955 6.80297C11.2923 6.80297 11.3869 6.77329 11.4673 6.7177C11.5477 6.66211 11.6103 6.58312 11.6471 6.49077C12.2281 5.02721 13.6137 4.11836 15.2639 4.11836C16.2994 4.11947 17.2922 4.54422 18.0244 5.2994C18.7566 6.05459 19.1684 7.07851 19.1695 8.1465C19.1695 12.8225 12.5307 17.0118 11.1955 17.8065Z" fill="black"/>
</svg>