<svg width="7" height="8" viewBox="0 0 7 8" fill="none" xmlns="http://www.w3.org/2000/svg">
<g id="Component 7" clip-path="url(#clip0_2295_3925)">
<path id="Vector" d="M6.01367 0.994048L5.2131 1.1746V0.440476C5.2131 0.197421 4.97281 0 4.67698 0C4.38115 0 4.14086 0.197421 4.14086 0.440476V1.41567L2.86333 1.70337V0.440476C2.86333 0.197421 2.62304 0 2.32721 0C2.03138 0 1.79109 0.197421 1.79109 0.440476V1.94544L0.990523 2.12599C0.722461 2.12599 0.503906 2.30456 0.503906 2.52579V3.7252C0.503906 3.94544 0.721254 4.125 0.990523 4.125L1.79109 3.94444V4.82738L0.990523 5.00794C0.722461 5.00794 0.503906 5.18651 0.503906 5.40774V6.60714C0.503906 6.82837 0.721254 7.00694 0.990523 7.00694L1.79109 6.82639V7.55952C1.79109 7.64583 1.82248 7.73115 1.88044 7.80357C2.17386 8.16766 2.86454 7.99603 2.86454 7.55952V6.58532L4.14206 6.29762V7.56052C4.14206 7.64683 4.17346 7.73214 4.23142 7.80456C4.52484 8.16865 5.21552 7.99702 5.21552 7.56052V6.05655L6.01608 5.87599C6.28414 5.87599 6.5027 5.69742 6.5027 5.47619V4.27679C6.5027 4.05556 6.28535 3.87698 6.01608 3.87698L5.21552 4.05754V3.1746L6.01608 2.99405C6.28414 2.99405 6.5027 2.81548 6.5027 2.59425V1.39484C6.5027 1.17361 6.28535 0.99504 6.01608 0.99504L6.01367 0.994048ZM4.13965 4.29762L2.86213 4.58532V3.70238L4.13965 3.41468V4.29762Z" fill="#FF004C"/>
</g>
<defs>
<clipPath id="clip0_2295_3925">
<rect width="6" height="8" fill="white" transform="translate(0.5)"/>
</clipPath>
</defs>
</svg>
