<svg width="9" height="8" viewBox="0 0 9 8" fill="none" xmlns="http://www.w3.org/2000/svg">
<g id="Component 8" clip-path="url(#clip0_2295_4291)">
<path id="Vector" d="M4.00938 5.78946C4.01453 5.76207 4.01796 5.73371 4.01796 5.70339V2.42181H7.80572V4.72038C7.32635 4.51204 6.67033 4.59029 6.07091 4.98349C5.17392 5.57232 4.7443 6.64042 5.11218 7.36912C5.48007 8.09879 6.50483 8.21225 7.40267 7.6244C8.09214 7.17251 8.5029 6.43795 8.49089 5.79044C8.49604 5.76305 8.49947 5.73469 8.49947 5.70436V1.05734C8.49947 1.02995 8.4969 1.00355 8.49261 0.977137V0.288544C8.49261 0.130089 8.37855 0 8.23963 0H3.5626C3.42368 0 3.30963 0.130089 3.30963 0.288544V2.13327C3.30963 2.16555 3.31563 2.19587 3.32421 2.22521V4.72038C2.84484 4.51204 2.18882 4.59029 1.5894 4.98349C0.692415 5.57232 0.262787 6.64042 0.630672 7.36912C0.998557 8.09879 2.02332 8.21225 2.92116 7.6244C3.61063 7.17251 4.02139 6.43795 4.00938 5.79044V5.78946Z" fill="#3300FF"/>
</g>
<defs>
<clipPath id="clip0_2295_4291">
<rect width="8" height="8" fill="white" transform="translate(0.5)"/>
</clipPath>
</defs>
</svg>
