<svg xmlns="http://www.w3.org/2000/svg" width="25" height="24" viewBox="0 0 25 24" fill="none">
  <mask id="mask0_902_61297" style="mask-type:alpha" maskUnits="userSpaceOnUse" x="0" y="0" width="25" height="24">
    <rect x="0.0654297" width="24" height="24" fill="#D9D9D9"/>
  </mask>
  <g mask="url(#mask0_902_61297)">
    <path d="M12.0654 21.0004L10.6154 19.7004C8.9321 18.1837 7.54043 16.8754 6.44043 15.7754C5.34043 14.6754 4.46543 13.6879 3.81543 12.8129C3.16543 11.9379 2.71126 11.1337 2.45293 10.4004C2.1946 9.66706 2.06543 8.91706 2.06543 8.15039C2.06543 6.58372 2.59043 5.27539 3.64043 4.22539C4.69043 3.17539 5.99876 2.65039 7.56543 2.65039C8.4321 2.65039 9.2571 2.83372 10.0404 3.20039C10.8238 3.56706 11.4988 4.08372 12.0654 4.75039C12.6321 4.08372 13.3071 3.56706 14.0904 3.20039C14.8738 2.83372 15.6988 2.65039 16.5654 2.65039C18.1321 2.65039 19.4404 3.17539 20.4904 4.22539C21.5404 5.27539 22.0654 6.58372 22.0654 8.15039C22.0654 8.91706 21.9363 9.66706 21.6779 10.4004C21.4196 11.1337 20.9654 11.9379 20.3154 12.8129C19.6654 13.6879 18.7904 14.6754 17.6904 15.7754C16.5904 16.8754 15.1988 18.1837 13.5154 19.7004L12.0654 21.0004Z" fill="url(#paint0_radial_902_61297)"/>
  </g>
  <defs>
    <radialGradient id="paint0_radial_902_61297" cx="0" cy="0" r="1" gradientUnits="userSpaceOnUse" gradientTransform="translate(2.06543 3.42032) rotate(41.0088) scale(26.1725 51.0322)">
      <stop offset="0.2" stop-color="#FF0004"/>
      <stop offset="0.497578" stop-color="#FFA6A7"/>
      <stop offset="0.802083" stop-color="#F7FF00"/>
    </radialGradient>
  </defs>
</svg>