<svg xmlns="http://www.w3.org/2000/svg" width="16" height="16" viewBox="0 0 16 16" fill="none">
  <mask id="mask0_888_629" style="mask-type:alpha" maskUnits="userSpaceOnUse" x="0" y="0" width="16" height="16">
    <rect width="16" height="16" fill="#D9D9D9"/>
  </mask>
  <g mask="url(#mask0_888_629)">
    <path d="M8.00016 14.0009L7.0335 13.1342C5.91127 12.1231 4.9835 11.2509 4.25016 10.5176C3.51683 9.78425 2.9335 9.12591 2.50016 8.54258C2.06683 7.95925 1.76405 7.42313 1.59183 6.93425C1.41961 6.44536 1.3335 5.94536 1.3335 5.43424C1.3335 4.3898 1.6835 3.51758 2.3835 2.81758C3.0835 2.11758 3.95572 1.76758 5.00016 1.76758C5.57794 1.76758 6.12794 1.8898 6.65016 2.13424C7.17239 2.37869 7.62239 2.72313 8.00016 3.16758C8.37794 2.72313 8.82794 2.37869 9.35016 2.13424C9.87239 1.8898 10.4224 1.76758 11.0002 1.76758C12.0446 1.76758 12.9168 2.11758 13.6168 2.81758C14.3168 3.51758 14.6668 4.3898 14.6668 5.43424C14.6668 5.94536 14.5807 6.44536 14.4085 6.93425C14.2363 7.42313 13.9335 7.95925 13.5002 8.54258C13.0668 9.12591 12.4835 9.78425 11.7502 10.5176C11.0168 11.2509 10.0891 12.1231 8.96683 13.1342L8.00016 14.0009Z" fill="#AAAAAA"/>
  </g>
</svg>