<svg width="13" height="13" viewBox="0 0 13 13" fill="none" xmlns="http://www.w3.org/2000/svg">
<g id="issue-opened" clip-path="url(#clip0_2542_161136)">
<path id="Vector" fill-rule="evenodd" clip-rule="evenodd" d="M6.45703 1.64648C5.1641 1.64648 3.92412 2.1601 3.00989 3.07434C2.09565 3.98858 1.58203 5.22855 1.58203 6.52148C1.58203 7.81442 2.09565 9.05438 3.00989 9.96863C3.92412 10.8829 5.1641 11.3965 6.45703 11.3965C7.74996 11.3965 8.98993 10.8829 9.90418 9.96863C10.8184 9.05438 11.332 7.81442 11.332 6.52148C11.332 5.22855 10.8184 3.98858 9.90418 3.07434C8.98993 2.1601 7.74996 1.64648 6.45703 1.64648ZM0.457031 6.52148C0.457031 4.93019 1.08917 3.40406 2.21439 2.27885C3.33961 1.15363 4.86573 0.521484 6.45703 0.521484C8.04831 0.521484 9.57448 1.15363 10.6997 2.27885C11.8249 3.40406 12.457 4.93019 12.457 6.52148C12.457 8.11276 11.8249 9.63894 10.6997 10.7642C9.57448 11.8893 8.04831 12.5215 6.45703 12.5215C4.86573 12.5215 3.33961 11.8893 2.21439 10.7642C1.08917 9.63894 0.457031 8.11276 0.457031 6.52148ZM7.20703 8.77148C7.20703 8.97038 7.12801 9.16118 6.98736 9.30181C6.84671 9.44243 6.65595 9.52148 6.45703 9.52148C6.25812 9.52148 6.06735 9.44243 5.9267 9.30181C5.78605 9.16118 5.70703 8.97038 5.70703 8.77148C5.70703 8.57258 5.78605 8.38178 5.9267 8.24116C6.06735 8.10053 6.25812 8.02148 6.45703 8.02148C6.65595 8.02148 6.84671 8.10053 6.98736 8.24116C7.12801 8.38178 7.20703 8.57258 7.20703 8.77148ZM7.01953 4.08398C7.01953 3.9348 6.96027 3.79172 6.85478 3.68624C6.74929 3.58075 6.60621 3.52148 6.45703 3.52148C6.30785 3.52148 6.16477 3.58075 6.05928 3.68624C5.9538 3.79172 5.89453 3.9348 5.89453 4.08398V6.70898C5.89453 6.85817 5.9538 7.00124 6.05928 7.10673C6.16477 7.21222 6.30785 7.27148 6.45703 7.27148C6.60621 7.27148 6.74929 7.21222 6.85478 7.10673C6.96027 7.00124 7.01953 6.85817 7.01953 6.70898V4.08398Z" fill="white"/>
</g>
<defs>
<clipPath id="clip0_2542_161136">
<rect width="12" height="12" fill="white" transform="translate(0.457031 0.521484)"/>
</clipPath>
</defs>
</svg>
