<svg width="16" height="16" viewBox="0 0 16 16" fill="none" xmlns="http://www.w3.org/2000/svg">
<g clip-path="url(#clip0_2924_52811)">
<path fill-rule="evenodd" clip-rule="evenodd" d="M9.68087 3.26409C8.53209 2.87513 7.28108 2.917 6.16087 3.38189C5.04066 3.84678 4.12761 4.703 3.59179 5.79107C3.05598 6.87914 2.93392 8.12488 3.24835 9.29625C3.56278 10.4676 4.29227 11.4848 5.30095 12.1583C6.30962 12.8318 7.5287 13.1156 8.73114 12.9571C9.93357 12.7985 11.0374 12.2083 11.837 11.2963C12.6365 10.3843 13.0774 9.21284 13.0774 7.99999C13.0774 7.72385 13.3013 7.49999 13.5774 7.49999C13.8535 7.49999 14.0774 7.72385 14.0774 7.99999C14.0774 9.45541 13.5484 10.8612 12.5889 11.9556C11.6294 13.0499 10.3048 13.7582 8.86189 13.9485C7.41896 14.1388 5.95606 13.7981 4.74566 12.9899C3.53525 12.1817 2.65986 10.9612 2.28254 9.55551C1.90522 8.14985 2.05169 6.65497 2.69467 5.34928C3.33766 4.0436 4.43331 3.01614 5.77757 2.45827C7.12182 1.9004 8.62302 1.85016 10.0016 2.31691C11.3801 2.78365 12.542 3.73556 13.2709 4.99533C13.4091 5.23436 13.3275 5.54022 13.0885 5.67851C12.8494 5.8168 12.5436 5.73513 12.4053 5.49611C11.7979 4.4463 10.8297 3.65304 9.68087 3.26409Z" fill="#CCFF00"/>
<path fill-rule="evenodd" clip-rule="evenodd" d="M8 11.6667C8.27614 11.6667 8.5 11.8905 8.5 12.1667L8.5 13.1095C8.5 13.3856 8.27614 13.6095 8 13.6095C7.72386 13.6095 7.5 13.3856 7.5 13.1095L7.5 12.1667C7.5 11.8905 7.72386 11.6667 8 11.6667Z" fill="#CCFF00"/>
<path fill-rule="evenodd" clip-rule="evenodd" d="M3.07983 4.94791C3.07983 4.67176 3.30369 4.44791 3.57983 4.44791H9.08567C9.36181 4.44791 9.58567 4.67176 9.58567 4.94791C9.58567 5.22405 9.36181 5.44791 9.08567 5.44791H3.57983C3.30369 5.44791 3.07983 5.22405 3.07983 4.94791Z" fill="#CCFF00"/>
<path fill-rule="evenodd" clip-rule="evenodd" d="M2.23242 8.20084C2.23242 7.92469 2.45628 7.70084 2.73242 7.70084H8.23826C8.5144 7.70084 8.73826 7.92469 8.73826 8.20084C8.73826 8.47698 8.5144 8.70084 8.23826 8.70084H2.73242C2.45628 8.70084 2.23242 8.47698 2.23242 8.20084Z" fill="#CCFF00"/>
<path fill-rule="evenodd" clip-rule="evenodd" d="M3.07983 10.8331C3.07983 10.557 3.30369 10.3331 3.57983 10.3331H9.08567C9.36181 10.3331 9.58567 10.557 9.58567 10.8331C9.58567 11.1092 9.36181 11.3331 9.08567 11.3331H3.57983C3.30369 11.3331 3.07983 11.1092 3.07983 10.8331Z" fill="#CCFF00"/>
<path fill-rule="evenodd" clip-rule="evenodd" d="M6.55347 4.94791C6.55347 4.67176 6.77732 4.44791 7.05347 4.44791H12.5593C12.8354 4.44791 13.0593 4.67176 13.0593 4.94791C13.0593 5.22405 12.8354 5.44791 12.5593 5.44791H7.05347C6.77732 5.44791 6.55347 5.22405 6.55347 4.94791Z" fill="#CCFF00"/>
<path fill-rule="evenodd" clip-rule="evenodd" d="M7.28638 8.20084C7.28638 7.92469 7.51023 7.70084 7.78638 7.70084H13.2922C13.5684 7.70084 13.7922 7.92469 13.7922 8.20084C13.7922 8.47698 13.5684 8.70084 13.2922 8.70084H7.78638C7.51023 8.70084 7.28638 8.47698 7.28638 8.20084Z" fill="#CCFF00"/>
<path fill-rule="evenodd" clip-rule="evenodd" d="M6.55347 10.8331C6.55347 10.557 6.77732 10.3331 7.05347 10.3331H12.5593C12.8354 10.3331 13.0593 10.557 13.0593 10.8331C13.0593 11.1092 12.8354 11.3331 12.5593 11.3331H7.05347C6.77732 11.3331 6.55347 11.1092 6.55347 10.8331Z" fill="#CCFF00"/>
<path fill-rule="evenodd" clip-rule="evenodd" d="M8 2.19498C8.27614 2.19498 8.5 2.41883 8.5 2.69498L8.5 8.20082C8.5 8.47696 8.27614 8.70082 8 8.70082C7.72386 8.70082 7.5 8.47696 7.5 8.20082L7.5 2.69498C7.5 2.41883 7.72386 2.19498 8 2.19498Z" fill="#CCFF00"/>
<path fill-rule="evenodd" clip-rule="evenodd" d="M8 6.34024C8.27614 6.34024 8.5 6.5641 8.5 6.84024L8.5 12.3461C8.5 12.6222 8.27614 12.8461 8 12.8461C7.72386 12.8461 7.5 12.6222 7.5 12.3461L7.5 6.84024C7.5 6.5641 7.72386 6.34024 8 6.34024Z" fill="#CCFF00"/>
<path d="M6.4831 3.26179C6.09866 4.14448 5.63593 5.73417 5.50947 7.51179C5.38285 9.29175 5.59732 11.2032 6.50556 12.7764L5.63968 13.2764C4.59429 11.4657 4.3777 9.3297 4.51207 7.44083C4.64662 5.54961 5.13684 3.8491 5.56644 2.8627L6.4831 3.26179Z" fill="#CCFF00"/>
<path d="M9.81135 3.26179C10.1947 4.14187 10.6447 5.72837 10.7583 7.50463C10.872 9.28268 10.6452 11.1945 9.73583 12.7696L10.6017 13.2696C11.646 11.4608 11.8771 9.32813 11.7563 7.44083C11.6355 5.55186 11.1591 3.85171 10.7283 2.8627L9.81135 3.26179Z" fill="#CCFF00"/>
</g>
<defs>
<clipPath id="clip0_2924_52811">
<path d="M0 6C0 2.68629 2.68629 0 6 0H14C15.1046 0 16 0.895431 16 2V10C16 13.3137 13.3137 16 10 16H6C2.68629 16 0 13.3137 0 10V6Z" fill="white"/>
</clipPath>
</defs>
</svg>
