<svg width="26" height="26" viewBox="0 0 26 26" fill="none" xmlns="http://www.w3.org/2000/svg">
<path d="M8.17676 6C7.52704 6 7 6.52704 7 7.17676V18.8232C7.00015 19.4728 7.52713 19.999 8.17676 19.999C8.82635 19.999 9.35336 19.4728 9.35352 18.8232V13.457C9.46166 13.8071 9.6938 14.1254 10.0566 14.3311L17.7773 18.7061C18.7969 19.2838 20.0605 18.5468 20.0605 17.375V8.625C20.0605 7.45319 18.7968 6.71627 17.7773 7.29395L10.0566 11.6699C9.69424 11.8753 9.46183 12.1924 9.35352 12.542V7.17676C9.35352 6.52706 8.82644 6.00004 8.17676 6Z" fill="white"/>
</svg>
