<svg width="14" height="15" viewBox="0 0 14 15" fill="none" xmlns="http://www.w3.org/2000/svg">
<mask id="mask0_872_31015" style="mask-type:alpha" maskUnits="userSpaceOnUse" x="0" y="0" width="14" height="15">
<rect y="0.5" width="14" height="14" fill="#D9D9D9"/>
</mask>
<g mask="url(#mask0_872_31015)">
<path d="M5.83317 11.0003C5.51234 11.0003 5.23768 10.8861 5.00921 10.6576C4.78074 10.4291 4.6665 10.1545 4.6665 9.83366V9.10449C4.11234 8.72533 3.68213 8.23921 3.37588 7.64616C3.06963 7.0531 2.9165 6.42116 2.9165 5.75033C2.9165 4.61283 3.31268 3.6479 4.10505 2.85553C4.89741 2.06317 5.86234 1.66699 6.99984 1.66699C8.13734 1.66699 9.10227 2.06317 9.89463 2.85553C10.687 3.6479 11.0832 4.61283 11.0832 5.75033C11.0832 6.42116 10.93 7.05067 10.6238 7.63887C10.3175 8.22706 9.88734 8.7156 9.33317 9.10449V9.83366C9.33317 10.1545 9.21894 10.4291 8.99046 10.6576C8.76199 10.8861 8.48734 11.0003 8.1665 11.0003H5.83317ZM5.83317 9.83366H8.1665V8.49199L8.66234 8.14199C9.06095 7.86977 9.36963 7.5222 9.58838 7.09928C9.80713 6.67637 9.9165 6.22671 9.9165 5.75033C9.9165 4.94338 9.63213 4.25553 9.06338 3.68678C8.49463 3.11803 7.80678 2.83366 6.99984 2.83366C6.19289 2.83366 5.50505 3.11803 4.9363 3.68678C4.36755 4.25553 4.08317 4.94338 4.08317 5.75033C4.08317 6.22671 4.19255 6.67637 4.4113 7.09928C4.63005 7.5222 4.93873 7.86977 5.33734 8.14199L5.83317 8.49199V9.83366ZM5.83317 13.3337C5.66789 13.3337 5.52935 13.2778 5.41755 13.166C5.30574 13.0541 5.24984 12.9156 5.24984 12.7503V12.167H8.74984V12.7503C8.74984 12.9156 8.69394 13.0541 8.58213 13.166C8.47032 13.2778 8.33178 13.3337 8.1665 13.3337H5.83317Z" fill="#CCFF00"/>
</g>
</svg>
