<svg width="25" height="24" viewBox="0 0 25 24" fill="none" xmlns="http://www.w3.org/2000/svg">
<g id="link">
<mask id="mask0_2727_11779" style="mask-type:alpha" maskUnits="userSpaceOnUse" x="0" y="0" width="25" height="24">
<rect id="Bounding box" x="0.367188" width="24" height="24" fill="#D9D9D9"/>
</mask>
<g mask="url(#mask0_2727_11779)">
<path id="link_2" d="M10.9827 16.0759H7.44419C6.31619 16.0759 5.35469 15.6785 4.55969 14.8836C3.76469 14.0888 3.36719 13.1275 3.36719 11.9999C3.36719 10.8722 3.76469 9.91063 4.55969 9.11513C5.35469 8.31963 6.31619 7.92188 7.44419 7.92188H10.9827V8.92188H7.44419C6.59802 8.92188 5.8736 9.22321 5.27094 9.82588C4.66844 10.4284 4.36719 11.1527 4.36719 11.9989C4.36719 12.845 4.66844 13.5694 5.27094 14.1719C5.8736 14.7745 6.59802 15.0759 7.44419 15.0759H10.9827V16.0759ZM8.86719 12.4989V11.4989H15.8672V12.4989H8.86719ZM13.7517 16.0759V15.0759H17.2902C18.1364 15.0759 18.8608 14.7745 19.4634 14.1719C20.0659 13.5694 20.3672 12.845 20.3672 11.9989C20.3672 11.1527 20.0659 10.4284 19.4634 9.82588C18.8608 9.22321 18.1364 8.92188 17.2902 8.92188H13.7517V7.92188H17.2902C18.4182 7.92188 19.3797 8.31929 20.1747 9.11413C20.9697 9.90896 21.3672 10.8702 21.3672 11.9979C21.3672 13.1255 20.9697 14.0871 20.1747 14.8826C19.3797 15.6781 18.4182 16.0759 17.2902 16.0759H13.7517Z" fill="#F1F1F1"/>
</g>
</g>
</svg>
