<svg width="14" height="14" viewBox="0 0 14 14" fill="none" xmlns="http://www.w3.org/2000/svg">
<rect width="14" height="14" rx="7" fill="#222222"/>
<path d="M10.75 8.25V7.09615C10.75 4.97198 9.07106 3.25 7 3.25C4.92894 3.25 3.25 4.97198 3.25 7.09615V8.25" stroke="#6458FF" stroke-linecap="round" stroke-linejoin="round"/>
<path d="M9.08301 8.66536C9.08301 8.20514 9.45611 7.83203 9.91634 7.83203H10.7497V10.7487H9.91634C9.45611 10.7487 9.08301 10.3756 9.08301 9.91536V8.66536Z" fill="#6458FF" stroke="#6458FF" stroke-linejoin="round"/>
<path d="M10.75 8.66797H11.1667C11.3968 8.66797 11.5833 8.85451 11.5833 9.08464V9.5013C11.5833 9.73143 11.3968 9.91797 11.1667 9.91797H10.75V8.66797Z" fill="#6458FF"/>
<path d="M3.25033 8.66797H2.83366C2.60354 8.66797 2.41699 8.85451 2.41699 9.08464V9.5013C2.41699 9.73143 2.60354 9.91797 2.83366 9.91797H3.25033V8.66797Z" fill="#6458FF"/>
<path d="M3.25 7.83203H4.08333C4.54356 7.83203 4.91667 8.20514 4.91667 8.66536V9.91536C4.91667 10.3756 4.54356 10.7487 4.08333 10.7487H3.25V7.83203Z" fill="#6458FF" stroke="#6458FF" stroke-linejoin="round"/>
</svg>
