<?xml version="1.0" encoding="UTF-8"?>
<svg id="_레이어_1" data-name="레이어 1" xmlns="http://www.w3.org/2000/svg" viewBox="0 0 1000 1000">
  <defs>
    <style>
      .cls-1 {
        stroke: #333;
      }

      .cls-1, .cls-2 {
        stroke-width: 100px;
      }

      .cls-1, .cls-2, .cls-3 {
        fill: none;
        stroke-linecap: round;
        stroke-linejoin: round;
      }

      .cls-4 {
        fill: #daff00;
      }

      .cls-2, .cls-3 {
        stroke: #daff00;
      }

      .cls-3 {
        stroke-width: 22px;
      }
    </style>
  </defs>
  <circle cx="500" cy="500" r="500"/>
  <g>
    <path class="cls-1" d="M734.46,179.87c-66.07-39.82-143.46-62.76-226.23-62.76s-160.16,22.94-226.23,62.76"/>
    <path class="cls-4" d="M259.04,847.69v-497.45h122.85l118.59,374.9h2.13l118.59-374.9h122.14v497.45h-87.34v-386.5h-2.84l-122.14,386.5h-71.72l-121.43-386.5h-2.13v386.5h-76.69Z"/>
    <path class="cls-3" d="M940.2,491.02c0-242.46-196.55-439.02-439.02-439.02S62.17,248.55,62.17,491.02"/>
    <path class="cls-2" d="M729.41,153.95c-66.07-39.82-143.46-62.76-226.23-62.76s-160.16,22.94-226.23,62.76"/>
    <g>
      <path class="cls-4" d="M838.15,364.66l8.86.22c2.52-2.46,5.95-3.98,9.75-3.98h2.62c7.7,0,13.95,6.24,13.95,13.95v27.68s47.73,0,47.73,0c13.48,0,24.41,10.93,24.41,24.41v41.85c6.2,3.12,10.46,9.52,10.46,16.94v131.77c0,7.41-4.26,13.82-10.46,16.94,0,34-16.57,55.14-41.41,55.14h-30.73s-13.95,0-13.95,0h-2.62c-3.68,0-7.02-1.44-9.51-3.76-.07,0-.14,0-.22,0l-16.99-.43c-7.7-.19-13.79-6.6-13.59-14.3l7.41-292.84c.19-7.7,6.59-13.79,14.3-13.59Z"/>
      <path class="cls-4" d="M944.87,468.92v165.14s24.89-72.33,0-165.14Z"/>
      <path class="cls-4" d="M824.17,445.69l-4.04,218.12s4.76,14.3,17.17,0l4.27-282.18s-8.54,12.8-16.21,0l-1.19,64.06Z"/>
      <path class="cls-4" d="M841.6,466.69l-4.47,204.02s7.75,13.3,27.51-.27l4.24-263.92s-14.44,15.77-25.97.26l-1.31,59.92Z"/>
      <path class="cls-4" d="M870.19,431.87v248.48h38.09s20.26-3.62,26.42-30.02c6.17-26.39.9-184.89.9-184.89,0,0-31.79,30.68-65.42-33.57Z"/>
    </g>
    <g>
      <path class="cls-4" d="M161.85,364.66l-8.86.22c-2.52-2.46-5.95-3.98-9.75-3.98h-2.62c-7.7,0-13.95,6.24-13.95,13.95v27.68h-47.73c-13.48,0-24.41,10.93-24.41,24.41v41.85c-6.2,3.12-10.46,9.52-10.46,16.94v131.77c0,7.41,4.26,13.82,10.46,16.94,0,34,16.57,55.14,41.41,55.14h30.73s13.95,0,13.95,0h2.62c3.68,0,7.02-1.44,9.51-3.76.07,0,.14,0,.22,0l16.99-.43c7.7-.19,13.79-6.6,13.59-14.3l-7.41-292.84c-.19-7.7-6.59-13.79-14.3-13.59Z"/>
      <path class="cls-4" d="M55.13,468.92v165.14s-24.89-72.33,0-165.14Z"/>
      <path class="cls-4" d="M175.83,445.69l4.04,218.12s-4.76,14.3-17.17,0l-4.27-282.18s8.54,12.8,16.21,0l1.19,64.06Z"/>
      <path class="cls-4" d="M158.4,466.69l4.47,204.02s-7.75,13.3-27.51-.27l-4.24-263.92s14.44,15.77,25.97.26l1.31,59.92Z"/>
      <path class="cls-4" d="M129.81,431.87v248.48h-38.09s-20.26-3.62-26.42-30.02c-6.17-26.39-.9-184.89-.9-184.89,0,0,31.79,30.68,65.42-33.57Z"/>
    </g>
  </g>
</svg>