<?xml version="1.0" encoding="UTF-8"?>
<svg id="_레이어_1" data-name="레이어 1" xmlns="http://www.w3.org/2000/svg" xmlns:xlink="http://www.w3.org/1999/xlink" viewBox="0 0 1000 1000">
  <defs>
    <style>
      .cls-1, .cls-2 {
        stroke: #333;
      }

      .cls-1, .cls-2, .cls-3, .cls-4 {
        fill: none;
        stroke-linecap: round;
        stroke-linejoin: round;
      }

      .cls-1, .cls-4 {
        stroke-width: 100px;
      }

      .cls-5 {
        fill: url(#_무제_그라디언트_269-7);
      }

      .cls-6 {
        fill: url(#_무제_그라디언트_269-6);
      }

      .cls-7 {
        fill: url(#_무제_그라디언트_269-8);
      }

      .cls-8 {
        fill: url(#_무제_그라디언트_269-5);
      }

      .cls-9 {
        fill: url(#_무제_그라디언트_269-3);
      }

      .cls-10 {
        fill: url(#_무제_그라디언트_269-2);
      }

      .cls-11 {
        fill: url(#_무제_그라디언트_269-4);
      }

      .cls-2 {
        stroke-width: 40px;
      }

      .cls-12 {
        fill: #daff00;
      }

      .cls-3 {
        stroke: url(#_무제_그라디언트_263);
        stroke-width: 22px;
      }

      .cls-13 {
        fill: url(#_무제_그라디언트_194);
        stroke: #262626;
        stroke-miterlimit: 10;
        stroke-width: 20px;
      }

      .cls-14 {
        fill: url(#_무제_그라디언트_269);
      }

      .cls-4 {
        stroke: url(#_무제_그라디언트_248);
      }

      .cls-15 {
        fill: url(#_흰색_검정);
      }

      .cls-16 {
        fill: #333;
      }

      .cls-17 {
        fill: url(#_흰색_검정-2);
      }
    </style>
    <radialGradient id="_무제_그라디언트_194" data-name="무제 그라디언트 194" cx="500" cy="622.96" fx="500" fy="622.96" r="245.46" gradientUnits="userSpaceOnUse">
      <stop offset="0" stop-color="#999"/>
      <stop offset="1" stop-color="#000"/>
    </radialGradient>
    <linearGradient id="_무제_그라디언트_263" data-name="무제 그라디언트 263" x1="49.98" y1="295.51" x2="950.02" y2="295.51" gradientUnits="userSpaceOnUse">
      <stop offset="0" stop-color="#b1b1b1"/>
      <stop offset=".53" stop-color="#000"/>
      <stop offset="1" stop-color="#cdcdcd"/>
    </linearGradient>
    <radialGradient id="_무제_그라디언트_248" data-name="무제 그라디언트 248" cx="502" cy="146.57" fx="502" fy="146.57" r="203.62" gradientUnits="userSpaceOnUse">
      <stop offset="0" stop-color="#fff"/>
      <stop offset="1" stop-color="#000"/>
    </radialGradient>
    <linearGradient id="_흰색_검정" data-name="흰색, 검정" x1="4287.93" y1="384.9" x2="4287.93" y2="713.58" gradientTransform="translate(5172.94) rotate(-180) scale(1 -1)" gradientUnits="userSpaceOnUse">
      <stop offset="0" stop-color="#fff"/>
      <stop offset="1" stop-color="#000"/>
    </linearGradient>
    <linearGradient id="_무제_그라디언트_269" data-name="무제 그라디언트 269" x1="949.21" y1="658.06" x2="949.21" y2="492.92" gradientUnits="userSpaceOnUse">
      <stop offset="0" stop-color="#000" stop-opacity=".4"/>
      <stop offset="1" stop-color="#fff"/>
    </linearGradient>
    <linearGradient id="_무제_그라디언트_269-2" data-name="무제 그라디언트 269" x1="829.66" y1="694.17" x2="829.66" y2="405.63" xlink:href="#_무제_그라디언트_269"/>
    <linearGradient id="_무제_그라디언트_269-3" data-name="무제 그라디언트 269" x1="852.86" y1="683.74" x2="852.86" y2="413.93" gradientTransform="translate(-6.38 25.18) rotate(-.56)" xlink:href="#_무제_그라디언트_269"/>
    <linearGradient id="_무제_그라디언트_269-4" data-name="무제 그라디언트 269" x1="902.76" y1="704.35" x2="902.76" y2="455.87" xlink:href="#_무제_그라디언트_269"/>
    <linearGradient id="_흰색_검정-2" data-name="흰색, 검정" x1="5027.82" y1="384.9" x2="5027.82" y2="713.58" gradientTransform="translate(-4915.2)" xlink:href="#_흰색_검정"/>
    <linearGradient id="_무제_그라디언트_269-5" data-name="무제 그라디언트 269" x1="209.32" y1="658.06" x2="209.32" y2="492.92" gradientTransform="translate(257.74) rotate(-180) scale(1 -1)" xlink:href="#_무제_그라디언트_269"/>
    <linearGradient id="_무제_그라디언트_269-6" data-name="무제 그라디언트 269" x1="89.77" y1="694.17" x2="89.77" y2="405.63" gradientTransform="translate(257.74) rotate(-180) scale(1 -1)" xlink:href="#_무제_그라디언트_269"/>
    <linearGradient id="_무제_그라디언트_269-7" data-name="무제 그라디언트 269" x1="113.01" y1="676.45" x2="113.01" y2="406.64" gradientTransform="translate(264.11 25.18) rotate(-179.44) scale(1 -1)" xlink:href="#_무제_그라디언트_269"/>
    <linearGradient id="_무제_그라디언트_269-8" data-name="무제 그라디언트 269" x1="162.87" y1="704.35" x2="162.87" y2="455.87" gradientTransform="translate(257.74) rotate(-180) scale(1 -1)" xlink:href="#_무제_그라디언트_269"/>
  </defs>
  <path class="cls-1" d="M733.27,203.87c-66.07-39.82-143.46-62.76-226.23-62.76s-160.16,22.94-226.23,62.76"/>
  <circle class="cls-12" cx="502" cy="500" r="500"/>
  <path class="cls-2" d="M918.37,524.01c0-232.03-188.1-420.13-420.13-420.13S78.1,291.98,78.1,524.01"/>
  <path class="cls-13" d="M257.86,871.69v-497.45h122.85l118.59,374.9h2.13l118.59-374.9h122.14v497.45h-87.34v-386.5h-2.84l-122.14,386.5h-71.72l-121.43-386.5h-2.13v386.5h-76.69Z"/>
  <path class="cls-1" d="M728.22,203.87c-66.07-39.82-143.46-62.76-226.23-62.76s-160.16,22.94-226.23,62.76"/>
  <path class="cls-3" d="M939.02,515.02c0-242.46-196.55-439.02-439.02-439.02S60.98,272.55,60.98,515.02"/>
  <path class="cls-4" d="M728.22,177.95c-66.07-39.82-143.46-62.76-226.23-62.76s-160.16,22.94-226.23,62.76"/>
  <path class="cls-16" d="M803.71,373.85l8.44.25c2.4-2.77,5.67-4.48,9.29-4.48h59.26c7.34,0,13.29,7.02,13.29,15.68v31.12s1.74,0,1.74,0c12.85,0,30.81,12.29,30.81,27.44v47.04c5.91,3.51,9.97,10.71,9.97,19.04v148.13c0,8.33-4.06,15.53-9.97,19.04,0,38.22-15.79,61.98-39.46,61.98h-49.86s-13.29,0-13.29,0h-2.49c-3.51,0-6.69-1.61-9.06-4.23-.07,0-.14,0-.21,0l-16.19-.48c-7.34-.22-13.14-7.42-12.95-16.07l7.06-329.18c.19-8.66,6.28-15.5,13.62-15.28Z"/>
  <g>
    <path class="cls-15" d="M836.97,388.66l8.86.22c2.52-2.46,5.95-3.98,9.75-3.98h2.62c7.7,0,13.95,6.24,13.95,13.95v27.68s47.73,0,47.73,0c13.48,0,24.41,10.93,24.41,24.41v41.85c6.2,3.12,10.46,9.52,10.46,16.94v131.77c0,7.41-4.26,13.82-10.46,16.94,0,34-16.57,55.14-41.41,55.14h-30.73s-13.95,0-13.95,0h-2.62c-3.68,0-7.02-1.44-9.51-3.76-.07,0-.14,0-.22,0l-16.99-.43c-7.7-.19-13.79-6.6-13.59-14.3l7.41-292.84c.19-7.7,6.59-13.79,14.3-13.59Z"/>
    <path class="cls-14" d="M943.68,492.92v165.14s24.89-72.33,0-165.14Z"/>
    <path class="cls-10" d="M822.99,469.69l-4.04,218.12s4.76,14.3,17.17,0l4.27-282.18s-8.54,12.8-16.21,0l-1.19,64.06Z"/>
    <path class="cls-9" d="M840.42,490.69l-4.47,204.02s7.75,13.3,27.51-.27l4.24-263.92s-14.44,15.77-25.97.26l-1.31,59.92Z"/>
    <path class="cls-11" d="M869,455.87v248.48h38.09s20.26-3.62,26.42-30.02c6.17-26.39.9-184.89.9-184.89,0,0-31.79,30.68-65.42-33.57Z"/>
  </g>
  <path class="cls-16" d="M193.92,373.85l-8.44.25c-2.4-2.77-5.67-4.48-9.29-4.48h-59.26c-7.34,0-13.29,7.02-13.29,15.68v31.12h-1.74c-12.85,0-30.81,12.29-30.81,27.44v47.04c-5.91,3.51-9.97,10.71-9.97,19.04v148.13c0,8.33,4.06,15.53,9.97,19.04,0,38.22,15.79,61.98,39.46,61.98h49.86s13.29,0,13.29,0h2.49c3.51,0,6.69-1.61,9.06-4.23.07,0,.14,0,.21,0l16.19-.48c7.34-.22,13.14-7.42,12.95-16.07l-7.06-329.18c-.19-8.66-6.28-15.5-13.62-15.28Z"/>
  <g>
    <path class="cls-17" d="M160.66,388.66l-8.86.22c-2.52-2.46-5.95-3.98-9.75-3.98h-2.62c-7.7,0-13.95,6.24-13.95,13.95v27.68h-47.73c-13.48,0-24.41,10.93-24.41,24.41v41.85c-6.2,3.12-10.46,9.52-10.46,16.94v131.77c0,7.41,4.26,13.82,10.46,16.94,0,34,16.57,55.14,41.41,55.14h30.73s13.95,0,13.95,0h2.62c3.68,0,7.02-1.44,9.51-3.76.07,0,.14,0,.22,0l16.99-.43c7.7-.19,13.79-6.6,13.59-14.3l-7.41-292.84c-.19-7.7-6.59-13.79-14.3-13.59Z"/>
    <path class="cls-8" d="M53.95,492.92v165.14s-24.89-72.33,0-165.14Z"/>
    <path class="cls-6" d="M174.64,469.69l4.04,218.12s-4.76,14.3-17.17,0l-4.27-282.18s8.54,12.8,16.21,0l1.19,64.06Z"/>
    <path class="cls-5" d="M157.21,490.69l4.47,204.02s-7.75,13.3-27.51-.27l-4.24-263.92s14.44,15.77,25.97.26l1.31,59.92Z"/>
    <path class="cls-7" d="M128.62,455.87v248.48h-38.09s-20.26-3.62-26.42-30.02c-6.17-26.39-.9-184.89-.9-184.89,0,0,31.79,30.68,65.42-33.57Z"/>
  </g>
</svg>