<svg xmlns="http://www.w3.org/2000/svg" width="14" height="3" viewBox="0 0 14 3" fill="none">
  <path d="M1.46191 2.5C1.18691 2.5 0.951497 2.40208 0.755664 2.20625C0.559831 2.01042 0.461914 1.775 0.461914 1.5C0.461914 1.225 0.559831 0.989583 0.755664 0.79375C0.951497 0.597917 1.18691 0.5 1.46191 0.5C1.73691 0.5 1.97233 0.597917 2.16816 0.79375C2.364 0.989583 2.46191 1.225 2.46191 1.5C2.46191 1.775 2.364 2.01042 2.16816 2.20625C1.97233 2.40208 1.73691 2.5 1.46191 2.5ZM7.00041 2.5C6.72541 2.5 6.49 2.40208 6.29416 2.20625C6.09833 2.01042 6.00041 1.775 6.00041 1.5C6.00041 1.225 6.09833 0.989583 6.29416 0.79375C6.49 0.597917 6.72541 0.5 7.00041 0.5C7.27541 0.5 7.51083 0.597917 7.70666 0.79375C7.9025 0.989583 8.00041 1.225 8.00041 1.5C8.00041 1.775 7.9025 2.01042 7.70666 2.20625C7.51083 2.40208 7.27541 2.5 7.00041 2.5ZM12.5389 2.5C12.2639 2.5 12.0285 2.40208 11.8327 2.20625C11.6368 2.01042 11.5389 1.775 11.5389 1.5C11.5389 1.225 11.6368 0.989583 11.8327 0.79375C12.0285 0.597917 12.2639 0.5 12.5389 0.5C12.8139 0.5 13.0493 0.597917 13.2452 0.79375C13.441 0.989583 13.5389 1.225 13.5389 1.5C13.5389 1.775 13.441 2.01042 13.2452 2.20625C13.0493 2.40208 12.8139 2.5 12.5389 2.5Z" fill="#F1F1F1"/>
</svg>