<svg xmlns="http://www.w3.org/2000/svg" width="24" height="24" viewBox="0 0 24 24" fill="none">
  <mask id="mask0_786_15508" style="mask-type:alpha" maskUnits="userSpaceOnUse" x="0" y="0" width="24" height="24">
    <rect width="24" height="24" fill="#D9D9D9"/>
  </mask>
  <g mask="url(#mask0_786_15508)">
    <path d="M12 18.5379C11.725 18.5379 11.4896 18.44 11.2938 18.2442C11.0979 18.0484 11 17.8129 11 17.5379C11 17.2629 11.0979 17.0275 11.2938 16.8317C11.4896 16.6359 11.725 16.5379 12 16.5379C12.275 16.5379 12.5104 16.6359 12.7063 16.8317C12.9021 17.0275 13 17.2629 13 17.5379C13 17.8129 12.9021 18.0484 12.7063 18.2442C12.5104 18.44 12.275 18.5379 12 18.5379ZM12 12.9994C11.725 12.9994 11.4896 12.9015 11.2938 12.7057C11.0979 12.5099 11 12.2744 11 11.9994C11 11.7244 11.0979 11.489 11.2938 11.2932C11.4896 11.0974 11.725 10.9994 12 10.9994C12.275 10.9994 12.5104 11.0974 12.7063 11.2932C12.9021 11.489 13 11.7244 13 11.9994C13 12.2744 12.9021 12.5099 12.7063 12.7057C12.5104 12.9015 12.275 12.9994 12 12.9994ZM12 7.46094C11.725 7.46094 11.4896 7.36302 11.2938 7.16719C11.0979 6.97135 11 6.73594 11 6.46094C11 6.18594 11.0979 5.95052 11.2938 5.75469C11.4896 5.55885 11.725 5.46094 12 5.46094C12.275 5.46094 12.5104 5.55885 12.7063 5.75469C12.9021 5.95052 13 6.18594 13 6.46094C13 6.73594 12.9021 6.97135 12.7063 7.16719C12.5104 7.36302 12.275 7.46094 12 7.46094Z" fill="#F1F1F1"/>
  </g>
</svg>