<svg width="25" height="25" viewBox="0 0 25 25" fill="none" xmlns="http://www.w3.org/2000/svg">
<mask id="mask0_2924_155187" style="mask-type:alpha" maskUnits="userSpaceOnUse" x="0" y="0" width="25" height="25">
<rect x="0.650635" y="0.5" width="24" height="24" fill="#D9D9D9"/>
</mask>
<g mask="url(#mask0_2924_155187)">
<path d="M5.65057 19.2693V18.2693H7.26607V10.3462C7.26607 9.96292 7.30799 9.57733 7.39182 9.1895C7.47582 8.80183 7.60182 8.43225 7.76982 8.08075L8.53907 8.85C8.44807 9.09183 8.37982 9.33742 8.33432 9.58675C8.28883 9.83608 8.26607 10.0892 8.26607 10.3462V18.2693H16.6198L3.31982 5.04625L4.02757 4.3385L21.3121 21.623L20.6043 22.3307L17.5313 19.2693H5.65057ZM18.0351 15.4578L17.0351 14.4578V10.3462C17.0351 9.13075 16.6082 8.09608 15.7543 7.24225C14.9005 6.38842 13.8659 5.9615 12.6506 5.9615C12.0956 5.9615 11.562 6.057 11.0498 6.248C10.5375 6.439 10.0826 6.72558 9.68507 7.10775L8.96607 6.3885C9.33774 6.04483 9.75049 5.757 10.2043 5.525C10.6582 5.293 11.1402 5.13342 11.6506 5.04625V4.5C11.6506 4.22217 11.7476 3.98608 11.9416 3.79175C12.1356 3.59725 12.3712 3.5 12.6483 3.5C12.9255 3.5 13.1618 3.59725 13.3573 3.79175C13.5528 3.98608 13.6506 4.22217 13.6506 4.5V5.04625C14.9326 5.26408 15.9838 5.87208 16.8043 6.87025C17.6248 7.86825 18.0351 9.02692 18.0351 10.3462V15.4578ZM12.6471 21.8845C12.2019 21.8845 11.822 21.7263 11.5073 21.41C11.1925 21.0937 11.0351 20.7134 11.0351 20.2693H14.2661C14.2661 20.7168 14.1075 21.0978 13.7903 21.4125C13.4733 21.7272 13.0922 21.8845 12.6471 21.8845Z" fill="#CCFF00"/>
</g>
</svg>
