<svg width="16" height="17" viewBox="0 0 16 17" fill="none" xmlns="http://www.w3.org/2000/svg">
<path d="M8.07751 15.0822C8.07751 15.0962 8.06615 15.1076 8.05212 15.1076C8.0381 15.1076 8.02673 15.0962 8.02673 15.0822C8.02673 15.0681 8.0381 15.0568 8.05212 15.0568C8.06615 15.0568 8.07751 15.0681 8.07751 15.0822Z" fill="#D9D9D9"/>
<path d="M10.8021 10.6208L10.7488 10.5942C10.5321 10.4842 10.3588 10.3075 10.2455 10.0908L10.2188 10.0375C10.1121 9.8275 9.80879 9.8275 9.70212 10.0375L9.67545 10.0908C9.56545 10.3075 9.38879 10.4808 9.17212 10.5942L9.11879 10.6208C8.90879 10.7275 8.90879 11.0308 9.11879 11.1375L9.17212 11.1642C9.38879 11.2742 9.56212 11.4508 9.67545 11.6675L9.70212 11.7208C9.80879 11.9308 10.1121 11.9308 10.2188 11.7208L10.2455 11.6675C10.3555 11.4508 10.5321 11.2775 10.7488 11.1642L10.8021 11.1375C11.0121 11.0308 11.0121 10.7275 10.8021 10.6208Z" fill="#CCFF00"/>
<path d="M9.71212 9.25084L9.81879 9.1975C10.1788 9.01417 10.4021 8.6475 10.4021 8.24417C10.4021 7.84084 10.1788 7.47417 9.81879 7.2875L9.71212 7.23417C9.37879 7.06417 9.11212 6.7975 8.94212 6.46417L8.88879 6.3575C8.70545 5.9975 8.33879 5.77417 7.93545 5.77417C7.53212 5.77417 7.16545 5.9975 6.97879 6.3575L6.92545 6.46417C6.75545 6.7975 6.48879 7.06417 6.15545 7.23417L6.04879 7.2875C5.68879 7.47084 5.46545 7.8375 5.46545 8.24417C5.46545 8.65084 5.68879 9.01417 6.04879 9.20084L6.15545 9.25417C6.48879 9.42417 6.75545 9.69084 6.92545 10.0242L6.97879 10.1308C7.16212 10.4908 7.52879 10.7142 7.93545 10.7142C8.34212 10.7142 8.70545 10.4908 8.89212 10.1308L8.94545 10.0242C9.11545 9.69084 9.38212 9.42417 9.71545 9.25417L9.71212 9.25084ZM8.04879 9.5675L7.99545 9.67417C7.99545 9.67417 7.97545 9.71417 7.93212 9.71417C7.88879 9.71417 7.87212 9.68417 7.86879 9.67417L7.81545 9.5675C7.54879 9.04417 7.13212 8.6275 6.60879 8.36084L6.50212 8.3075C6.50212 8.3075 6.46212 8.2875 6.46212 8.24417C6.46212 8.20084 6.49212 8.18417 6.50212 8.18084L6.60879 8.1275C7.13212 7.86084 7.54879 7.44417 7.81545 6.92084L7.86879 6.81417C7.86879 6.81417 7.88879 6.77417 7.93212 6.77417C7.97545 6.77417 7.99212 6.80084 7.99545 6.81417L8.04879 6.92084C8.31545 7.44417 8.73212 7.86084 9.25545 8.1275L9.36212 8.18084C9.36212 8.18084 9.40212 8.20084 9.40212 8.24417C9.40212 8.2875 9.37212 8.30417 9.36212 8.3075L9.25545 8.36084C8.73212 8.6275 8.31545 9.04417 8.04879 9.5675Z" fill="#CCFF00"/>
<path d="M6.99988 13.5775C6.9999 13.8427 7.10534 14.0971 7.29285 14.2846C7.48035 14.4721 7.73471 14.5775 7.99988 14.5775C8.26505 14.5775 8.51938 14.472 8.70691 14.2846C8.89443 14.0971 8.99986 13.8427 8.99988 13.5775H9.99988C9.99986 14.1079 9.78899 14.6166 9.41394 14.9916C9.03888 15.3666 8.53026 15.5775 7.99988 15.5775C7.46949 15.5775 6.96086 15.3667 6.58582 14.9916C6.21077 14.6166 5.9999 14.1079 5.99988 13.5775H6.99988Z" fill="#CCFF00"/>
<path d="M13.8535 12.6651C13.8535 12.5667 13.8266 12.516 13.7991 12.4821C13.7653 12.4406 13.7036 12.3936 13.5996 12.3523C13.3816 12.2657 13.0898 12.2492 12.889 12.2683L12.8379 12.2706C12.5844 12.269 12.3682 12.0755 12.3437 11.8178C12.3176 11.5429 12.5194 11.299 12.7942 11.2728L12.9127 11.2644C13.206 11.2504 13.6067 11.2792 13.9687 11.4229C14.1803 11.5069 14.4033 11.6401 14.5752 11.8516C14.7534 12.071 14.8535 12.3467 14.8535 12.6651C14.8535 13.3384 14.4276 13.733 14.0009 13.9271C13.602 14.1086 13.1516 14.1481 12.8522 14.1358H9.4967C9.22056 14.1358 8.9967 13.9119 8.9967 13.6358C8.99675 13.3597 9.22059 13.1358 9.4967 13.1358H12.8727L12.8847 13.1364C13.083 13.1459 13.3703 13.115 13.5865 13.0167C13.7818 12.9278 13.8535 12.8252 13.8535 12.6651Z" fill="#CCFF00"/>
<path d="M2.1475 12.6651C2.1475 12.5667 2.17437 12.516 2.20186 12.4821C2.23566 12.4406 2.29736 12.3936 2.40141 12.3523C2.61933 12.2657 2.91116 12.2492 3.11202 12.2683L3.16313 12.2706C3.41656 12.269 3.63274 12.0755 3.65727 11.8178C3.68338 11.5429 3.48162 11.299 3.20675 11.2728L3.08826 11.2644C2.79502 11.2504 2.39427 11.2792 2.03227 11.4229C1.82069 11.5069 1.59772 11.6401 1.42582 11.8516C1.24757 12.071 1.1475 12.3467 1.1475 12.6651C1.14751 13.3384 1.57338 13.733 2.00004 13.9271C2.39898 14.1086 2.84937 14.1481 3.1488 14.1358H6.50427C6.78041 14.1358 7.00427 13.9119 7.00427 13.6358C7.00423 13.3597 6.78039 13.1358 6.50427 13.1358H3.1283L3.11625 13.1364C2.918 13.1459 2.63063 13.115 2.41443 13.0167C2.21922 12.9278 2.14751 12.8252 2.1475 12.6651Z" fill="#CCFF00"/>
<path d="M3.41036 9.02562C3.41036 7.98607 3.39492 6.28529 3.91654 4.84398C4.18097 4.11335 4.59337 3.41791 5.24206 2.90583C5.89686 2.38895 6.75241 2.09074 7.84135 2.09073C8.11749 2.09073 8.34135 2.31459 8.34135 2.59073C8.34135 2.86687 8.11749 3.09073 7.84135 3.09073C6.94495 3.09074 6.31638 3.33219 5.86186 3.69099C5.40122 4.05461 5.07897 4.57106 4.85697 5.18448C4.40584 6.43114 4.41036 7.94764 4.41036 9.02562C4.41036 9.92016 4.28143 10.6083 4.1086 11.1135C3.94143 11.6022 3.71932 11.9585 3.49955 12.1438L3.45886 12.1747C3.2496 12.3176 2.962 12.2815 2.79512 12.0836C2.61716 11.8725 2.64392 11.5571 2.85502 11.3791L2.86381 11.3707C2.86997 11.3642 2.87823 11.3546 2.88855 11.3417C2.90944 11.3156 2.93603 11.2781 2.96602 11.2281C3.02605 11.1279 3.09594 10.9836 3.16231 10.7896C3.29489 10.402 3.41036 9.82507 3.41036 9.02562Z" fill="#CCFF00"/>
<path d="M7.33961 2.11962C7.77041 2.04172 8.95027 2.06341 10.115 2.70707C10.115 2.70707 9.98292 2.94934 9.91832 3.13362C9.84425 3.34494 9.76762 3.62149 9.76762 3.62149C8.92336 3.20826 7.75443 3.06077 7.51735 3.10367L7.33961 2.11962Z" fill="#CCFF00"/>
<path d="M11.8578 11.1135C11.685 10.6083 11.5561 7.6774 11.5561 6.78287C11.5561 6.78287 11.8605 6.81177 12.0561 6.82401C12.2511 6.83623 12.5561 6.84552 12.5561 6.84552C12.5561 7.64496 12.6715 10.402 12.8041 10.7896C12.8705 10.9836 12.9404 11.1279 13.0004 11.2281C13.0304 11.2781 13.057 11.3156 13.0779 11.3417C13.0882 11.3546 13.0965 11.3642 13.1026 11.3707L13.1114 11.3791C13.3225 11.5571 13.3493 11.8725 13.1713 12.0836C13.0044 12.2815 12.7168 12.3176 12.5076 12.1747L12.4669 12.1438C12.2471 11.9585 12.025 11.6022 11.8578 11.1135Z" fill="#CCFF00"/>
<circle cx="12.1531" cy="4.30203" r="2" fill="#DF1919"/>
</svg>
