<svg width="16" height="16" viewBox="0 0 16 16" fill="none" xmlns="http://www.w3.org/2000/svg">
<g clip-path="url(#clip0_3105_59088)">
<path d="M10.802 9.7867L10.7487 9.76003C10.532 9.65003 10.3587 9.47337 10.2453 9.2567L10.2187 9.20337C10.112 8.99337 9.80866 8.99337 9.702 9.20337L9.67533 9.2567C9.56533 9.47337 9.38866 9.6467 9.172 9.76003L9.11866 9.7867C8.90866 9.89337 8.90866 10.1967 9.11866 10.3034L9.172 10.33C9.38866 10.44 9.562 10.6167 9.67533 10.8334L9.702 10.8867C9.80866 11.0967 10.112 11.0967 10.2187 10.8867L10.2453 10.8334C10.3553 10.6167 10.532 10.4434 10.7487 10.33L10.802 10.3034C11.012 10.1967 11.012 9.89337 10.802 9.7867Z" fill="#CCFF00"/>
<path d="M9.712 8.4167L9.81867 8.36337C10.1787 8.18003 10.402 7.81337 10.402 7.41003C10.402 7.0067 10.1787 6.64003 9.81867 6.45337L9.712 6.40003C9.37866 6.23003 9.112 5.96337 8.942 5.63003L8.88867 5.52337C8.70533 5.16337 8.33867 4.94003 7.93533 4.94003C7.532 4.94003 7.16533 5.16337 6.97866 5.52337L6.92533 5.63003C6.75533 5.96337 6.48867 6.23003 6.15533 6.40003L6.04867 6.45337C5.68867 6.6367 5.46533 7.00337 5.46533 7.41003C5.46533 7.8167 5.68867 8.18003 6.04867 8.3667L6.15533 8.42003C6.48867 8.59003 6.75533 8.8567 6.92533 9.19003L6.97866 9.2967C7.162 9.6567 7.52867 9.88003 7.93533 9.88003C8.342 9.88003 8.70533 9.6567 8.892 9.2967L8.94533 9.19003C9.11533 8.8567 9.382 8.59003 9.71533 8.42003L9.712 8.4167ZM8.04867 8.73337L7.99533 8.84003C7.99533 8.84003 7.97533 8.88003 7.932 8.88003C7.88866 8.88003 7.872 8.85003 7.86866 8.84003L7.81533 8.73337C7.54867 8.21003 7.132 7.79337 6.60867 7.5267L6.502 7.47337C6.502 7.47337 6.462 7.45337 6.462 7.41003C6.462 7.3667 6.492 7.35003 6.502 7.3467L6.60867 7.29337C7.132 7.0267 7.54867 6.61003 7.81533 6.0867L7.86866 5.98003C7.86866 5.98003 7.88866 5.94003 7.932 5.94003C7.97533 5.94003 7.992 5.9667 7.99533 5.98003L8.04867 6.0867C8.31533 6.61003 8.732 7.0267 9.25533 7.29337L9.362 7.3467C9.362 7.3467 9.402 7.3667 9.402 7.41003C9.402 7.45337 9.372 7.47003 9.362 7.47337L9.25533 7.5267C8.732 7.79337 8.31533 8.21003 8.04867 8.73337Z" fill="#CCFF00"/>
<path d="M7.00049 12.7429C7.00049 13.0079 7.10522 13.2625 7.29248 13.45C7.48002 13.6375 7.73527 13.7429 8.00049 13.7429C8.26553 13.7428 8.5201 13.6374 8.70752 13.45C8.89478 13.2625 9.00049 13.0079 9.00049 12.7429H10.0005C10.0005 13.2734 9.78962 13.7829 9.41455 14.158C9.0396 14.5329 8.53072 14.7428 8.00049 14.7429C7.47008 14.7429 6.96052 14.533 6.58545 14.158C6.21038 13.7829 6.00049 13.2734 6.00049 12.7429H7.00049Z" fill="#CCFF00"/>
<path d="M13.8534 11.831C13.8534 11.7326 13.8265 11.6819 13.799 11.648C13.7652 11.6064 13.7035 11.5594 13.5994 11.5181C13.3815 11.4316 13.0897 11.415 12.8888 11.4341L12.8377 11.4364C12.5843 11.4348 12.3681 11.2413 12.3436 10.9836C12.3175 10.7088 12.5192 10.4649 12.7941 10.4387L12.9126 10.4302C13.2058 10.4162 13.6066 10.445 13.9686 10.5888C14.1802 10.6728 14.4031 10.8059 14.575 11.0175C14.7533 11.2369 14.8534 11.5126 14.8534 11.831C14.8533 12.5043 14.4275 12.8989 14.0008 13.093C13.6019 13.2745 13.1515 13.3139 12.8521 13.3017H9.49658C9.22044 13.3017 8.99658 13.0778 8.99658 12.8017C8.99663 12.5255 9.22047 12.3017 9.49658 12.3017H12.8726L12.8846 12.3023C13.0829 12.3117 13.3702 12.2809 13.5864 12.1825C13.7816 12.0937 13.8533 11.991 13.8534 11.831Z" fill="#CCFF00"/>
<path d="M2.14762 11.831C2.14762 11.7326 2.17449 11.6819 2.20199 11.648C2.23579 11.6064 2.29748 11.5594 2.40153 11.5181C2.61945 11.4316 2.91128 11.415 3.11214 11.4341L3.16325 11.4364C3.41668 11.4348 3.63286 11.2413 3.65739 10.9836C3.6835 10.7088 3.48174 10.4649 3.20687 10.4387L3.08838 10.4302C2.79514 10.4162 2.39439 10.445 2.03239 10.5888C1.82081 10.6728 1.59784 10.8059 1.42594 11.0175C1.24769 11.2369 1.14762 11.5126 1.14762 11.831C1.14764 12.5043 1.5735 12.8989 2.00016 13.093C2.39911 13.2745 2.8495 13.3139 3.14893 13.3017H6.50439C6.78054 13.3017 7.00439 13.0778 7.00439 12.8017C7.00435 12.5255 6.78051 12.3017 6.50439 12.3017H3.12842L3.11637 12.3023C2.91812 12.3117 2.63075 12.2809 2.41455 12.1825C2.21934 12.0937 2.14763 11.991 2.14762 11.831Z" fill="#CCFF00"/>
<path d="M3.41024 8.19149C3.41023 7.15193 3.3948 5.45116 3.91642 4.00985C4.18085 3.27921 4.59325 2.58377 5.24194 2.0717C5.89674 1.55481 6.75229 1.25661 7.84123 1.25659C8.11737 1.25659 8.34123 1.48045 8.34123 1.75659C8.34123 2.03273 8.11737 2.25659 7.84123 2.25659C6.94483 2.25661 6.31626 2.49806 5.86173 2.85685C5.4011 3.22048 5.07885 3.73693 4.85685 4.35034C4.40571 5.597 4.41024 7.1135 4.41024 8.19149C4.41024 9.08602 4.2813 9.77418 4.10848 10.2794C3.94131 10.768 3.7192 11.1243 3.49943 11.3097L3.45874 11.3406C3.24948 11.4835 2.96188 11.4473 2.795 11.2494C2.61704 11.0383 2.6438 10.723 2.8549 10.545L2.86369 10.5365C2.86985 10.5301 2.8781 10.5204 2.88843 10.5076C2.90932 10.4815 2.93591 10.444 2.9659 10.394C3.02593 10.2938 3.09582 10.1495 3.16219 9.95548C3.29477 9.56788 3.41024 8.99093 3.41024 8.19149Z" fill="#CCFF00"/>
<path d="M12.5561 8.19149C12.5561 7.15193 12.5715 5.45116 12.0499 4.00985C11.7855 3.27921 11.3731 2.58377 10.7244 2.0717C10.0696 1.55481 9.21402 1.25661 8.12508 1.25659C7.84894 1.25659 6.0782 1.48045 6.0782 1.75659C6.0782 2.03273 7.84894 2.25659 8.12508 2.25659C9.02148 2.25661 9.65005 2.49806 10.1046 2.85685C10.5652 3.22048 10.8875 3.73693 11.1095 4.35034C11.5606 5.597 11.5561 7.1135 11.5561 8.19149C11.5561 9.08602 11.685 9.77418 11.8578 10.2794C12.025 10.768 12.2471 11.1243 12.4669 11.3097L12.5076 11.3406C12.7168 11.4835 13.0044 11.4473 13.1713 11.2494C13.3493 11.0383 13.3225 10.723 13.1114 10.545L13.1026 10.5365C13.0965 10.5301 13.0882 10.5204 13.0779 10.5076C13.057 10.4815 13.0304 10.444 13.0004 10.394C12.9404 10.2938 12.8705 10.1495 12.8041 9.95548C12.6715 9.56788 12.5561 8.99093 12.5561 8.19149Z" fill="#CCFF00"/>
</g>
<defs>
<clipPath id="clip0_3105_59088">
<path d="M0 6C0 2.68629 2.68629 0 6 0H14C15.1046 0 16 0.895431 16 2V10C16 13.3137 13.3137 16 10 16H6C2.68629 16 0 13.3137 0 10V6Z" fill="white"/>
</clipPath>
</defs>
</svg>
