<svg width="14" height="14" viewBox="0 0 14 14" fill="none" xmlns="http://www.w3.org/2000/svg">
<mask id="mask0_925_3843" style="mask-type:alpha" maskUnits="userSpaceOnUse" x="0" y="0" width="14" height="14">
<rect width="14" height="14" fill="#D9D9D9"/>
</mask>
<g mask="url(#mask0_925_3843)">
<path d="M11.083 4.08203V2.91536H9.91634V1.7487H11.083V0.582031H12.2497V1.7487H13.4163V2.91536H12.2497V4.08203H11.083ZM6.41634 10.207C7.14551 10.207 7.7653 9.95182 8.27572 9.44141C8.78613 8.93099 9.04134 8.3112 9.04134 7.58203C9.04134 6.85286 8.78613 6.23307 8.27572 5.72266C7.7653 5.21224 7.14551 4.95703 6.41634 4.95703C5.68717 4.95703 5.06738 5.21224 4.55697 5.72266C4.04655 6.23307 3.79134 6.85286 3.79134 7.58203C3.79134 8.3112 4.04655 8.93099 4.55697 9.44141C5.06738 9.95182 5.68717 10.207 6.41634 10.207ZM6.41634 9.04036C6.00801 9.04036 5.66287 8.89939 5.38093 8.61745C5.09898 8.3355 4.95801 7.99036 4.95801 7.58203C4.95801 7.1737 5.09898 6.82856 5.38093 6.54661C5.66287 6.26467 6.00801 6.1237 6.41634 6.1237C6.82468 6.1237 7.16981 6.26467 7.45176 6.54661C7.7337 6.82856 7.87467 7.1737 7.87467 7.58203C7.87467 7.99036 7.7337 8.3355 7.45176 8.61745C7.16981 8.89939 6.82468 9.04036 6.41634 9.04036ZM1.74967 12.2487C1.42884 12.2487 1.15419 12.1345 0.925716 11.906C0.697244 11.6775 0.583008 11.4029 0.583008 11.082V4.08203C0.583008 3.7612 0.697244 3.48655 0.925716 3.25807C1.15419 3.0296 1.42884 2.91536 1.74967 2.91536H3.58717L4.66634 1.7487H8.74967V4.08203H9.91634V5.2487H12.2497V11.082C12.2497 11.4029 12.1354 11.6775 11.907 11.906C11.6785 12.1345 11.4038 12.2487 11.083 12.2487H1.74967Z" fill="white"/>
</g>
</svg>
