<svg width="33" height="32" viewBox="0 0 33 32" fill="none" xmlns="http://www.w3.org/2000/svg">
<rect x="0.708008" y="0.5" width="31" height="31" rx="15.5" fill="#383838"/>
<rect x="0.708008" y="0.5" width="31" height="31" rx="15.5" stroke="#D9D9D9"/>
<path d="M12.458 11.3014V11.8014C12.6376 11.8014 12.8034 11.7051 12.8923 11.5491L12.458 11.3014ZM13.7705 9V8.5C13.5909 8.5 13.4251 8.5963 13.3362 8.7523L13.7705 9ZM18.6455 9L19.0798 8.7523C18.9909 8.5963 18.8251 8.5 18.6455 8.5V9ZM19.958 11.3014L19.5237 11.5491C19.6126 11.7051 19.7784 11.8014 19.958 11.8014V11.3014ZM9.20801 21.0822V13.2192H8.20801V21.0822H9.20801ZM10.583 11.8014H12.458V10.8014H10.583V11.8014ZM12.8923 11.5491L14.2048 9.2477L13.3362 8.7523L12.0237 11.0537L12.8923 11.5491ZM13.7705 9.5H18.6455V8.5H13.7705V9.5ZM18.2112 9.2477L19.5237 11.5491L20.3923 11.0537L19.0798 8.7523L18.2112 9.2477ZM19.958 11.8014H21.833V10.8014H19.958V11.8014ZM23.208 13.2192V21.0822H24.208V13.2192H23.208ZM23.208 21.0822C23.208 21.8759 22.5818 22.5 21.833 22.5V23.5C23.1553 23.5 24.208 22.4068 24.208 21.0822H23.208ZM21.833 11.8014C22.5818 11.8014 23.208 12.4254 23.208 13.2192H24.208C24.208 11.8946 23.1553 10.8014 21.833 10.8014V11.8014ZM9.20801 13.2192C9.20801 12.4254 9.8342 11.8014 10.583 11.8014V10.8014C9.26075 10.8014 8.20801 11.8946 8.20801 13.2192H9.20801ZM10.583 22.5C9.8342 22.5 9.20801 21.8759 9.20801 21.0822H8.20801C8.20801 22.4068 9.26075 23.5 10.583 23.5V22.5ZM18.5205 16.6712C18.5205 17.9946 17.4746 19.0479 16.208 19.0479V20.0479C18.048 20.0479 19.5205 18.5254 19.5205 16.6712H18.5205ZM16.208 19.0479C14.9414 19.0479 13.8955 17.9946 13.8955 16.6712H12.8955C12.8955 18.5254 14.368 20.0479 16.208 20.0479V19.0479ZM13.8955 16.6712C13.8955 15.3479 14.9414 14.2945 16.208 14.2945V13.2945C14.368 13.2945 12.8955 14.817 12.8955 16.6712H13.8955ZM16.208 14.2945C17.4746 14.2945 18.5205 15.3479 18.5205 16.6712H19.5205C19.5205 14.817 18.048 13.2945 16.208 13.2945V14.2945ZM21.833 22.5H10.583V23.5H21.833V22.5Z" fill="#D9D9D9"/>
</svg>
