<svg width="26" height="26" viewBox="0 0 26 26" fill="none" xmlns="http://www.w3.org/2000/svg">
<path d="M18.8838 20C19.5335 20 20.0605 19.473 20.0605 18.8232V7.17676C20.0604 6.52717 19.5334 6.00098 18.8838 6.00098C18.2342 6.00101 17.7072 6.52719 17.707 7.17676V12.543C17.5989 12.1929 17.3667 11.8746 17.0039 11.6689L9.2832 7.29395C8.26369 6.71622 7 7.45318 7 8.625L7 17.375C7 18.5468 8.2637 19.2837 9.2832 18.7061L17.0039 14.3301C17.3663 14.1247 17.5987 13.8076 17.707 13.458V18.8232C17.707 19.4729 18.2341 20 18.8838 20Z" fill="white"/>
</svg>
