<svg width="16" height="16" viewBox="0 0 16 16" fill="none" xmlns="http://www.w3.org/2000/svg">
<g id="headset">
<path id="Vector" d="M13.8332 9.94446V8.14958C13.8332 4.84532 11.2215 2.16669 7.99984 2.16669C4.77818 2.16669 2.1665 4.84532 2.1665 8.14958V9.94446" stroke="#6458FF" stroke-width="1.11111" stroke-linecap="round" stroke-linejoin="round"/>
<path id="Vector_2" d="M11.2407 10.5926C11.2407 9.87671 11.8211 9.29633 12.537 9.29633H13.8333V13.8334H12.537C11.8211 13.8334 11.2407 13.253 11.2407 12.5371V10.5926Z" fill="#6458FF" stroke="#6458FF" stroke-width="1.11111" stroke-linejoin="round"/>
<path id="Vector_3" d="M13.8333 10.5926H14.4814C14.8394 10.5926 15.1295 10.8828 15.1295 11.2407V11.8889C15.1295 12.2469 14.8394 12.537 14.4814 12.537H13.8333V10.5926Z" fill="#6458FF"/>
<path id="Vector_4" d="M2.16641 10.5926H1.51827C1.1603 10.5926 0.870117 10.8828 0.870117 11.2407V11.8889C0.870117 12.2469 1.1603 12.537 1.51827 12.537H2.16641V10.5926Z" fill="#6458FF"/>
<path id="Vector_5" d="M2.1665 9.29633H3.4628C4.17871 9.29633 4.7591 9.87671 4.7591 10.5926V12.5371C4.7591 13.253 4.17871 13.8334 3.4628 13.8334H2.1665V9.29633Z" fill="#6458FF" stroke="#6458FF" stroke-width="1.11111" stroke-linejoin="round"/>
</g>
</svg>
