<svg width="20" height="21" viewBox="0 0 20 21" fill="none" xmlns="http://www.w3.org/2000/svg">
<g clip-path="url(#clip0_2411_35807)">
<path fill-rule="evenodd" clip-rule="evenodd" d="M3.66267 2.74983L0.015969 10.0877C0.00209222 10.115 -0.00230523 10.1459 0.00341969 10.1757C0.00914462 10.2056 0.0246916 10.2329 0.047787 10.2537L9.89665 19.2946C9.92463 19.3203 9.96189 19.3346 10.0006 19.3346C10.0394 19.3346 10.0767 19.3203 10.1046 19.2946L19.9535 10.2543C19.9766 10.2335 19.9922 10.2061 19.9979 10.1763C20.0036 10.1464 19.9992 10.1156 19.9853 10.0883L16.3386 2.75039C16.3269 2.72575 16.3079 2.70487 16.2841 2.69026C16.2603 2.67564 16.2326 2.66791 16.2043 2.66798H3.79819C3.76977 2.66764 3.74185 2.67519 3.7178 2.68971C3.69375 2.70423 3.67461 2.72511 3.66267 2.74983Z" fill="#50AF95"/>
<path fill-rule="evenodd" clip-rule="evenodd" d="M11.2652 10.84C11.1945 10.8451 10.8292 10.866 10.0143 10.866C9.36613 10.866 8.90594 10.8473 8.74449 10.84C6.23971 10.7345 4.3701 10.3168 4.3701 9.81665C4.3701 9.31654 6.23971 8.89941 8.74449 8.79216V10.424C8.9083 10.4353 9.37732 10.4618 10.0255 10.4618C10.8032 10.4618 11.1927 10.4308 11.2628 10.4246V8.79329C13.7623 8.89997 15.6278 9.31767 15.6278 9.81665C15.6278 10.3156 13.7629 10.7333 11.2628 10.8394L11.2652 10.84ZM11.2652 8.62452V7.16428H14.7534V4.9375H5.25629V7.16428H8.7439V8.62396C5.90915 8.7487 3.77734 9.28663 3.77734 9.93123C3.77734 10.5758 5.90915 11.1132 8.7439 11.2385V15.9178H11.2646V11.2368C14.0929 11.1121 16.2211 10.5747 16.2211 9.93067C16.2211 9.28663 14.0946 8.74927 11.2646 8.62396L11.2652 8.62452Z" fill="white"/>
</g>
<defs>
<clipPath id="clip0_2411_35807">
<rect width="20" height="16.6667" fill="white" transform="translate(0 2.66797)"/>
</clipPath>
</defs>
</svg>
