<svg width="16" height="16" viewBox="0 0 16 16" fill="none" xmlns="http://www.w3.org/2000/svg">
<g id="AI Essentials Icon Set">
<g id="icon">
<path d="M13.5 7.83331H13.4067C13.0233 6.11997 11.4933 4.83331 9.66667 4.83331H8.5V4.40664C9.08 4.19997 9.5 3.64997 9.5 2.99997C9.5 2.17331 8.82667 1.49997 8 1.49997C7.17333 1.49997 6.5 2.17331 6.5 2.99997C6.5 3.64997 6.92 4.19997 7.5 4.40664V4.83331H6.33333C4.50667 4.83331 2.97667 6.11997 2.59333 7.83331H2.5C1.95 7.83331 1.5 8.28331 1.5 8.83331V9.83331C1.5 10.3833 1.95 10.8333 2.5 10.8333H2.68333C3.07667 12.06 4.07 13.0133 5.31667 13.36C5.22333 13.5566 5.16667 13.77 5.16667 14C5.16667 14.2766 5.39 14.5 5.66667 14.5H10.3333C10.61 14.5 10.8333 14.2766 10.8333 14C10.8333 13.77 10.7767 13.5533 10.6833 13.36C11.93 13.0166 12.9233 12.06 13.3167 10.8333H13.5C14.05 10.8333 14.5 10.3833 14.5 9.83331V8.83331C14.5 8.28331 14.05 7.83331 13.5 7.83331ZM8 2.49997C8.27667 2.49997 8.5 2.72331 8.5 2.99997C8.5 3.27664 8.27667 3.49997 8 3.49997C7.72333 3.49997 7.5 3.27664 7.5 2.99997C7.5 2.72331 7.72333 2.49997 8 2.49997ZM9.66667 12.5H6.33333C4.77 12.5 3.5 11.23 3.5 9.66664V8.66664C3.5 7.10331 4.77 5.83331 6.33333 5.83331H9.66667C11.23 5.83331 12.5 7.10331 12.5 8.66664V9.66664C12.5 11.23 11.23 12.5 9.66667 12.5Z" fill="#CCFF00"/>
<path d="M6.16667 7.16664C5.61667 7.16664 5.16667 7.61664 5.16667 8.16664V9.16664C5.16667 9.71664 5.61667 10.1666 6.16667 10.1666C6.71667 10.1666 7.16667 9.71664 7.16667 9.16664V8.16664C7.16667 7.61664 6.71667 7.16664 6.16667 7.16664Z" fill="#CCFF00"/>
<path d="M9.83333 7.16664C9.28333 7.16664 8.83333 7.61664 8.83333 8.16664V9.16664C8.83333 9.71664 9.28333 10.1666 9.83333 10.1666C10.3833 10.1666 10.8333 9.71664 10.8333 9.16664V8.16664C10.8333 7.61664 10.3833 7.16664 9.83333 7.16664Z" fill="#CCFF00"/>
<path d="M4.51 2.47331L5.51 2.80664C5.56333 2.82331 5.61667 2.83331 5.66667 2.83331C5.87667 2.83331 6.07 2.69997 6.14 2.48997C6.22667 2.22664 6.08667 1.94331 5.82333 1.85664L4.82333 1.52331C4.56333 1.43664 4.28 1.57664 4.19 1.83997C4.1 2.10331 4.24333 2.38664 4.50667 2.47331H4.51Z" fill="#CCFF00"/>
<path d="M4.66667 4.49997C4.72 4.49997 4.77333 4.49331 4.82333 4.47331L5.82333 4.13997C6.08667 4.05331 6.22667 3.76997 6.14 3.50664C6.05333 3.24331 5.77 3.10331 5.50667 3.18997L4.50667 3.52331C4.24333 3.60997 4.10333 3.89331 4.19 4.15664C4.26 4.36664 4.45333 4.49997 4.66333 4.49997H4.66667Z" fill="#CCFF00"/>
<path d="M10.3333 2.83331C10.3867 2.83331 10.44 2.82664 10.49 2.80664L11.49 2.47331C11.7533 2.38664 11.8933 2.10331 11.8067 1.83997C11.72 1.57664 11.4367 1.43664 11.1733 1.52331L10.1733 1.85664C9.91 1.94331 9.77 2.22664 9.85667 2.48997C9.92667 2.69997 10.12 2.83331 10.33 2.83331H10.3333Z" fill="#CCFF00"/>
<path d="M10.1767 4.13997L11.1767 4.47331C11.23 4.48997 11.2833 4.49997 11.3333 4.49997C11.5433 4.49997 11.7367 4.36664 11.8067 4.15664C11.8933 3.89331 11.7533 3.60997 11.49 3.52331L10.49 3.18997C10.23 3.10331 9.94333 3.24331 9.85667 3.50664C9.77 3.76997 9.91 4.05331 10.1733 4.13997H10.1767Z" fill="#CCFF00"/>
</g>
</g>
</svg>
