<svg width="17" height="16" viewBox="0 0 17 16" fill="none" xmlns="http://www.w3.org/2000/svg">
<g id="AI Essentials Icon Set">
<g id="icon">
<path d="M14.8752 3.12672L14.8185 3.09672C14.5885 2.98006 14.3985 2.79006 14.2819 2.56006L14.2519 2.50339C14.1352 2.27672 13.8152 2.27672 13.6985 2.50339L13.6685 2.56006C13.5519 2.79006 13.3619 2.98006 13.1319 3.09672L13.0752 3.12672C12.8485 3.24339 12.8485 3.56339 13.0752 3.68006L13.1319 3.71006C13.3619 3.82672 13.5519 4.01672 13.6685 4.24672L13.6985 4.30339C13.8152 4.53006 14.1352 4.53006 14.2519 4.30339L14.2819 4.24672C14.3985 4.01672 14.5885 3.82672 14.8185 3.71006L14.8752 3.68006C15.1019 3.56339 15.1019 3.24339 14.8752 3.12672Z" fill="#CCFF00"/>
<path d="M13.4752 8.44672L13.3952 8.40672C13.0719 8.24006 12.8085 7.97672 12.6419 7.65339L12.6019 7.57339C12.4419 7.25672 11.9885 7.25672 11.8252 7.57339L11.7852 7.65339C11.6185 7.97672 11.3552 8.24006 11.0319 8.40672L10.9519 8.44672C10.6352 8.60672 10.6352 9.06006 10.9519 9.22339L11.0319 9.26339C11.3552 9.43006 11.6185 9.69339 11.7852 10.0167L11.8252 10.0967C11.9852 10.4134 12.4385 10.4134 12.6019 10.0967L12.6419 10.0167C12.8085 9.69339 13.0719 9.43006 13.3952 9.26339L13.4752 9.22339C13.7919 9.06339 13.7919 8.61006 13.4752 8.44672Z" fill="#CCFF00"/>
<path d="M11.4652 5.70339L11.5719 5.65006C11.9319 5.46672 12.1552 5.10006 12.1552 4.69339C12.1552 4.28672 11.9319 3.92339 11.5719 3.73672L11.4652 3.68339C11.1319 3.51339 10.8652 3.24672 10.6952 2.91339L10.6419 2.80672C10.4585 2.44672 10.0919 2.22339 9.68853 2.22339C9.28519 2.22339 8.91853 2.44672 8.73186 2.80672L8.67853 2.91339C8.50853 3.24672 8.24186 3.51339 7.90853 3.68339L7.80186 3.73672C7.44186 3.92006 7.21853 4.28672 7.21853 4.69006C7.21853 5.09339 7.44186 5.46006 7.80186 5.64672L7.90853 5.70006C8.24186 5.87006 8.50853 6.13672 8.67853 6.47006L8.73186 6.57672C8.91519 6.93672 9.28186 7.16006 9.68853 7.16006C10.0952 7.16006 10.4585 6.93672 10.6452 6.57672L10.6985 6.47006C10.8685 6.13672 11.1352 5.87006 11.4685 5.70006L11.4652 5.70339ZM9.80186 6.02006L9.74853 6.12672C9.74853 6.12672 9.72853 6.16672 9.68519 6.16672C9.64186 6.16672 9.62519 6.13672 9.62186 6.12672L9.56853 6.02006C9.30186 5.49672 8.88519 5.08006 8.36186 4.81339L8.25519 4.76006C8.25519 4.76006 8.21519 4.74006 8.21519 4.69672C8.21519 4.65339 8.24519 4.63672 8.25519 4.63339L8.36186 4.58006C8.88519 4.31339 9.30186 3.89672 9.56853 3.37339L9.62186 3.26672C9.62186 3.26672 9.64186 3.22672 9.68519 3.22672C9.72853 3.22672 9.74519 3.25339 9.74853 3.26672L9.80186 3.37339C10.0685 3.89672 10.4852 4.31339 11.0085 4.58006L11.1152 4.63339C11.1152 4.63339 11.1552 4.65339 11.1552 4.69672C11.1552 4.74006 11.1252 4.75672 11.1152 4.76006L11.0085 4.81339C10.4852 5.08006 10.0685 5.49672 9.80186 6.02006Z" fill="#CCFF00"/>
<path d="M6.46186 6.41339C6.09519 6.04672 5.57853 5.91006 5.07519 6.04672C4.57519 6.18339 4.19853 6.56339 4.06853 7.06672L3.15853 10.5734L2.65853 11.0734C1.93186 11.8001 1.93186 12.9867 2.65853 13.7134L2.99853 14.0534C3.36186 14.4167 3.84186 14.6001 4.31853 14.6001C4.79519 14.6001 5.27519 14.4167 5.63853 14.0534L6.14853 13.5434L9.57186 12.4901C10.0552 12.3401 10.4152 11.9601 10.5385 11.4701C10.6619 10.9801 10.5185 10.4734 10.1619 10.1167L6.46186 6.41339ZM4.93519 13.3467C4.59853 13.6834 4.04519 13.6834 3.70853 13.3467L3.36853 13.0067C3.03186 12.6701 3.03186 12.1167 3.36853 11.7801L3.57519 11.5734L5.14186 13.1401L4.93519 13.3467ZM9.57186 11.2301C9.55519 11.3001 9.49186 11.4734 9.28186 11.5367L6.02519 12.5367L4.16519 10.6767L5.03519 7.31672C5.09186 7.10006 5.26519 7.03006 5.33853 7.01006C5.40853 6.99006 5.59519 6.96339 5.75519 7.12006L9.45853 10.8234C9.61186 10.9767 9.58853 11.1601 9.57186 11.2301Z" fill="#CCFF00"/>
</g>
</g>
</svg>
