<svg width="16" height="16" viewBox="0 0 16 16" fill="none" xmlns="http://www.w3.org/2000/svg">
<g id="AI Essentials Icon Set">
<path d="M0 2C0 0.895431 0.895431 0 2 0H14C15.1046 0 16 0.895431 16 2V14C16 15.1046 15.1046 16 14 16H2C0.895431 16 0 15.1046 0 14V2Z" fill="#CCFF00"/>
<g id="icon">
<path d="M14.1633 3.12672L14.1066 3.09672C13.8766 2.98006 13.6866 2.79006 13.5699 2.56006L13.5399 2.50339C13.4233 2.27672 13.1033 2.27672 12.9866 2.50339L12.9566 2.56006C12.8399 2.79006 12.6499 2.98006 12.4199 3.09672L12.3633 3.12672C12.1366 3.24339 12.1366 3.56339 12.3633 3.68006L12.4199 3.71006C12.6499 3.82672 12.8399 4.01672 12.9566 4.24672L12.9866 4.30339C13.1033 4.53006 13.4233 4.53006 13.5399 4.30339L13.5699 4.24672C13.6866 4.01672 13.8766 3.82672 14.1066 3.71006L14.1633 3.68006C14.3899 3.56339 14.3899 3.24339 14.1633 3.12672Z" fill="#121A00"/>
<path d="M12.7633 8.44672L12.6833 8.40672C12.3599 8.24006 12.0966 7.97672 11.9299 7.65339L11.8899 7.57339C11.7299 7.25672 11.2766 7.25672 11.1133 7.57339L11.0733 7.65339C10.9066 7.97672 10.6433 8.24006 10.3199 8.40672L10.2399 8.44672C9.92328 8.60672 9.92328 9.06006 10.2399 9.22339L10.3199 9.26339C10.6433 9.43006 10.9066 9.69339 11.0733 10.0167L11.1133 10.0967C11.2733 10.4134 11.7266 10.4134 11.8899 10.0967L11.9299 10.0167C12.0966 9.69339 12.3599 9.43006 12.6833 9.26339L12.7633 9.22339C13.0799 9.06339 13.0799 8.61006 12.7633 8.44672Z" fill="#121A00"/>
<path d="M10.7533 5.70339L10.8599 5.65006C11.2199 5.46672 11.4433 5.10006 11.4433 4.69339C11.4433 4.28672 11.2199 3.92339 10.8599 3.73672L10.7533 3.68339C10.4199 3.51339 10.1533 3.24672 9.98328 2.91339L9.92995 2.80672C9.74661 2.44672 9.37995 2.22339 8.97661 2.22339C8.57328 2.22339 8.20661 2.44672 8.01994 2.80672L7.96661 2.91339C7.79661 3.24672 7.52994 3.51339 7.19661 3.68339L7.08995 3.73672C6.72994 3.92006 6.50661 4.28672 6.50661 4.69006C6.50661 5.09339 6.72994 5.46006 7.08995 5.64672L7.19661 5.70006C7.52994 5.87006 7.79661 6.13672 7.96661 6.47006L8.01994 6.57672C8.20328 6.93672 8.56994 7.16006 8.97661 7.16006C9.38328 7.16006 9.74661 6.93672 9.93328 6.57672L9.98661 6.47006C10.1566 6.13672 10.4233 5.87006 10.7566 5.70006L10.7533 5.70339ZM9.08995 6.02006L9.03661 6.12672C9.03661 6.12672 9.01661 6.16672 8.97328 6.16672C8.92994 6.16672 8.91328 6.13672 8.90994 6.12672L8.85661 6.02006C8.58994 5.49672 8.17328 5.08006 7.64995 4.81339L7.54328 4.76006C7.54328 4.76006 7.50328 4.74006 7.50328 4.69672C7.50328 4.65339 7.53328 4.63672 7.54328 4.63339L7.64995 4.58006C8.17328 4.31339 8.58994 3.89672 8.85661 3.37339L8.90994 3.26672C8.90994 3.26672 8.92994 3.22672 8.97328 3.22672C9.01661 3.22672 9.03328 3.25339 9.03661 3.26672L9.08995 3.37339C9.35661 3.89672 9.77328 4.31339 10.2966 4.58006L10.4033 4.63339C10.4033 4.63339 10.4433 4.65339 10.4433 4.69672C10.4433 4.74006 10.4133 4.75672 10.4033 4.76006L10.2966 4.81339C9.77328 5.08006 9.35661 5.49672 9.08995 6.02006Z" fill="#121A00"/>
<path d="M5.74994 6.41339C5.38328 6.04672 4.86661 5.91006 4.36328 6.04672C3.86328 6.18339 3.48661 6.56339 3.35661 7.06672L2.44661 10.5734L1.94661 11.0734C1.21994 11.8001 1.21994 12.9867 1.94661 13.7134L2.28661 14.0534C2.64994 14.4167 3.12994 14.6001 3.60661 14.6001C4.08328 14.6001 4.56328 14.4167 4.92661 14.0534L5.43661 13.5434L8.85994 12.4901C9.34328 12.3401 9.70328 11.9601 9.82661 11.4701C9.94994 10.9801 9.80661 10.4734 9.44995 10.1167L5.74994 6.41339ZM4.22328 13.3467C3.88661 13.6834 3.33328 13.6834 2.99661 13.3467L2.65661 13.0067C2.31994 12.6701 2.31994 12.1167 2.65661 11.7801L2.86328 11.5734L4.42994 13.1401L4.22328 13.3467ZM8.85994 11.2301C8.84328 11.3001 8.77994 11.4734 8.56994 11.5367L5.31328 12.5367L3.45328 10.6767L4.32328 7.31672C4.37994 7.10006 4.55328 7.03006 4.62661 7.01006C4.69661 6.99006 4.88328 6.96339 5.04328 7.12006L8.74661 10.8234C8.89994 10.9767 8.87661 11.1601 8.85994 11.2301Z" fill="#121A00"/>
</g>
</g>
</svg>
