<svg width="18" height="18" viewBox="0 0 18 18" fill="none" xmlns="http://www.w3.org/2000/svg">
<g id="content_copy">
<mask id="mask0_827_6534" style="mask-type:alpha" maskUnits="userSpaceOnUse" x="0" y="0" width="18" height="18">
<rect id="Bounding box" width="18" height="18" fill="#D9D9D9"/>
</mask>
<g mask="url(#mask0_827_6534)">
<path id="content_copy_2" d="M6.75 13.5001C6.3375 13.5001 5.98438 13.3532 5.69063 13.0595C5.39688 12.7657 5.25 12.4126 5.25 12.0001V3.00012C5.25 2.58762 5.39688 2.2345 5.69063 1.94075C5.98438 1.647 6.3375 1.50012 6.75 1.50012H13.5C13.9125 1.50012 14.2656 1.647 14.5594 1.94075C14.8531 2.2345 15 2.58762 15 3.00012V12.0001C15 12.4126 14.8531 12.7657 14.5594 13.0595C14.2656 13.3532 13.9125 13.5001 13.5 13.5001H6.75ZM3.75 16.5001C3.3375 16.5001 2.98438 16.3532 2.69063 16.0595C2.39688 15.7657 2.25 15.4126 2.25 15.0001V4.50012H3.75V15.0001H12V16.5001H3.75Z" fill="#1C1B1F"/>
</g>
</g>
</svg>
