<svg width="12" height="12" viewBox="0 0 12 12" fill="none" xmlns="http://www.w3.org/2000/svg">
<g id="Frame" clip-path="url(#clip0_842_5763)">
<g id="Vector">
<path fill-rule="evenodd" clip-rule="evenodd" d="M6.00016 1.83731C6.25613 1.83731 6.48338 2.0011 6.56432 2.24393L7.36231 4.63789L9.75627 5.43588C9.99911 5.51683 10.1629 5.74407 10.1629 6.00004C10.1629 6.25601 9.99911 6.48326 9.75627 6.5642L7.36231 7.36219L6.56432 9.75615C6.48338 9.99898 6.25613 10.1628 6.00016 10.1628C5.7442 10.1628 5.51695 9.99898 5.43601 9.75615L4.63802 7.36219L2.24406 6.5642C2.00122 6.48326 1.83743 6.25601 1.83743 6.00004C1.83743 5.74407 2.00122 5.51683 2.24406 5.43588L4.63802 4.63789L5.43601 2.24393C5.51695 2.0011 5.7442 1.83731 6.00016 1.83731ZM6.00016 4.31252L5.67231 5.29608C5.61312 5.47365 5.47378 5.61299 5.2962 5.67219L4.31264 6.00004L5.2962 6.3279C5.47378 6.38709 5.61312 6.52643 5.67231 6.704L6.00016 7.68757L6.32802 6.704C6.38721 6.52643 6.52655 6.38709 6.70413 6.3279L7.68769 6.00004L6.70413 5.67219C6.52655 5.61299 6.38721 5.47365 6.32802 5.29608L6.00016 4.31252Z" fill="#CCFF00"/>
<path fill-rule="evenodd" clip-rule="evenodd" d="M7.14563 0.738104C7.25062 0.426908 7.58801 0.259748 7.89921 0.364742C8.145 0.447669 8.38519 0.546529 8.61814 0.660646C8.91309 0.80513 9.03506 1.16136 8.89057 1.4563C8.74609 1.75124 8.38986 1.87321 8.09492 1.72873C7.90831 1.63731 7.71589 1.55811 7.51899 1.49168C7.20779 1.38669 7.04063 1.0493 7.14563 0.738104ZM4.83122 0.742792C4.93777 1.05346 4.77231 1.39168 4.46164 1.49823C4.36394 1.53174 4.26661 1.56864 4.16978 1.60901C4.07294 1.64938 3.97821 1.69253 3.88564 1.73834C3.59128 1.88399 3.23457 1.76343 3.08892 1.46906C2.94327 1.1747 3.06382 0.81799 3.35819 0.672338C3.47368 0.615196 3.59169 0.561435 3.71216 0.511217C3.83264 0.460999 3.9539 0.415017 4.07578 0.373214C4.38644 0.266661 4.72466 0.432126 4.83122 0.742792ZM10.5311 3.0888C10.8255 2.94314 11.1822 3.0637 11.3279 3.35807C11.385 3.47355 11.4388 3.59157 11.489 3.71204C11.5392 3.83251 11.5852 3.95377 11.627 4.07565C11.7335 4.38632 11.5681 4.72454 11.2574 4.8311C10.9467 4.93765 10.6085 4.77218 10.502 4.46152C10.4685 4.36382 10.4316 4.26649 10.3912 4.16965C10.3508 4.07282 10.3077 3.97809 10.2619 3.88552C10.1162 3.59115 10.2368 3.23445 10.5311 3.0888ZM1.45642 3.10963C1.75136 3.25411 1.87333 3.61034 1.72885 3.90528C1.63743 4.0919 1.55823 4.28432 1.4918 4.48121C1.38681 4.79241 1.04942 4.95957 0.738226 4.85458C0.42703 4.74958 0.25987 4.41219 0.364864 4.101C0.447791 3.85521 0.54665 3.61501 0.660768 3.38206C0.805252 3.08712 1.16148 2.96515 1.45642 3.10963ZM11.2621 7.1455C11.5733 7.2505 11.7405 7.58789 11.6355 7.89908C11.5525 8.14487 11.4537 8.38507 11.3396 8.61802C11.1951 8.91296 10.8388 9.03493 10.5439 8.89045C10.249 8.74597 10.127 8.38974 10.2715 8.0948C10.3629 7.90819 10.4421 7.71576 10.5085 7.51887C10.6135 7.20767 10.9509 7.04051 11.2621 7.1455ZM0.742914 7.16899C1.05358 7.06243 1.3918 7.2279 1.49836 7.53856C1.53186 7.63626 1.56877 7.73359 1.60913 7.83043C1.6495 7.92726 1.69265 8.02199 1.73846 8.11456C1.88411 8.40893 1.76355 8.76563 1.46919 8.91129C1.17482 9.05694 0.818112 8.93638 0.67246 8.64201C0.615318 8.52653 0.561557 8.40851 0.511339 8.28804C0.461121 8.16757 0.415139 8.04631 0.373336 7.92443C0.266783 7.61376 0.432248 7.27554 0.742914 7.16899ZM8.91141 10.531C9.05706 10.8254 8.9365 11.1821 8.64214 11.3277C8.52665 11.3849 8.40863 11.4386 8.28816 11.4889C8.16769 11.5391 8.04643 11.5851 7.92455 11.6269C7.61388 11.7334 7.27566 11.568 7.16911 11.2573C7.06255 10.9466 7.22802 10.6084 7.53869 10.5018C7.63638 10.4683 7.73371 10.4314 7.83055 10.3911C7.92739 10.3507 8.02211 10.3075 8.11468 10.2617C8.40905 10.1161 8.76576 10.2367 8.91141 10.531ZM3.10975 10.5438C3.25424 10.2488 3.61046 10.1269 3.9054 10.2714C4.09202 10.3628 4.28444 10.442 4.48134 10.5084C4.79253 10.6134 4.95969 10.9508 4.8547 11.262C4.7497 11.5732 4.41232 11.7403 4.10112 11.6353C3.85533 11.5524 3.61514 11.4536 3.38218 11.3394C3.08724 11.195 2.96527 10.8387 3.10975 10.5438Z" fill="#CCFF00"/>
</g>
</g>
<defs>
<clipPath id="clip0_842_5763">
<rect width="11.3333" height="11.3333" fill="white" transform="translate(0.333374 0.333374)"/>
</clipPath>
</defs>
</svg>
