<svg width="16" height="16" viewBox="0 0 16 16" fill="none" xmlns="http://www.w3.org/2000/svg">
<path d="M0 2C0 0.895431 0.895431 0 2 0H14C15.1046 0 16 0.895431 16 2V14C16 15.1046 15.1046 16 14 16H2C0.895431 16 0 15.1046 0 14V2Z" fill="#CCFF00"/>
<g clip-path="url(#clip0_842_6227)">
<path fill-rule="evenodd" clip-rule="evenodd" d="M8.00016 3.83731C8.25613 3.83731 8.48338 4.0011 8.56432 4.24393L9.36231 6.63789L11.7563 7.43588C11.9991 7.51683 12.1629 7.74407 12.1629 8.00004C12.1629 8.25601 11.9991 8.48326 11.7563 8.5642L9.36231 9.36219L8.56432 11.7561C8.48338 11.999 8.25613 12.1628 8.00016 12.1628C7.7442 12.1628 7.51695 11.999 7.43601 11.7561L6.63802 9.36219L4.24406 8.5642C4.00122 8.48326 3.83743 8.25601 3.83743 8.00004C3.83743 7.74407 4.00122 7.51683 4.24406 7.43588L6.63802 6.63789L7.43601 4.24393C7.51695 4.0011 7.7442 3.83731 8.00016 3.83731ZM8.00016 6.31252L7.67231 7.29608C7.61312 7.47365 7.47378 7.61299 7.2962 7.67219L6.31264 8.00004L7.2962 8.3279C7.47378 8.38709 7.61312 8.52643 7.67231 8.704L8.00016 9.68757L8.32802 8.704C8.38721 8.52643 8.52655 8.38709 8.70413 8.3279L9.68769 8.00004L8.70413 7.67219C8.52655 7.61299 8.38721 7.47365 8.32802 7.29608L8.00016 6.31252Z" fill="#0B0B0C"/>
<path fill-rule="evenodd" clip-rule="evenodd" d="M9.14563 2.7381C9.25062 2.42691 9.58801 2.25975 9.89921 2.36474C10.145 2.44767 10.3852 2.54653 10.6181 2.66065C10.9131 2.80513 11.0351 3.16136 10.8906 3.4563C10.7461 3.75124 10.3899 3.87321 10.0949 3.72873C9.90831 3.63731 9.71589 3.55811 9.51899 3.49168C9.20779 3.38669 9.04063 3.0493 9.14563 2.7381ZM6.83122 2.74279C6.93777 3.05346 6.77231 3.39168 6.46164 3.49823C6.36394 3.53174 6.26661 3.56864 6.16978 3.60901C6.07294 3.64938 5.97821 3.69253 5.88564 3.73834C5.59128 3.88399 5.23457 3.76343 5.08892 3.46906C4.94327 3.1747 5.06382 2.81799 5.35819 2.67234C5.47368 2.6152 5.59169 2.56143 5.71216 2.51122C5.83264 2.461 5.9539 2.41502 6.07578 2.37321C6.38644 2.26666 6.72466 2.43213 6.83122 2.74279ZM12.5311 5.0888C12.8255 4.94314 13.1822 5.0637 13.3279 5.35807C13.385 5.47355 13.4388 5.59157 13.489 5.71204C13.5392 5.83251 13.5852 5.95377 13.627 6.07565C13.7335 6.38632 13.5681 6.72454 13.2574 6.8311C12.9467 6.93765 12.6085 6.77218 12.502 6.46152C12.4685 6.36382 12.4316 6.26649 12.3912 6.16965C12.3508 6.07282 12.3077 5.97809 12.2619 5.88552C12.1162 5.59115 12.2368 5.23445 12.5311 5.0888ZM3.45642 5.10963C3.75136 5.25411 3.87333 5.61034 3.72885 5.90528C3.63743 6.0919 3.55823 6.28432 3.4918 6.48121C3.38681 6.79241 3.04942 6.95957 2.73823 6.85458C2.42703 6.74958 2.25987 6.41219 2.36486 6.101C2.44779 5.85521 2.54665 5.61501 2.66077 5.38206C2.80525 5.08712 3.16148 4.96515 3.45642 5.10963ZM13.2621 9.1455C13.5733 9.2505 13.7405 9.58789 13.6355 9.89908C13.5525 10.1449 13.4537 10.3851 13.3396 10.618C13.1951 10.913 12.8388 11.0349 12.5439 10.8905C12.249 10.746 12.127 10.3897 12.2715 10.0948C12.3629 9.90819 12.4421 9.71576 12.5085 9.51887C12.6135 9.20767 12.9509 9.04051 13.2621 9.1455ZM2.74291 9.16899C3.05358 9.06243 3.3918 9.2279 3.49836 9.53856C3.53186 9.63626 3.56877 9.73359 3.60913 9.83043C3.6495 9.92726 3.69265 10.022 3.73846 10.1146C3.88411 10.4089 3.76355 10.7656 3.46919 10.9113C3.17482 11.0569 2.81811 10.9364 2.67246 10.642C2.61532 10.5265 2.56156 10.4085 2.51134 10.288C2.46112 10.1676 2.41514 10.0463 2.37334 9.92443C2.26678 9.61376 2.43225 9.27554 2.74291 9.16899ZM10.9114 12.531C11.0571 12.8254 10.9365 13.1821 10.6421 13.3277C10.5266 13.3849 10.4086 13.4386 10.2882 13.4889C10.1677 13.5391 10.0464 13.5851 9.92455 13.6269C9.61388 13.7334 9.27566 13.568 9.16911 13.2573C9.06255 12.9466 9.22802 12.6084 9.53869 12.5018C9.63638 12.4683 9.73371 12.4314 9.83055 12.3911C9.92739 12.3507 10.0221 12.3075 10.1147 12.2617C10.409 12.1161 10.7658 12.2367 10.9114 12.531ZM5.10975 12.5438C5.25424 12.2488 5.61046 12.1269 5.9054 12.2714C6.09202 12.3628 6.28444 12.442 6.48134 12.5084C6.79253 12.6134 6.95969 12.9508 6.8547 13.262C6.7497 13.5732 6.41232 13.7403 6.10112 13.6353C5.85533 13.5524 5.61514 13.4536 5.38218 13.3394C5.08724 13.195 4.96527 12.8387 5.10975 12.5438Z" fill="#0B0B0C"/>
</g>
<defs>
<clipPath id="clip0_842_6227">
<rect width="11.3333" height="11.3333" fill="white" transform="translate(2.33337 2.33337)"/>
</clipPath>
</defs>
</svg>
