<svg width="35" height="34" viewBox="0 0 35 34" fill="none" xmlns="http://www.w3.org/2000/svg">
<rect x="1.15913" y="17" width="23" height="23" rx="5.5" transform="rotate(-45 1.15913 17)" fill="url(#paint0_linear_834_10739)"/>
<rect x="1.15913" y="17" width="23" height="23" rx="5.5" transform="rotate(-45 1.15913 17)" stroke="url(#paint1_linear_834_10739)"/>
<rect x="7.52307" y="17" width="14" height="14" rx="3.2577" transform="rotate(-45 7.52307 17)" fill="url(#paint2_diamond_834_10739)"/>
<rect x="7.52307" y="17" width="14" height="14" rx="3.2577" transform="rotate(-45 7.52307 17)" fill="url(#paint3_diamond_834_10739)"/>
<rect x="7.52307" y="17" width="14" height="14" rx="3.2577" transform="rotate(-45 7.52307 17)" fill="url(#paint4_linear_834_10739)"/>
<rect x="7.52307" y="17" width="14" height="14" rx="3.2577" transform="rotate(-45 7.52307 17)" fill="url(#paint5_linear_834_10739)"/>
<rect x="7.52307" y="17" width="14" height="14" rx="3.2577" transform="rotate(-45 7.52307 17)" fill="url(#paint6_linear_834_10739)"/>
<rect x="9.02258" y="17" width="12" height="12" rx="2" transform="rotate(-45 9.02258 17)" fill="#202020"/>
<rect x="11.851" y="17" width="8" height="8" rx="2" transform="rotate(-45 11.851 17)" fill="url(#paint7_linear_834_10739)"/>
<defs>
<linearGradient id="paint0_linear_834_10739" x1="24.452" y1="29" x2="0.452026" y2="29" gradientUnits="userSpaceOnUse">
<stop stop-color="#282626"/>
<stop offset="1" stop-color="#282826"/>
</linearGradient>
<linearGradient id="paint1_linear_834_10739" x1="12.452" y1="17" x2="12.452" y2="36.8" gradientUnits="userSpaceOnUse">
<stop stop-color="#3D3C3B"/>
<stop offset="1" stop-color="#32302F"/>
</linearGradient>
<radialGradient id="paint2_diamond_834_10739" cx="0" cy="0" r="1" gradientUnits="userSpaceOnUse" gradientTransform="translate(5.24807 27.2667) rotate(-17.4699) scale(23.0004)">
<stop offset="0.421875" stop-color="#A349EF"/>
<stop offset="1" stop-color="#FF65E6"/>
</radialGradient>
<radialGradient id="paint3_diamond_834_10739" cx="0" cy="0" r="1" gradientUnits="userSpaceOnUse" gradientTransform="translate(11.8543 20.2375) rotate(-26.2587) scale(10.9765 5.81107)">
<stop stop-color="#FF9FEA"/>
<stop offset="1" stop-color="white" stop-opacity="0"/>
</radialGradient>
<linearGradient id="paint4_linear_834_10739" x1="7.87307" y1="17.2917" x2="20.7647" y2="31.5833" gradientUnits="userSpaceOnUse">
<stop stop-color="#7A96AC"/>
<stop offset="0.18" stop-color="#EAEFF3"/>
<stop offset="0.315" stop-color="#C2D4E1"/>
<stop offset="0.491919" stop-color="white"/>
<stop offset="0.615" stop-color="#D4DEE5"/>
<stop offset="0.785" stop-color="#ABBDC8"/>
<stop offset="0.955" stop-color="#BCCAD7"/>
</linearGradient>
<linearGradient id="paint5_linear_834_10739" x1="9.38974" y1="19.45" x2="20.2397" y2="30.4167" gradientUnits="userSpaceOnUse">
<stop stop-color="#9E8976"/>
<stop offset="0.195" stop-color="#7A5E50"/>
<stop offset="0.41" stop-color="#F6D0AB"/>
<stop offset="0.61" stop-color="#9D774E"/>
<stop offset="0.855" stop-color="#C99B70"/>
<stop offset="1" stop-color="#795F52"/>
</linearGradient>
<linearGradient id="paint6_linear_834_10739" x1="21.4465" y1="22.7516" x2="8.62117" y2="28.9939" gradientUnits="userSpaceOnUse">
<stop stop-color="#9E8976"/>
<stop offset="0.195" stop-color="#7A5E50"/>
<stop offset="0.41" stop-color="#F6D0AB"/>
<stop offset="0.61" stop-color="#9D774E"/>
<stop offset="0.855" stop-color="#C99B70"/>
<stop offset="1" stop-color="#795F52"/>
</linearGradient>
<linearGradient id="paint7_linear_834_10739" x1="12.465" y1="17.6141" x2="16.4858" y2="25.6557" gradientUnits="userSpaceOnUse">
<stop stop-color="#9E8976"/>
<stop offset="0.195" stop-color="#7A5E50"/>
<stop offset="0.41" stop-color="#F6D0AB"/>
<stop offset="0.61" stop-color="#9D774E"/>
<stop offset="0.855" stop-color="#C99B70"/>
<stop offset="1" stop-color="#795F52"/>
</linearGradient>
</defs>
</svg>
