<svg width="16" height="16" viewBox="0 0 16 16" fill="none" xmlns="http://www.w3.org/2000/svg">
<path d="M0 2C0 0.895431 0.895431 0 2 0H14C15.1046 0 16 0.895431 16 2V14C16 15.1046 15.1046 16 14 16H2C0.895431 16 0 15.1046 0 14V2Z" fill="#CCFF00"/>
<path fill-rule="evenodd" clip-rule="evenodd" d="M7.99992 2.7782C7.59655 2.7782 7.19714 2.85765 6.82448 3.01201C6.45182 3.16637 6.11321 3.39262 5.82799 3.67784C5.54277 3.96306 5.31652 4.30167 5.16215 4.67433C5.00779 5.04699 4.92834 5.44641 4.92834 5.84977C4.92834 6.12592 4.70449 6.34977 4.42834 6.34977C4.1522 6.34977 3.92834 6.12592 3.92834 5.84977C3.92834 5.31509 4.03366 4.78563 4.23827 4.29165C4.44289 3.79766 4.7428 3.34882 5.12088 2.97073C5.49896 2.59265 5.94781 2.29274 6.44179 2.08813C6.93578 1.88351 7.46523 1.7782 7.99992 1.7782C8.5346 1.7782 9.06406 1.88351 9.55804 2.08813C10.052 2.29274 10.5009 2.59265 10.879 2.97073C11.257 3.34882 11.5569 3.79766 11.7616 4.29165C11.9662 4.78563 12.0715 5.31509 12.0715 5.84977C12.0715 6.12591 11.8476 6.34977 11.5715 6.34977C11.2953 6.34977 11.0715 6.12591 11.0715 5.84977C11.0715 5.44641 10.992 5.04699 10.8377 4.67433C10.6833 4.30167 10.4571 3.96306 10.1718 3.67784C9.88663 3.39262 9.54802 3.16637 9.17536 3.01201C8.8027 2.85765 8.40328 2.7782 7.99992 2.7782Z" fill="#121A00"/>
<path d="M7.37375 10.2452L7.29375 10.2052C6.97041 10.0385 6.70708 9.77519 6.54042 9.45185L6.50041 9.37185C6.34041 9.05519 5.88708 9.05519 5.72375 9.37185L5.68375 9.45185C5.51708 9.77519 5.25375 10.0385 4.93041 10.2052L4.85042 10.2452C4.53375 10.4052 4.53375 10.8585 4.85042 11.0219L4.93041 11.0619C5.25375 11.2285 5.51708 11.4919 5.68375 11.8152L5.72375 11.8952C5.88375 12.2119 6.33708 12.2119 6.50041 11.8952L6.54042 11.8152C6.70708 11.4919 6.97041 11.2285 7.29375 11.0619L7.37375 11.0219C7.69041 10.8619 7.69041 10.4085 7.37375 10.2452Z" fill="#121A00"/>
<path d="M10.8071 6.87185L10.7004 6.81852C10.3671 6.64852 10.1004 6.38185 9.93041 6.04852L9.87708 5.94185C9.69375 5.58185 9.32708 5.35852 8.92041 5.35852C8.51375 5.35852 8.15041 5.58185 7.96375 5.94185L7.91041 6.04852C7.74041 6.38185 7.47375 6.64852 7.14041 6.81852L7.03375 6.87185C6.67375 7.05519 6.45041 7.42185 6.45041 7.82519C6.45041 8.22852 6.67375 8.59519 7.03375 8.78185L7.14041 8.83519C7.47375 9.00519 7.74041 9.27185 7.91041 9.60519L7.96375 9.71185C8.14708 10.0719 8.51375 10.2952 8.91708 10.2952C9.32041 10.2952 9.68708 10.0719 9.87375 9.71185L9.92708 9.60519C10.0971 9.27185 10.3637 9.00519 10.6971 8.83519L10.8037 8.78185C11.1637 8.59852 11.3871 8.23185 11.3871 7.82519C11.3871 7.41852 11.1637 7.05519 10.8037 6.86852L10.8071 6.87185ZM10.3537 7.89185L10.2471 7.94519C9.72375 8.21185 9.30708 8.62852 9.04041 9.15185L8.98708 9.25852C8.98708 9.25852 8.96708 9.29852 8.92375 9.29852C8.88041 9.29852 8.86375 9.26852 8.86041 9.25852L8.80708 9.15185C8.54041 8.62852 8.12375 8.21185 7.60041 7.94519L7.49375 7.89185C7.49375 7.89185 7.45375 7.87185 7.45375 7.82852C7.45375 7.78519 7.48375 7.76852 7.49375 7.76519L7.60041 7.71185C8.12375 7.44519 8.54041 7.02852 8.80708 6.50519L8.86041 6.39852C8.86041 6.39852 8.88041 6.35852 8.92375 6.35852C8.96708 6.35852 8.98375 6.38519 8.98708 6.39852L9.04041 6.50519C9.30708 7.02852 9.72375 7.44519 10.2471 7.71185L10.3537 7.76519C10.3537 7.76519 10.3937 7.78519 10.3937 7.82852C10.3937 7.87185 10.3637 7.88852 10.3537 7.89185Z" fill="#121A00"/>
<path fill-rule="evenodd" clip-rule="evenodd" d="M2.61829 7.93478C2.61829 7.69466 2.40525 7.5 2.14246 7.5C1.87966 7.5 1.66663 7.69466 1.66663 7.93478V11.413C1.66663 12.9338 3.01586 14.1667 4.68022 14.1667H11.3197C12.9841 14.1667 14.3333 12.9338 14.3333 11.413V7.93478C14.3333 7.69466 14.1203 7.5 13.8575 7.5C13.857 7.5 13.8566 7.5 13.8562 7.5C13.8558 7.5 13.8554 7.5 13.855 7.5H12.5883C12.326 7.5 12.1133 7.69432 12.1133 7.93402C12.1133 8.17373 12.326 8.36805 12.5883 8.36805H13.3816V11.413C13.3816 12.4536 12.4585 13.2971 11.3197 13.2971H4.68022C3.54145 13.2971 2.61829 12.4536 2.61829 11.413V7.93478Z" fill="#00150B"/>
<path d="M1.66663 7.93402C1.66663 7.69432 1.87929 7.5 2.14163 7.5H4.99163C5.25396 7.5 5.46663 7.69432 5.46663 7.93402V7.93402C5.46663 8.17373 5.25396 8.36805 4.99163 8.36805H2.14163C1.87929 8.36805 1.66663 8.17373 1.66663 7.93402V7.93402Z" fill="#00150B"/>
</svg>
