<svg width="8" height="8" viewBox="0 0 8 8" fill="none" xmlns="http://www.w3.org/2000/svg">
<g id="Component 8" clip-path="url(#clip0_955_11858)">
<path id="Vector" d="M3.50984 5.78946C3.51499 5.76207 3.51842 5.73371 3.51842 5.70339V2.42181H7.30617V4.72038C6.82681 4.51204 6.17079 4.59029 5.57137 4.98349C4.67438 5.57232 4.24475 6.64042 4.61264 7.36912C4.98052 8.09879 6.00529 8.21225 6.90313 7.6244C7.59259 7.17251 8.00336 6.43795 7.99135 5.79044C7.9965 5.76305 7.99993 5.73469 7.99993 5.70436V1.05734C7.99993 1.02995 7.99735 1.00355 7.99307 0.977137V0.288544C7.99307 0.130089 7.87901 0 7.74009 0H3.06306C2.92414 0 2.81009 0.130089 2.81009 0.288544V2.13327C2.81009 2.16555 2.81609 2.19587 2.82467 2.22521V4.72038C2.3453 4.51204 1.68928 4.59029 1.08986 4.98349C0.192873 5.57232 -0.236755 6.64042 0.13113 7.36912C0.499015 8.09879 1.52378 8.21225 2.42162 7.6244C3.11108 7.17251 3.52185 6.43795 3.50984 5.79044V5.78946Z" fill="black"/>
</g>
<defs>
<clipPath id="clip0_955_11858">
<rect width="8" height="8" fill="white"/>
</clipPath>
</defs>
</svg>
