<svg width="8" height="8" viewBox="0 0 8 8" fill="none" xmlns="http://www.w3.org/2000/svg">
<g id="Component 9" clip-path="url(#clip0_955_7101)">
<path id="Vector" d="M1.45406 7.15088C1.45406 6.70683 1.12821 6.34659 0.726542 6.34659C0.324873 6.34659 -0.000976562 6.70683 -0.000976562 7.15088C-0.000976562 7.52908 0.23461 7.84441 0.552335 7.93122C0.875476 8.14776 3.45429 7.96216 4.20347 5.75285C4.39392 5.19304 4.56903 4.55939 4.75317 3.92673H5.44368C5.66483 3.92673 5.84445 3.72815 5.84445 3.48367C5.84445 3.23919 5.66483 3.04062 5.44368 3.04062H5.02306C5.46173 1.67951 5.9997 0.491034 6.89601 0.267509C6.6857 0.40821 6.54489 0.662669 6.54489 0.955048C6.54489 1.3991 6.87074 1.75934 7.27241 1.75934C7.67408 1.75934 7.99993 1.3991 7.99993 0.955048C7.99993 0.693603 7.8862 0.462095 7.71199 0.315407C7.72463 0.319398 7.73726 0.32339 7.7499 0.327381C7.7499 0.327381 7.72824 0.315407 7.68942 0.296447C7.58652 0.216617 7.46467 0.165725 7.33288 0.15375C6.76694 -0.0328531 5.72981 -0.201495 4.88586 0.627743C4.48509 1.02191 4.20076 1.96191 3.89477 3.03962H3.03998C2.96145 3.03962 2.88383 3.06556 2.81793 3.11346C2.48667 3.35595 2.64282 3.92673 3.03998 3.92673H3.64203C3.12573 5.69797 2.4632 7.53706 1.11377 7.83243C1.31776 7.68974 1.45406 7.43927 1.45406 7.15188V7.15088Z" fill="#F1F1F1"/>
</g>
<defs>
<clipPath id="clip0_955_7101">
<rect width="8" height="8" fill="white"/>
</clipPath>
</defs>
</svg>
