<svg width="8" height="8" viewBox="0 0 8 8" fill="none" xmlns="http://www.w3.org/2000/svg">
<path d="M1.45403 7.15088C1.45403 6.70683 1.12818 6.34659 0.726512 6.34659C0.324842 6.34659 -0.00100708 6.70683 -0.00100708 7.15088C-0.00100708 7.52908 0.234579 7.84441 0.552304 7.93122C0.875446 8.14776 3.45426 7.96216 4.20344 5.75285C4.39389 5.19304 4.569 4.55939 4.75314 3.92673H5.44365C5.66479 3.92673 5.84442 3.72815 5.84442 3.48367C5.84442 3.23919 5.66479 3.04062 5.44365 3.04062H5.02303C5.4617 1.67951 5.99967 0.491034 6.89598 0.267509C6.68567 0.40821 6.54486 0.662669 6.54486 0.955048C6.54486 1.3991 6.87071 1.75934 7.27238 1.75934C7.67405 1.75934 7.9999 1.3991 7.9999 0.955048C7.9999 0.693603 7.88617 0.462095 7.71196 0.315407C7.72459 0.319398 7.73723 0.32339 7.74987 0.327381C7.74987 0.327381 7.72821 0.315407 7.68939 0.296447C7.58649 0.216617 7.46464 0.165725 7.33285 0.15375C6.7669 -0.0328531 5.72978 -0.201495 4.88583 0.627743C4.48506 1.02191 4.20073 1.96191 3.89474 3.03962H3.03995C2.96142 3.03962 2.8838 3.06556 2.8179 3.11346C2.48664 3.35595 2.64279 3.92673 3.03995 3.92673H3.642C3.1257 5.69797 2.46317 7.53706 1.11374 7.83243C1.31773 7.68974 1.45403 7.43927 1.45403 7.15188V7.15088Z" fill="black"/>
</svg>
