<svg width="24" height="24" viewBox="0 0 24 24" fill="none" xmlns="http://www.w3.org/2000/svg">
<g id="chat">
<mask id="mask0_501_9374" style="mask-type:alpha" maskUnits="userSpaceOnUse" x="0" y="0" width="24" height="24">
<rect id="Bounding box" width="24" height="24" fill="#AAAAAA"/>
</mask>
<g mask="url(#mask0_501_9374)">
<path id="chat_2" d="M2.40039 21.5999V4.1999C2.40039 3.7049 2.57664 3.28115 2.92914 2.92865C3.28164 2.57615 3.70539 2.3999 4.20039 2.3999H19.8004C20.2954 2.3999 20.7191 2.57615 21.0716 2.92865C21.4241 3.28115 21.6004 3.7049 21.6004 4.1999V16.1999C21.6004 16.6949 21.4241 17.1187 21.0716 17.4712C20.7191 17.8237 20.2954 17.9999 19.8004 17.9999H6.00039L2.40039 21.5999ZM6.00039 14.3999H14.4004V12.5999H6.00039V14.3999ZM6.00039 11.0999H18.0004V9.2999H6.00039V11.0999ZM6.00039 7.7999H18.0004V5.9999H6.00039V7.7999Z" fill="#AAAAAA"/>
</g>
</g>
</svg>
