<svg width="25" height="25" viewBox="0 0 25 25" fill="none" xmlns="http://www.w3.org/2000/svg">
<g id="Property 1=&#237;&#129;&#180;&#235;&#166;&#173;&#236;&#157;&#180;&#237;&#155;&#132; &#237;&#153;&#156;&#236;&#132;&#177;&#237;&#153;&#148;">
<mask id="mask0_468_2460" style="mask-type:alpha" maskUnits="userSpaceOnUse" x="0" y="0" width="25" height="25">
<rect id="Bounding box" x="0.5" y="0.690918" width="24" height="24" fill="#D9D9D9"/>
</mask>
<g mask="url(#mask0_468_2460)">
<path id="favorite" d="M12.5 21.6908L11.05 20.3908C9.36667 18.8742 7.975 17.5658 6.875 16.4658C5.775 15.3658 4.9 14.3783 4.25 13.5033C3.6 12.6283 3.14583 11.8242 2.8875 11.0908C2.62917 10.3575 2.5 9.60749 2.5 8.84082C2.5 7.27415 3.025 5.96582 4.075 4.91582C5.125 3.86582 6.43333 3.34082 8 3.34082C8.86667 3.34082 9.69167 3.52415 10.475 3.89082C11.2583 4.25749 11.9333 4.77415 12.5 5.44082C13.0667 4.77415 13.7417 4.25749 14.525 3.89082C15.3083 3.52415 16.1333 3.34082 17 3.34082C18.5667 3.34082 19.875 3.86582 20.925 4.91582C21.975 5.96582 22.5 7.27415 22.5 8.84082C22.5 9.60749 22.3708 10.3575 22.1125 11.0908C21.8542 11.8242 21.4 12.6283 20.75 13.5033C20.1 14.3783 19.225 15.3658 18.125 16.4658C17.025 17.5658 15.6333 18.8742 13.95 20.3908L12.5 21.6908Z" fill="url(#paint0_radial_468_2460)"/>
</g>
</g>
<defs>
<radialGradient id="paint0_radial_468_2460" cx="0" cy="0" r="1" gradientUnits="userSpaceOnUse" gradientTransform="translate(2.5 4.11075) rotate(41.0088) scale(26.1725 51.0322)">
<stop offset="0.2" stop-color="#FF0004"/>
<stop offset="0.497578" stop-color="#FFA6A7"/>
<stop offset="0.802083" stop-color="#F7FF00"/>
</radialGradient>
</defs>
</svg>
