<svg width="16" height="16" viewBox="0 0 16 16" fill="none" xmlns="http://www.w3.org/2000/svg">
<g id="favorite">
<mask id="mask0_905_484" style="mask-type:alpha" maskUnits="userSpaceOnUse" x="0" y="0" width="16" height="16">
<rect id="Bounding box" width="16" height="16" fill="#D9D9D9"/>
</mask>
<g mask="url(#mask0_905_484)">
<path id="favorite_2" d="M8.00001 13.9999L7.03334 13.1333C5.91112 12.1222 4.98334 11.2499 4.25001 10.5166C3.51668 9.78327 2.93334 9.12494 2.50001 8.5416C2.06668 7.95827 1.7639 7.42216 1.59168 6.93327C1.41945 6.44438 1.33334 5.94438 1.33334 5.43327C1.33334 4.38882 1.68334 3.5166 2.38334 2.8166C3.08334 2.1166 3.95557 1.7666 5.00001 1.7666C5.57779 1.7666 6.12779 1.88882 6.65001 2.13327C7.17223 2.37771 7.62223 2.72216 8.00001 3.1666C8.37779 2.72216 8.82779 2.37771 9.35001 2.13327C9.87223 1.88882 10.4222 1.7666 11 1.7666C12.0445 1.7666 12.9167 2.1166 13.6167 2.8166C14.3167 3.5166 14.6667 4.38882 14.6667 5.43327C14.6667 5.94438 14.5806 6.44438 14.4083 6.93327C14.2361 7.42216 13.9333 7.95827 13.5 8.5416C13.0667 9.12494 12.4833 9.78327 11.75 10.5166C11.0167 11.2499 10.0889 12.1222 8.96668 13.1333L8.00001 13.9999Z" fill="#AAAAAA"/>
</g>
</g>
</svg>
