<svg width="78" height="16" viewBox="0 0 78 16" fill="none" xmlns="http://www.w3.org/2000/svg">
<g clip-path="url(#clip0_914_13910)">
<path d="M0.831974 7.83203H0.168026C0.0752277 7.83203 0 7.90726 0 8.00006C0 8.09285 0.0752277 8.16808 0.168026 8.16808H0.831974C0.924772 8.16808 1 8.09285 1 8.00006C1 7.90726 0.924772 7.83203 0.831974 7.83203Z" fill="black"/>
<path d="M2.65721 7.65723H2.34279C2.15347 7.65723 2 7.8107 2 8.00002C2 8.18934 2.15347 8.34281 2.34279 8.34281H2.65721C2.84653 8.34281 3 8.18934 3 8.00002C3 7.8107 2.84653 7.65723 2.65721 7.65723Z" fill="black"/>
<path d="M5 8.11169V7.88843C5 7.61229 4.77614 7.38843 4.5 7.38843C4.22386 7.38843 4 7.61229 4 7.88843V8.11169C4 8.38783 4.22386 8.61169 4.5 8.61169C4.77614 8.61169 5 8.38783 5 8.11169Z" fill="black"/>
<path d="M7 8.03098V7.96899C7 7.69285 6.77614 7.46899 6.5 7.46899C6.22386 7.46899 6 7.69285 6 7.96899V8.03098C6 8.30712 6.22386 8.53098 6.5 8.53098C6.77614 8.53098 7 8.30712 7 8.03098Z" fill="black"/>
<path d="M9 8.77759V7.22241C9 6.94627 8.77614 6.72241 8.5 6.72241C8.22386 6.72241 8 6.94627 8 7.22241V8.77759C8 9.05374 8.22386 9.27759 8.5 9.27759C8.77614 9.27759 9 9.05374 9 8.77759Z" fill="black"/>
<path d="M11 9.26231V6.73779C11 6.46165 10.7761 6.23779 10.5 6.23779C10.2239 6.23779 10 6.46165 10 6.73779V9.26231C10 9.53845 10.2239 9.76231 10.5 9.76231C10.7761 9.76231 11 9.53845 11 9.26231Z" fill="black"/>
<path d="M13 9.89957V6.10059C13 5.82444 12.7761 5.60059 12.5 5.60059C12.2239 5.60059 12 5.82444 12 6.10059V9.89957C12 10.1757 12.2239 10.3996 12.5 10.3996C12.7761 10.3996 13 10.1757 13 9.89957Z" fill="black"/>
<path d="M15 8.93163V7.06836C15 6.79222 14.7761 6.56836 14.5 6.56836C14.2239 6.56836 14 6.79222 14 7.06836V8.93163C14 9.20777 14.2239 9.43163 14.5 9.43163C14.7761 9.43163 15 9.20777 15 8.93163Z" fill="black"/>
<path d="M16.0014 7.92796L16.0011 8.07107C16.0005 8.30769 16.1918 8.4997 16.4284 8.49994C16.6651 8.50018 16.8574 8.30855 16.8579 8.07193L16.8583 7.92882C16.8589 7.6922 16.6675 7.50018 16.4309 7.49995C16.1943 7.49971 16.002 7.69133 16.0014 7.92796Z" fill="black"/>
<path d="M18.8593 8.22454V7.77563C18.8593 7.49949 18.6355 7.27563 18.3593 7.27563C18.0832 7.27563 17.8593 7.49949 17.8593 7.77563V8.22454C17.8593 8.50068 18.0832 8.72454 18.3593 8.72454C18.6355 8.72454 18.8593 8.50068 18.8593 8.22454Z" fill="black"/>
<path d="M20.8593 8.59746V7.40234C20.8593 7.1262 20.6355 6.90234 20.3593 6.90234C20.0832 6.90234 19.8593 7.1262 19.8593 7.40234V8.59746C19.8593 8.87361 20.0832 9.09746 20.3593 9.09746C20.6355 9.09746 20.8593 8.87361 20.8593 8.59746Z" fill="black"/>
<path d="M22.8593 9.04864V6.95117C22.8593 6.67503 22.6355 6.45117 22.3593 6.45117C22.0832 6.45117 21.8593 6.67503 21.8593 6.95117V9.04864C21.8593 9.32478 22.0832 9.54864 22.3593 9.54864C22.6355 9.54864 22.8593 9.32478 22.8593 9.04864Z" fill="black"/>
<path d="M24.8593 10.5237V5.47632C24.8593 5.20018 24.6355 4.97632 24.3593 4.97632C24.0832 4.97632 23.8593 5.20018 23.8593 5.47632V10.5237C23.8593 10.7998 24.0832 11.0237 24.3593 11.0237C24.6355 11.0237 24.8593 10.7998 24.8593 10.5237Z" fill="black"/>
<path d="M26.8593 11.7904V4.20972C26.8593 3.93357 26.6355 3.70972 26.3593 3.70972C26.0832 3.70972 25.8593 3.93357 25.8593 4.20972V11.7904C25.8593 12.0666 26.0832 12.2904 26.3593 12.2904C26.6355 12.2904 26.8593 12.0666 26.8593 11.7904Z" fill="black"/>
<path d="M28.8593 11.2958V4.7041C28.8593 4.42796 28.6355 4.2041 28.3593 4.2041C28.0832 4.2041 27.8593 4.42796 27.8593 4.7041V11.2958C27.8593 11.5719 28.0832 11.7958 28.3593 11.7958C28.6355 11.7958 28.8593 11.5719 28.8593 11.2958Z" fill="black"/>
<path d="M30.8593 13.139V2.86084C30.8593 2.5847 30.6355 2.36084 30.3593 2.36084C30.0832 2.36084 29.8593 2.5847 29.8593 2.86084V13.139C29.8593 13.4152 30.0832 13.639 30.3593 13.639C30.6355 13.639 30.8593 13.4152 30.8593 13.139Z" fill="black"/>
<path d="M32.8593 12.285V3.71509C32.8593 3.43895 32.6355 3.21509 32.3593 3.21509C32.0832 3.21509 31.8593 3.43895 31.8593 3.71509V12.285C31.8593 12.5611 32.0832 12.785 32.3593 12.785C32.6355 12.785 32.8593 12.5611 32.8593 12.285Z" fill="black"/>
<path d="M34.8593 11.0876V4.91235C34.8593 4.63621 34.6355 4.41235 34.3593 4.41235C34.0832 4.41235 33.8593 4.63621 33.8593 4.91235V11.0876C33.8593 11.3637 34.0832 11.5876 34.3593 11.5876C34.6355 11.5876 34.8593 11.3637 34.8593 11.0876Z" fill="black"/>
<path d="M36.8593 11.7904V4.20972C36.8593 3.93357 36.6355 3.70972 36.3593 3.70972C36.0832 3.70972 35.8593 3.93357 35.8593 4.20972V11.7904C35.8593 12.0666 36.0832 12.2904 36.3593 12.2904C36.6355 12.2904 36.8593 12.0666 36.8593 11.7904Z" fill="black"/>
<path d="M38.8593 9.4479V6.55225C38.8593 6.2761 38.6355 6.05225 38.3593 6.05225C38.0832 6.05225 37.8593 6.2761 37.8593 6.55225V9.4479C37.8593 9.72404 38.0832 9.9479 38.3593 9.9479C38.6355 9.9479 38.8593 9.72404 38.8593 9.4479Z" fill="black"/>
<path d="M40.8593 8.75382V7.24634C40.8593 6.9702 40.6355 6.74634 40.3593 6.74634C40.0832 6.74634 39.8593 6.9702 39.8593 7.24634V8.75383C39.8593 9.02997 40.0832 9.25383 40.3593 9.25383C40.6355 9.25383 40.8593 9.02997 40.8593 8.75382Z" fill="black"/>
<path d="M42.8593 8.13867V7.86157C42.8593 7.58543 42.6355 7.36157 42.3593 7.36157C42.0832 7.36157 41.8593 7.58543 41.8593 7.86157V8.13867C41.8593 8.41481 42.0832 8.63867 42.3593 8.63867C42.6355 8.63867 42.8593 8.41481 42.8593 8.13867Z" fill="black"/>
<path d="M44.5569 7.69751H44.1618C43.9948 7.69751 43.8593 7.83292 43.8593 7.99995C43.8593 8.16699 43.9948 8.3024 44.1618 8.3024H44.5569C44.7239 8.3024 44.8593 8.16699 44.8593 7.99995C44.8593 7.83292 44.7239 7.69751 44.5569 7.69751Z" fill="black"/>
<path d="M46.6913 7.83203H46.0274C45.9346 7.83203 45.8593 7.90726 45.8593 8.00006C45.8593 8.09285 45.9346 8.16808 46.0274 8.16808H46.6913C46.7841 8.16808 46.8593 8.09285 46.8593 8.00006C46.8593 7.90726 46.7841 7.83203 46.6913 7.83203Z" fill="black"/>
<path d="M48.8593 8.34027V7.65991C48.8593 7.38377 48.6355 7.15991 48.3593 7.15991C48.0832 7.15991 47.8593 7.38377 47.8593 7.65991V8.34027C47.8593 8.61641 48.0832 8.84027 48.3593 8.84027C48.6355 8.84027 48.8593 8.61641 48.8593 8.34027Z" fill="black"/>
<path d="M50.8593 9.07938V6.92041C50.8593 6.64427 50.6355 6.42041 50.3593 6.42041C50.0832 6.42041 49.8593 6.64427 49.8593 6.92041V9.07938C49.8593 9.35553 50.0832 9.57938 50.3593 9.57938C50.6355 9.57938 50.8593 9.35553 50.8593 9.07938Z" fill="black"/>
<path d="M52.8593 9.72013V6.27979C52.8593 6.00364 52.6355 5.77979 52.3593 5.77979C52.0832 5.77979 51.8593 6.00364 51.8593 6.27978V9.72013C51.8593 9.99627 52.0832 10.2201 52.3593 10.2201C52.6355 10.2201 52.8593 9.99628 52.8593 9.72013Z" fill="black"/>
<path d="M54.8593 8.9769V7.02295C54.8593 6.74681 54.6355 6.52295 54.3593 6.52295C54.0832 6.52295 53.8593 6.74681 53.8593 7.02295V8.9769C53.8593 9.25304 54.0832 9.4769 54.3593 9.4769C54.6355 9.4769 54.8593 9.25304 54.8593 8.9769Z" fill="black"/>
<path d="M56.8593 10.2221V5.77783C56.8593 5.50169 56.6355 5.27783 56.3593 5.27783C56.0832 5.27783 55.8593 5.50169 55.8593 5.77783V10.2221C55.8593 10.4982 56.0832 10.7221 56.3593 10.7221C56.6355 10.7221 56.8593 10.4982 56.8593 10.2221Z" fill="black"/>
<path d="M58.8593 11.3109V4.68896C58.8593 4.41282 58.6355 4.18896 58.3593 4.18896C58.0832 4.18896 57.8593 4.41282 57.8593 4.68897V11.3109C57.8593 11.587 58.0832 11.8109 58.3593 11.8109C58.6355 11.8109 58.8593 11.587 58.8593 11.3109Z" fill="black"/>
<path d="M60.8593 9.80542V6.19458C60.8593 5.91844 60.6355 5.69458 60.3593 5.69458C60.0832 5.69458 59.8593 5.91844 59.8593 6.19458V9.80542C59.8593 10.0816 60.0832 10.3054 60.3593 10.3054C60.6355 10.3054 60.8593 10.0816 60.8593 9.80542Z" fill="black"/>
<path d="M62.8593 8.85092V7.14893C62.8593 6.87278 62.6355 6.64893 62.3593 6.64893C62.0832 6.64893 61.8593 6.87278 61.8593 7.14893V8.85092C61.8593 9.12706 62.0832 9.35092 62.3593 9.35092C62.6355 9.35092 62.8593 9.12706 62.8593 8.85092Z" fill="black"/>
<path d="M64.3687 7.50928H64.35C64.079 7.50928 63.8593 7.72895 63.8593 7.99992C63.8593 8.2709 64.079 8.49056 64.35 8.49056H64.3687C64.6397 8.49056 64.8593 8.2709 64.8593 7.99992C64.8593 7.72895 64.6397 7.50928 64.3687 7.50928Z" fill="black"/>
<path d="M66.8593 8.29986V7.7002C66.8593 7.42405 66.6355 7.2002 66.3593 7.2002C66.0832 7.2002 65.8593 7.42405 65.8593 7.70019V8.29986C65.8593 8.576 66.0832 8.79986 66.3593 8.79986C66.6355 8.79986 66.8593 8.576 66.8593 8.29986Z" fill="black"/>
<path d="M68.53 7.67065H68.1887C68.0068 7.67065 67.8593 7.81811 67.8593 8.00002C67.8593 8.18192 68.0068 8.32938 68.1887 8.32938H68.53C68.7119 8.32938 68.8593 8.18192 68.8593 8.00002C68.8593 7.81811 68.7119 7.67065 68.53 7.67065Z" fill="black"/>
<path d="M70.5972 7.73779H70.1215C69.9767 7.73779 69.8593 7.85516 69.8593 7.99994C69.8593 8.14473 69.9767 8.26209 70.1215 8.26209H70.5972C70.742 8.26209 70.8593 8.14473 70.8593 7.99994C70.8593 7.85516 70.742 7.73779 70.5972 7.73779Z" fill="black"/>
<path d="M72.8593 8.29986V7.7002C72.8593 7.42405 72.6355 7.2002 72.3593 7.2002C72.0832 7.2002 71.8593 7.42405 71.8593 7.70019V8.29986C71.8593 8.576 72.0832 8.79986 72.3593 8.79986C72.6355 8.79986 72.8593 8.576 72.8593 8.29986Z" fill="black"/>
<path d="M74.8593 8.70394V7.2959C74.8593 7.01976 74.6355 6.7959 74.3593 6.7959C74.0832 6.7959 73.8593 7.01976 73.8593 7.2959V8.70394C73.8593 8.98008 74.0832 9.20394 74.3593 9.20394C74.6355 9.20394 74.8593 8.98008 74.8593 8.70394Z" fill="black"/>
<path d="M76.8593 9.92592V6.07397C76.8593 5.79783 76.6355 5.57397 76.3593 5.57397C76.0832 5.57397 75.8593 5.79783 75.8593 6.07397V9.92592C75.8593 10.2021 76.0832 10.4259 76.3593 10.4259C76.6355 10.4259 76.8593 10.2021 76.8593 9.92592Z" fill="black"/>
<path d="M78.8593 10.4619V5.53833C78.8593 5.26219 78.6355 5.03833 78.3593 5.03833C78.0832 5.03833 77.8593 5.26219 77.8593 5.53833V10.4619C77.8593 10.738 78.0832 10.9619 78.3593 10.9619C78.6355 10.9619 78.8593 10.738 78.8593 10.4619Z" fill="black"/>
</g>
<defs>
<clipPath id="clip0_914_13910">
<rect width="78" height="16" fill="white"/>
</clipPath>
</defs>
</svg>
