<svg width="28" height="28" viewBox="0 0 28 28" fill="none" xmlns="http://www.w3.org/2000/svg">
<path d="M14 24.5C15.3791 24.5017 16.745 24.2309 18.0191 23.7031C19.2933 23.1753 20.4506 22.401 21.4245 21.4245C22.401 20.4506 23.1753 19.2933 23.7031 18.0191C24.2309 16.745 24.5017 15.3791 24.5 14C24.5017 12.6209 24.2309 11.255 23.7031 9.98086C23.1753 8.70672 22.401 7.54942 21.4245 6.57546C20.4506 5.59904 19.2933 4.8247 18.0191 4.29691C16.745 3.76913 15.3791 3.49831 14 3.50001C12.6209 3.49831 11.255 3.76913 9.98086 4.29691C8.70672 4.8247 7.54942 5.59904 6.57546 6.57546C5.59904 7.54942 4.8247 8.70672 4.29691 9.98086C3.76913 11.255 3.49831 12.6209 3.50001 14C3.49831 15.3791 3.76913 16.745 4.29691 18.0191C4.8247 19.2933 5.59904 20.4506 6.57546 21.4245C7.54942 22.401 8.70672 23.1753 9.98086 23.7031C11.255 24.2309 12.6209 24.5017 14 24.5Z" fill="#48B3FF" stroke="#48B3FF" stroke-width="1.75" stroke-linejoin="round"/>
<path d="M9.33301 14L12.4441 17.5L18.6663 10.5" stroke="white" stroke-width="1.75" stroke-linecap="round" stroke-linejoin="round"/>
</svg>
