<svg width="16" height="16" viewBox="0 0 16 16" fill="none" xmlns="http://www.w3.org/2000/svg">
<path d="M4.25 3.30137V3.80137C4.42958 3.80137 4.59537 3.70507 4.68433 3.54907L4.25 3.30137ZM5.5625 1V0.5C5.38292 0.5 5.21713 0.596303 5.12817 0.752296L5.5625 1ZM10.4375 1L10.8718 0.752296C10.7829 0.596303 10.6171 0.5 10.4375 0.5V1ZM11.75 3.30137L11.3157 3.54907C11.4046 3.70507 11.5704 3.80137 11.75 3.80137V3.30137ZM0.5 13.0822H1V5.21918H0.5H0V13.0822H0.5ZM2.375 3.30137V3.80137H4.25V3.30137V2.80137H2.375V3.30137ZM4.25 3.30137L4.68433 3.54907L5.99683 1.2477L5.5625 1L5.12817 0.752296L3.81567 3.05367L4.25 3.30137ZM5.5625 1V1.5H10.4375V1V0.5H5.5625V1ZM10.4375 1L10.0032 1.2477L11.3157 3.54907L11.75 3.30137L12.1843 3.05367L10.8718 0.752296L10.4375 1ZM11.75 3.30137V3.80137H13.625V3.30137V2.80137H11.75V3.30137ZM15.5 5.21918H15V13.0822H15.5H16V5.21918H15.5ZM15.5 13.0822H15C15 13.8759 14.3738 14.5 13.625 14.5V15V15.5C14.9473 15.5 16 14.4068 16 13.0822H15.5ZM13.625 3.30137V3.80137C14.3738 3.80137 15 4.42544 15 5.21918H15.5H16C16 3.89456 14.9473 2.80137 13.625 2.80137V3.30137ZM0.5 5.21918H1C1 4.42544 1.62619 3.80137 2.375 3.80137V3.30137V2.80137C1.05274 2.80137 0 3.89456 0 5.21918H0.5ZM2.375 15V14.5C1.62619 14.5 1 13.8759 1 13.0822H0.5H0C0 14.4068 1.05274 15.5 2.375 15.5V15ZM10.8125 8.67123H10.3125C10.3125 9.99456 9.26658 11.0479 8 11.0479V11.5479V12.0479C9.84002 12.0479 11.3125 10.5254 11.3125 8.67123H10.8125ZM8 11.5479V11.0479C6.73342 11.0479 5.6875 9.99456 5.6875 8.67123H5.1875H4.6875C4.6875 10.5254 6.15998 12.0479 8 12.0479V11.5479ZM5.1875 8.67123H5.6875C5.6875 7.34791 6.73342 6.29452 8 6.29452V5.79452V5.29452C6.15998 5.29452 4.6875 6.81703 4.6875 8.67123H5.1875ZM8 5.79452V6.29452C9.26658 6.29452 10.3125 7.34791 10.3125 8.67123H10.8125H11.3125C11.3125 6.81703 9.84002 5.29452 8 5.29452V5.79452ZM13.625 15V14.5H2.375V15V15.5H13.625V15Z" fill="#D9D9D9"/>
</svg>
