<svg width="24" height="25" viewBox="0 0 24 25" fill="none" xmlns="http://www.w3.org/2000/svg">
<path d="M12 11.2207V16.2207M12 21.2207C10.8181 21.2207 9.64778 20.9879 8.55585 20.5356C7.46392 20.0833 6.47177 19.4204 5.63604 18.5847C4.80031 17.7489 4.13738 16.7568 3.68508 15.6649C3.23279 14.5729 3 13.4026 3 12.2207C3 11.0388 3.23279 9.86848 3.68508 8.77655C4.13738 7.68462 4.80031 6.69247 5.63604 5.85674C6.47177 5.02101 7.46392 4.35808 8.55585 3.90579C9.64778 3.45349 10.8181 3.2207 12 3.2207C14.3869 3.2207 16.6761 4.16891 18.364 5.85674C20.0518 7.54457 21 9.83375 21 12.2207C21 14.6077 20.0518 16.8968 18.364 18.5847C16.6761 20.2725 14.3869 21.2207 12 21.2207ZM12.05 8.2207V8.3207H11.95V8.2207H12.05Z" stroke="#767676" stroke-width="1.5" stroke-linecap="round" stroke-linejoin="round"/>
</svg>
