<svg width="18" height="20" viewBox="0 0 18 20" fill="none" xmlns="http://www.w3.org/2000/svg">
<path d="M15.1566 5.41406H7.33002C7.08317 5.4147 6.83887 5.464 6.6111 5.55914C6.38332 5.65429 6.17654 5.7934 6.00258 5.96854C5.82862 6.14367 5.69089 6.35139 5.59729 6.5798C5.50368 6.80821 5.45602 7.05284 5.45705 7.29968V17.115C5.45705 18.1561 6.29575 19.0007 7.33002 19.0007H15.1566C15.4035 19 15.6478 18.9507 15.8755 18.8556C16.1033 18.7604 16.3101 18.6213 16.4841 18.4462C16.658 18.271 16.7957 18.0633 16.8894 17.8349C16.983 17.6065 17.0306 17.3619 17.0296 17.115V7.29968C17.0296 6.2586 16.1909 5.41406 15.1566 5.41406Z" stroke="#767676" stroke-width="1.5" stroke-linecap="round" stroke-linejoin="round"/>
<path d="M12.5437 5.41341V2.88562C12.5437 2.38551 12.3462 1.90584 11.995 1.55265C11.8216 1.3778 11.6153 1.23896 11.388 1.14411C11.1608 1.04927 10.917 1.00029 10.6708 1H2.84416C2.34795 1 1.87119 1.19849 1.52092 1.55265C1.1694 1.90732 0.97188 2.38627 0.971191 2.88562V12.701C0.971191 13.2011 1.1687 13.6808 1.51995 14.0339C1.87119 14.3871 2.34698 14.5866 2.84416 14.5866H5.4566" stroke="#767676" stroke-width="1.5" stroke-linecap="round" stroke-linejoin="round"/>
</svg>
