<svg width="31" height="30" viewBox="0 0 31 30" fill="none" xmlns="http://www.w3.org/2000/svg">
<g clip-path="url(#clip0_4865_38709)">
<path d="M30.5 27.6562C30.5 28.9507 29.4507 30 28.1562 30H2.84375C1.5493 30 0.5 28.9507 0.5 27.6562V2.34375C0.5 1.0493 1.5493 0 2.84375 0H28.1562C29.4507 0 30.5 1.0493 30.5 2.34375V27.6562Z" fill="#FFE812"/>
<path d="M15.5 4.21875C8.76898 4.21875 3.3125 8.52106 3.3125 13.8281C3.3125 17.2593 5.59367 20.2699 9.02516 21.97C8.83848 22.6138 7.82551 26.1118 7.7852 26.3866C7.7852 26.3866 7.76094 26.5931 7.89465 26.6719C8.02836 26.7506 8.18563 26.6895 8.18563 26.6895C8.56906 26.6359 12.6321 23.7819 13.3353 23.2863C14.0379 23.3858 14.7612 23.4375 15.5 23.4375C22.231 23.4375 27.6875 19.1353 27.6875 13.8281C27.6875 8.52106 22.231 4.21875 15.5 4.21875Z" fill="black"/>
<path d="M8.76172 17.1826C8.37395 17.1826 8.05859 16.8814 8.05859 16.5111V12.334H6.96148C6.58098 12.334 6.27148 12.0251 6.27148 11.6455C6.27148 11.2659 6.58109 10.957 6.96148 10.957H10.562C10.9425 10.957 11.252 11.2659 11.252 11.6455C11.252 12.0251 10.9423 12.334 10.562 12.334H9.46484V16.5111C9.46484 16.8814 9.14949 17.1826 8.76172 17.1826ZM14.9272 17.1735C14.634 17.1735 14.4097 17.0544 14.3421 16.8629L13.9939 15.9514L11.8498 15.9513L11.5014 16.8634C11.4341 17.0545 11.2099 17.1735 10.9167 17.1735C10.7625 17.1736 10.61 17.1405 10.4697 17.0764C10.2759 16.987 10.0896 16.7412 10.3031 16.078L11.985 11.6511C12.1034 11.3145 12.4633 10.9676 12.9213 10.9571C13.3805 10.9675 13.7404 11.3145 13.8591 11.6518L15.5403 16.0767C15.7543 16.7414 15.568 16.9874 15.3741 17.0766C15.2338 17.1405 15.0814 17.1736 14.9272 17.1735ZM13.6242 14.706L12.9219 12.7109L12.2196 14.706H13.6242ZM16.6719 17.0801C16.3003 17.0801 15.998 16.7909 15.998 16.4355V11.6602C15.998 11.2724 16.3201 10.957 16.7158 10.957C17.1116 10.957 17.4336 11.2724 17.4336 11.6602V15.791H18.9277C19.2993 15.791 19.6016 16.0802 19.6016 16.4355C19.6016 16.7909 19.2993 17.0801 18.9277 17.0801H16.6719ZM20.5782 17.1735C20.1904 17.1735 19.8751 16.8581 19.8751 16.4704V11.6602C19.8751 11.2724 20.1904 10.957 20.5782 10.957C20.966 10.957 21.2813 11.2724 21.2813 11.6602V13.1714L23.243 11.2097C23.3439 11.1088 23.4826 11.0532 23.633 11.0532C23.8086 11.0532 23.9848 11.1289 24.1169 11.2609C24.2401 11.3839 24.3136 11.5423 24.3236 11.7067C24.3338 11.8725 24.2786 12.0245 24.1685 12.1348L22.5662 13.7368L24.2969 16.0297C24.3528 16.1033 24.3935 16.1872 24.4167 16.2766C24.4399 16.3661 24.445 16.4592 24.4319 16.5506C24.4194 16.6421 24.3888 16.7302 24.342 16.8098C24.2952 16.8894 24.233 16.9589 24.1591 17.0143C24.0375 17.1068 23.8889 17.1566 23.7362 17.1562C23.6272 17.1568 23.5197 17.1317 23.4221 17.0832C23.3246 17.0347 23.2398 16.964 23.1745 16.8768L21.5255 14.6919L21.2816 14.9359V16.47C21.2813 16.6565 21.2072 16.8353 21.0753 16.9672C20.9435 17.099 20.7647 17.1732 20.5782 17.1735Z" fill="#FFE812"/>
</g>
<defs>
<clipPath id="clip0_4865_38709">
<rect x="0.5" width="30" height="30" rx="8" fill="white"/>
</clipPath>
</defs>
</svg>
