<svg width="25" height="24" viewBox="0 0 25 24" fill="none" xmlns="http://www.w3.org/2000/svg">
<path d="M12.3335 3C13.4938 3 14.6066 3.47411 15.4271 4.31802C16.2476 5.16193 16.7085 6.30653 16.7085 7.5V10.2C17.4047 10.2 18.0724 10.4845 18.5647 10.9908C19.0569 11.4972 19.3335 12.1839 19.3335 12.9V18.3C19.3335 19.0161 19.0569 19.7028 18.5647 20.2092C18.0724 20.7155 17.4047 21 16.7085 21H7.9585C7.2623 21 6.59462 20.7155 6.10234 20.2092C5.61006 19.7028 5.3335 19.0161 5.3335 18.3V12.9C5.3335 12.1839 5.61006 11.4972 6.10234 10.9908C6.59462 10.4845 7.2623 10.2 7.9585 10.2V7.5C7.9585 6.30653 8.41943 5.16193 9.2399 4.31802C10.0604 3.47411 11.1732 3 12.3335 3ZM12.3335 13.8C11.892 13.7999 11.4668 13.9714 11.143 14.2801C10.8193 14.5889 10.621 15.0122 10.5879 15.465L10.5835 15.6C10.5835 15.956 10.6861 16.304 10.8784 16.6C11.0707 16.896 11.344 17.1267 11.6638 17.263C11.9836 17.3992 12.3354 17.4349 12.6749 17.3654C13.0144 17.296 13.3262 17.1245 13.5709 16.8728C13.8157 16.6211 13.9823 16.3003 14.0499 15.9512C14.1174 15.602 14.0827 15.2401 13.9503 14.9112C13.8178 14.5823 13.5935 14.3011 13.3057 14.1034C13.018 13.9056 12.6796 13.8 12.3335 13.8ZM12.3335 4.8C11.6373 4.8 10.9696 5.08446 10.4773 5.59081C9.98506 6.09716 9.7085 6.78392 9.7085 7.5V10.2H14.9585V7.5C14.9585 6.78392 14.6819 6.09716 14.1897 5.59081C13.6974 5.08446 13.0297 4.8 12.3335 4.8Z" fill="#767676"/>
</svg>
