<svg width="24" height="25" viewBox="0 0 24 25" fill="none" xmlns="http://www.w3.org/2000/svg">
<path d="M12 21.6908L10.55 20.3908C8.86667 18.8742 7.475 17.5658 6.375 16.4658C5.275 15.3658 4.4 14.3783 3.75 13.5033C3.1 12.6283 2.64583 11.8242 2.3875 11.0908C2.12917 10.3575 2 9.60749 2 8.84082C2 7.27415 2.525 5.96582 3.575 4.91582C4.625 3.86582 5.93333 3.34082 7.5 3.34082C8.36667 3.34082 9.19167 3.52415 9.975 3.89082C10.7583 4.25749 11.4333 4.77415 12 5.44082C12.5667 4.77415 13.2417 4.25749 14.025 3.89082C14.8083 3.52415 15.6333 3.34082 16.5 3.34082C18.0667 3.34082 19.375 3.86582 20.425 4.91582C21.475 5.96582 22 7.27415 22 8.84082C22 9.60749 21.8708 10.3575 21.6125 11.0908C21.3542 11.8242 20.9 12.6283 20.25 13.5033C19.6 14.3783 18.725 15.3658 17.625 16.4658C16.525 17.5658 15.1333 18.8742 13.45 20.3908L12 21.6908Z" fill="url(#paint0_radial_1600_33451)"/>
<defs>
<radialGradient id="paint0_radial_1600_33451" cx="0" cy="0" r="1" gradientUnits="userSpaceOnUse" gradientTransform="translate(2 4.11075) rotate(41.0088) scale(26.1725 51.0322)">
<stop offset="0.2" stop-color="#FF0004"/>
<stop offset="0.497578" stop-color="#FFA6A7"/>
<stop offset="0.802083" stop-color="#F7FF00"/>
</radialGradient>
</defs>
</svg>
