<svg width="17" height="17" viewBox="0 0 17 17" fill="none" xmlns="http://www.w3.org/2000/svg">
<mask id="mask0_4872_60689" style="mask-type:alpha" maskUnits="userSpaceOnUse" x="0" y="0" width="17" height="17">
<rect x="0.400391" y="0.800781" width="16" height="16" fill="#D9D9D9"/>
</mask>
<g mask="url(#mask0_4872_60689)">
<path d="M9.06877 12.9454C8.6889 13.286 8.11355 13.286 7.73368 12.9454L7.63334 12.8554C6.74189 12.0522 6.0049 11.3594 5.42236 10.7769C4.83983 10.1943 4.37645 9.67137 4.03223 9.20799C3.688 8.74461 3.44749 8.31874 3.31068 7.93038C3.17387 7.54203 3.10547 7.14485 3.10547 6.73884C3.10547 5.90917 3.3835 5.21631 3.93955 4.66025C4.49561 4.1042 5.18847 3.82617 6.01814 3.82617C6.4771 3.82617 6.914 3.92326 7.32884 4.11744C7.74367 4.31162 8.10113 4.58523 8.40123 4.93828C8.70132 4.58523 9.05878 4.31162 9.47362 4.11744C9.88845 3.92326 10.3254 3.82617 10.7843 3.82617C11.614 3.82617 12.3068 4.1042 12.8629 4.66025C13.419 5.21631 13.697 5.90917 13.697 6.73884C13.697 7.14485 13.6286 7.54203 13.4918 7.93038C13.355 8.31874 13.1145 8.74461 12.7702 9.20799C12.426 9.67137 11.9626 10.1943 11.3801 10.7769C10.7976 11.3594 10.0606 12.0522 9.16911 12.8554L9.06877 12.9454Z" fill="#767676"/>
</g>
</svg>
