<svg width="25" height="24" viewBox="0 0 25 24" fill="none" xmlns="http://www.w3.org/2000/svg">
<path d="M19.1646 18.4972C17.7292 19.9326 13.6565 18.1872 10.068 14.5988C6.47942 11.0103 4.73398 6.93775 6.16939 5.50238C7.6048 4.06701 11.6775 5.8124 15.266 9.40083C18.8546 12.9893 20.6 17.0618 19.1646 18.4972Z" fill="#767676"/>
<path d="M19.1646 5.50278C20.6 6.93815 18.8546 11.0107 15.266 14.5992C11.6775 18.1876 7.6048 19.933 6.16938 18.4976C4.73397 17.0623 6.47942 12.9897 10.0679 9.40124C13.6565 5.81281 17.7292 4.06741 19.1646 5.50278Z" fill="#767676"/>
<path d="M19.1646 18.4972C17.7292 19.9326 13.6565 18.1872 10.068 14.5988C6.47942 11.0103 4.73398 6.93775 6.16939 5.50238C7.6048 4.06701 11.6775 5.8124 15.266 9.40083C18.8546 12.9893 20.6 17.0618 19.1646 18.4972Z" stroke="#767676" stroke-width="1.5"/>
<path d="M19.1646 5.50278C20.6 6.93815 18.8546 11.0107 15.266 14.5992C11.6775 18.1876 7.6048 19.933 6.16938 18.4976C4.73397 17.0623 6.47942 12.9897 10.0679 9.40124C13.6565 5.81281 17.7292 4.06741 19.1646 5.50278Z" stroke="#767676" stroke-width="1.5"/>
</svg>
