<svg width="25" height="15" viewBox="0 0 25 15" fill="none" xmlns="http://www.w3.org/2000/svg">
<g id="Component 3">
<path id="Vector" d="M6.80729 0.423584C10.5456 0.423584 13.5759 3.55776 13.5759 7.4237C13.5759 11.2896 10.5454 14.4236 6.80729 14.4236C3.06918 14.4236 0.0384521 11.2896 0.0384521 7.4237C0.0384521 3.55776 3.06895 0.423584 6.80729 0.423584ZM17.6166 0.833633C19.4858 0.833633 21.0011 3.78381 21.0011 7.4237H21.0013C21.0013 11.0626 19.486 14.0138 17.6169 14.0138C15.7477 14.0138 14.2324 11.0626 14.2324 7.4237C14.2324 3.78476 15.7475 0.833633 17.6166 0.833633ZM22.8481 1.52004C23.5054 1.52004 24.0385 4.16315 24.0385 7.4237C24.0385 10.6833 23.5056 13.3274 22.8481 13.3274C22.1907 13.3274 21.6581 10.684 21.6581 7.4237C21.6581 4.16339 22.1909 1.52004 22.8481 1.52004Z" fill="white"/>
</g>
</svg>
