<svg width="19" height="19" viewBox="0 0 19 19" fill="none" xmlns="http://www.w3.org/2000/svg">
<g clip-path="url(#clip0_2594_111338)">
<path d="M13.5669 4.10913C14.7867 4.10913 15.7847 5.10706 15.7847 6.3269V11.6794C15.7847 12.8951 14.7906 13.8933 13.5708 13.8933H10.4946L9.97021 14.7986L9.45459 15.6912C9.35818 15.8546 9.12396 15.8546 9.03174 15.6912L8.51611 14.7986L7.9917 13.8933H4.94873C3.73308 13.8933 2.73486 12.8993 2.73486 11.6794V6.323C2.73486 5.10735 3.72889 4.10913 4.94873 4.10913H13.5669ZM12.4858 8.03687C11.8697 8.03687 11.3708 8.55246 11.3706 9.1853C11.3706 9.81828 11.8696 10.3337 12.4858 10.3337C12.7414 10.3337 12.9763 10.246 13.1606 10.0994V10.4177C13.1606 10.4177 13.093 10.7322 12.6235 10.7322V11.323C12.6235 11.323 13.1308 11.382 13.5835 10.9294C13.5835 10.9294 13.7932 10.7072 13.8394 10.4138V8.08276H13.1606V8.27222C12.9721 8.12558 12.7372 8.03696 12.4858 8.03687ZM4.68018 10.3591H5.35107V10.1453C5.53969 10.3129 5.77842 10.4177 6.04248 10.4177C6.64192 10.4177 7.12842 9.88542 7.12842 9.22729C7.12828 8.5693 6.64603 8.03296 6.04248 8.03296C5.78264 8.03297 5.53968 8.13361 5.35107 8.30542V7.32007H4.68018V10.3591ZM9.86182 8.03296C9.19531 8.03296 8.65382 8.56527 8.65381 9.22339C8.65381 9.88152 9.19531 10.4138 9.86182 10.4138C10.5281 10.4136 11.0688 9.88136 11.0688 9.22339C11.0688 8.56543 10.5323 8.03321 9.86182 8.03296ZM7.20361 7.26147V7.86987C7.20361 7.86987 7.51386 7.91122 7.57275 8.21265V10.3591H8.26416V8.19604C8.22216 7.89439 8.04248 7.66772 8.04248 7.66772C7.64846 7.20251 7.20361 7.26147 7.20361 7.26147ZM5.90869 8.62769C6.24391 8.62784 6.51221 8.89232 6.51221 9.22339C6.51221 9.55445 6.24391 9.81894 5.90869 9.81909C5.66137 9.81909 5.4472 9.67155 5.35498 9.45776C5.32571 9.38659 5.30518 9.30709 5.30518 9.22339C5.30518 9.13968 5.32155 9.06019 5.35498 8.98901C5.4472 8.77523 5.66137 8.62769 5.90869 8.62769ZM9.86182 8.65308C10.1802 8.65333 10.4399 8.90916 10.4399 9.22339C10.4399 9.53763 10.1844 9.79345 9.86182 9.7937C9.54323 9.7937 9.28271 9.53778 9.28271 9.22339C9.28273 8.90901 9.54324 8.65308 9.86182 8.65308ZM12.6108 8.59448C12.8498 8.59448 13.06 8.7288 13.1606 8.92163C13.2025 9.00122 13.2231 9.08926 13.2231 9.1814C13.2231 9.27353 13.1983 9.36575 13.1606 9.44116C13.06 9.63818 12.8498 9.76831 12.6108 9.76831C12.2715 9.76812 11.9995 9.50405 11.9995 9.1814C11.9995 8.85874 12.2757 8.59468 12.6108 8.59448Z" fill="#2CB24A"/>
<path fill-rule="evenodd" clip-rule="evenodd" d="M15.5632 1.40796H3.011C2.00809 1.40796 1.19507 2.22098 1.19507 3.22389V15.7761C1.19507 16.779 2.00809 17.592 3.011 17.592H15.5632C16.5661 17.592 17.3791 16.779 17.3791 15.7761V3.22389C17.3791 2.22098 16.5661 1.40796 15.5632 1.40796ZM3.011 0.5H15.5632C17.0676 0.5 18.2871 1.71953 18.2871 3.22389V15.7761C18.2871 17.2805 17.0676 18.5 15.5632 18.5H3.011C1.50663 18.5 0.287109 17.2805 0.287109 15.7761V3.22389C0.287109 1.71953 1.50664 0.5 3.011 0.5Z" fill="#2CB24A"/>
</g>
<defs>
<clipPath id="clip0_2594_111338">
<rect width="18" height="18" fill="white" transform="translate(0.287109 0.5)"/>
</clipPath>
</defs>
</svg>
