<svg width="23" height="17" viewBox="0 0 23 17" fill="none" xmlns="http://www.w3.org/2000/svg">
<g id="Component 3">
<path id="ico_discord" d="M19.3655 1.7759C21.8499 5.26257 23.0771 9.19519 22.618 13.7227C22.617 13.7322 22.6139 13.7414 22.609 13.7498C22.604 13.7581 22.5973 13.7653 22.5893 13.7711C20.7078 15.0898 18.8848 15.8904 17.0874 16.4208C17.0734 16.4248 17.0584 16.4245 17.0446 16.42C17.0307 16.4155 17.0187 16.407 17.0101 16.3957C16.5916 15.8416 16.2162 15.259 15.8871 14.6525C15.8825 14.6441 15.8798 14.6349 15.8792 14.6255C15.8787 14.6161 15.8802 14.6066 15.8837 14.5978C15.8872 14.589 15.8927 14.581 15.8996 14.5743C15.9066 14.5676 15.915 14.5624 15.9243 14.5591C16.5187 14.346 17.0931 14.0852 17.6413 13.7794C17.6512 13.7737 17.6595 13.7658 17.6655 13.7564C17.6714 13.7469 17.6749 13.7362 17.6755 13.7252C17.6761 13.7142 17.6739 13.7032 17.669 13.6932C17.6641 13.6832 17.6568 13.6744 17.6475 13.6678C17.5312 13.5854 17.4158 13.4988 17.3057 13.4123C17.2958 13.4045 17.2838 13.3995 17.271 13.3981C17.2583 13.3966 17.2453 13.3986 17.2338 13.4039C13.6756 14.9722 9.77786 14.9722 6.1775 13.4039C6.16588 13.399 6.15307 13.3973 6.14048 13.3989C6.12789 13.4006 6.11603 13.4055 6.1062 13.4132C5.99642 13.4997 5.8807 13.5854 5.76561 13.6678C5.75642 13.6745 5.74909 13.6832 5.74427 13.6933C5.73945 13.7033 5.73729 13.7143 5.73797 13.7253C5.73865 13.7364 5.74215 13.7471 5.74817 13.7565C5.75419 13.7659 5.76254 13.7738 5.77249 13.7794C6.32202 14.0826 6.89595 14.3436 7.48885 14.56C7.49809 14.5632 7.50651 14.5683 7.51354 14.5748C7.52057 14.5814 7.52606 14.5893 7.52964 14.5981C7.53321 14.6068 7.5348 14.6162 7.5343 14.6256C7.53379 14.635 7.5312 14.6442 7.5267 14.6525C7.20291 15.2623 6.82708 15.8456 6.40299 16.3966C6.39417 16.4076 6.38208 16.4158 6.36829 16.4201C6.3545 16.4244 6.33967 16.4246 6.32574 16.4208C4.53683 15.8901 2.71382 15.0898 0.832328 13.7711C0.824344 13.7652 0.817702 13.7578 0.812808 13.7494C0.807915 13.741 0.804872 13.7317 0.803868 13.7221C0.420439 9.8059 1.20168 5.84194 4.05363 1.7753C4.06067 1.76461 4.07091 1.75619 4.08303 1.75112C5.50939 1.12571 7.01484 0.679813 8.56158 0.424627C8.5756 0.42261 8.58993 0.424628 8.60274 0.430424C8.61556 0.436219 8.62627 0.445528 8.63351 0.457163C8.84311 0.811258 9.03219 1.17607 9.1999 1.54994C10.8668 1.30845 12.5623 1.30845 14.2292 1.54994C14.3959 1.17703 14.582 0.812313 14.7868 0.457163C14.7938 0.445239 14.8045 0.435696 14.8175 0.429864C14.8304 0.424031 14.845 0.422201 14.8591 0.424627C16.4054 0.679684 17.9105 1.12517 19.3367 1.74993C19.3491 1.75463 19.3593 1.76342 19.3655 1.7747V1.7759ZM10.0418 9.22206C10.0593 8.06451 9.17488 7.10635 8.06462 7.10635C6.96344 7.10635 6.08774 8.05585 6.08774 9.22206C6.08774 10.3883 6.98095 11.3375 8.06462 11.3375C9.16612 11.3375 10.0418 10.388 10.0418 9.22206ZM17.352 9.22206C17.3692 8.06451 16.4847 7.10635 15.3748 7.10635C14.2736 7.10635 13.3976 8.05585 13.3976 9.22206C13.3976 10.3883 14.2908 11.3375 15.3748 11.3375C16.4847 11.3375 17.352 10.388 17.352 9.22206Z" fill="#7289DA"/>
</g>
</svg>
