<svg width="25" height="16" viewBox="0 0 25 16" fill="none" xmlns="http://www.w3.org/2000/svg">
<g id="Component 3">
<path id="ico_youtube" d="M24.0938 2.50182C23.8155 1.52242 23.0007 0.740202 21.9722 0.481616C20.1051 -1.84955e-07 12.5996 0 12.5996 0C12.5996 0 5.09409 -1.84955e-07 3.22705 0.481616C2.19848 0.746666 1.37698 1.52242 1.10541 2.50182C0.599609 4.2796 0.599609 8 0.599609 8C0.599609 8 0.599609 11.7204 1.10541 13.4982C1.38377 14.4776 2.19848 15.2598 3.22705 15.5184C5.09409 16 12.5996 16 12.5996 16C12.5996 16 20.1051 16 21.9722 15.5184C23.0007 15.2533 23.8222 14.4776 24.0938 13.4982C24.5996 11.7204 24.5996 8 24.5996 8C24.5996 8 24.5996 4.2796 24.0938 2.50182ZM10.1996 11.4263V4.57374L16.4355 8L10.1996 11.4263Z" fill="#888888"/>
</g>
</svg>
