<svg width="23" height="16" viewBox="0 0 23 16" fill="none" xmlns="http://www.w3.org/2000/svg">
<g id="Component 3">
<path id="ico_discord" d="M19.4533 1.35231C21.9378 4.83899 23.165 8.77161 22.7059 13.2991C22.7049 13.3086 22.7018 13.3179 22.6969 13.3262C22.6919 13.3345 22.6852 13.3418 22.6772 13.3475C20.7957 14.6662 18.9727 15.4668 17.1753 15.9972C17.1613 16.0012 17.1463 16.0009 17.1325 15.9964C17.1186 15.9919 17.1066 15.9834 17.098 15.9721C16.6795 15.4181 16.3041 14.8354 15.975 14.2289C15.9704 14.2205 15.9677 14.2113 15.9671 14.2019C15.9666 14.1925 15.9681 14.1831 15.9716 14.1742C15.9751 14.1654 15.9805 14.1574 15.9875 14.1507C15.9945 14.144 16.0029 14.1389 16.0122 14.1355C16.6066 13.9224 17.181 13.6616 17.7292 13.3558C17.7391 13.3502 17.7474 13.3422 17.7533 13.3328C17.7593 13.3233 17.7627 13.3126 17.7634 13.3016C17.764 13.2906 17.7618 13.2796 17.7569 13.2696C17.752 13.2596 17.7446 13.2509 17.7354 13.2442C17.6191 13.1618 17.5037 13.0753 17.3936 12.9887C17.3837 12.9809 17.3716 12.976 17.3589 12.9745C17.3462 12.973 17.3332 12.975 17.3217 12.9803C13.7635 14.5486 9.86575 14.5486 6.26539 12.9803C6.25377 12.9754 6.24096 12.9737 6.22837 12.9754C6.21579 12.977 6.20392 12.9819 6.19409 12.9896C6.08431 13.0761 5.96859 13.1618 5.8535 13.2442C5.84431 13.2509 5.83698 13.2597 5.83216 13.2697C5.82734 13.2797 5.82518 13.2907 5.82586 13.3018C5.82654 13.3128 5.83004 13.3235 5.83606 13.3329C5.84208 13.3423 5.85043 13.3502 5.86038 13.3558C6.40991 13.6591 6.98384 13.9201 7.57674 14.1364C7.58598 14.1396 7.5944 14.1447 7.60143 14.1513C7.60846 14.1578 7.61395 14.1658 7.61753 14.1745C7.6211 14.1833 7.62269 14.1926 7.62219 14.202C7.62168 14.2114 7.61909 14.2206 7.61459 14.2289C7.29081 14.8387 6.91497 15.4221 6.49088 15.973C6.48206 15.984 6.46997 15.9922 6.45618 15.9965C6.44239 16.0008 6.42756 16.0011 6.41363 15.9972C4.62472 15.4665 2.80171 14.6662 0.920218 13.3475C0.912234 13.3416 0.905592 13.3342 0.900699 13.3258C0.895805 13.3174 0.892763 13.3081 0.891758 13.2985C0.508329 9.38232 1.28957 5.41836 4.14152 1.35172C4.14856 1.34103 4.1588 1.3326 4.17092 1.32754C5.59728 0.702125 7.10273 0.256229 8.64947 0.00104313C8.66349 -0.000973869 8.67782 0.00104442 8.69064 0.00683979C8.70345 0.0126352 8.71416 0.0219443 8.7214 0.0335786C8.931 0.387674 9.12008 0.752482 9.28779 1.12636C10.9547 0.884868 12.6502 0.884868 14.3171 1.12636C14.4837 0.753444 14.6699 0.388729 14.8747 0.0335786C14.8817 0.0216547 14.8924 0.0121117 14.9054 0.00627957C14.9183 0.000447441 14.9329 -0.00138307 14.947 0.00104313C16.4933 0.2561 17.9984 0.701586 19.4246 1.32634C19.437 1.33105 19.4472 1.33984 19.4533 1.35112V1.35231ZM10.1297 8.79847C10.1472 7.64092 9.26277 6.68277 8.15251 6.68277C7.05133 6.68277 6.17563 7.63227 6.17563 8.79847C6.17563 9.96468 7.06884 10.9139 8.15251 10.9139C9.25401 10.9139 10.1297 9.96438 10.1297 8.79847ZM17.4399 8.79847C17.4571 7.64092 16.5726 6.68277 15.4627 6.68277C14.3615 6.68277 13.4855 7.63227 13.4855 8.79847C13.4855 9.96468 14.3787 10.9139 15.4627 10.9139C16.5726 10.9139 17.4399 9.96438 17.4399 8.79847Z" fill="#888888"/>
</g>
</svg>
