<svg width="23" height="18" viewBox="0 0 23 18" fill="none" xmlns="http://www.w3.org/2000/svg">
<g id="Component 3">
<path id="ico_telegram" fill-rule="evenodd" clip-rule="evenodd" d="M17.2524 17.8013C17.5475 18.0065 17.9279 18.0578 18.2671 17.9318C18.6063 17.8049 18.8556 17.5205 18.9308 17.1758C19.7273 13.5001 21.6596 4.19684 22.3847 0.853334C22.4397 0.601334 22.348 0.339434 22.1463 0.171134C21.9447 0.00283346 21.6651 -0.0457667 21.4158 0.0451334C17.5723 1.44194 5.73563 5.80244 0.897577 7.56014C0.590501 7.67174 0.390672 7.96154 0.400755 8.27924C0.411755 8.59784 0.629917 8.87414 0.944326 8.96684C3.11403 9.60404 5.96205 10.4905 5.96205 10.4905C5.96205 10.4905 7.29302 14.4371 7.98692 16.4441C8.074 16.6961 8.27474 16.8941 8.53965 16.9625C8.80365 17.03 9.08597 16.9589 9.28305 16.7762C10.3977 15.743 12.121 14.1454 12.121 14.1454C12.121 14.1454 15.3952 16.5026 17.2524 17.8013ZM7.1601 9.99195L8.69915 14.9762L9.04106 11.8198C9.04106 11.8198 14.9873 6.55394 18.3771 3.55244C18.4761 3.46424 18.4898 3.31664 18.4073 3.21314C18.3258 3.10964 18.1754 3.08534 18.0627 3.15554C14.1339 5.61884 7.1601 9.99195 7.1601 9.99195Z" fill="#888888"/>
</g>
</svg>
