<svg width="22" height="22" viewBox="0 0 22 22" fill="none" xmlns="http://www.w3.org/2000/svg">
<g id="Component 3">
<path id="Vector" fill-rule="evenodd" clip-rule="evenodd" d="M1.40824 1.99156L0.579053 1.94546L0.575297 2.82474L0.574878 3.00803C0.57463 3.15081 0.5743 3.39729 0.57397 3.81257C0.57331 4.64307 0.57265 6.14916 0.57265 8.85178V9.19894L1.55512 10.2393C1.16611 10.4985 0.775259 10.7547 0.382611 11.0079L0.00307463 11.2527L0 17.049L4.53174 21.851L4.82924 21.8716C10.3898 22.2562 16.1086 21.8294 21.4667 19.8719L22 19.6771V12.712L20.8408 11.4845C21.0383 11.278 21.2354 11.0698 21.431 10.8603L21.6597 10.6154V10.271C21.6597 10.0333 21.6603 8.78837 21.661 7.60235L21.6625 4.94285L16.9948 0L16.5303 0.164813C11.7062 1.87615 6.53217 2.27645 1.40824 1.99156ZM16.7817 0.959524L20.8708 5.28979C20.8708 5.28979 20.8682 9.79489 20.8682 10.271C20.6738 10.4792 20.4778 10.6863 20.2812 10.8918C20.0928 11.0887 19.9039 11.2841 19.7151 11.4777L21.2086 13.0592V19.0796C15.9793 20.9901 10.3728 21.4151 4.88083 21.0352L0.791641 16.7022L0.794281 11.7238C1.24145 11.4354 1.68637 11.1432 2.12896 10.847C2.35736 10.6942 2.58514 10.5403 2.81228 10.3853L1.3641 8.85178C1.3641 5.98315 1.36485 4.46286 1.36555 3.66773C1.36617 2.96466 1.36675 2.82851 1.36675 2.82851C1.6303 2.84317 1.8941 2.85604 2.15809 2.86704C7.08845 3.07252 12.0849 2.62573 16.7817 0.959524Z" fill="#888888"/>
<path id="Vector_2" d="M19.2845 7.4801V9.89386C16.7333 12.4697 14.1822 14.7158 11.6337 16.7189C14.2983 16.5318 16.9602 16.082 19.6274 15.2662C19.6274 16.1574 19.6274 17.0458 19.6274 17.937C15.9498 19.0657 12.2748 19.4931 8.5998 19.4931C7.88749 19.4931 7.17519 19.4763 6.46289 19.4456V17.0318C9.014 15.3137 11.5651 13.4167 14.1136 11.246C12.2801 11.4947 10.4465 11.6008 8.61297 11.6008C8.08534 11.6008 7.56035 11.5924 7.03272 11.5757C7.03272 10.6845 7.03272 9.79607 7.03272 8.90487C7.55506 8.92165 8.07481 8.93001 8.59718 8.93001C12.1587 8.93001 15.7203 8.53052 19.2818 7.47729L19.2845 7.4801Z" fill="#888888"/>
</g>
</svg>
