<svg width="25" height="14" viewBox="0 0 25 14" fill="none" xmlns="http://www.w3.org/2000/svg">
<g id="Component 3">
<path id="Vector" d="M6.96805 0C10.7064 0 13.7367 3.13418 13.7367 7.00012C13.7367 10.8661 10.7062 14 6.96805 14C3.22995 14 0.199219 10.8661 0.199219 7.00012C0.199219 3.13418 3.22972 0 6.96805 0ZM17.7774 0.410049C19.6466 0.410049 21.1618 3.36023 21.1618 7.00012H21.1621C21.1621 10.6391 19.6468 13.5902 17.7776 13.5902C15.9085 13.5902 14.3932 10.6391 14.3932 7.00012C14.3932 3.36117 15.9082 0.410049 17.7774 0.410049ZM23.0089 1.09646C23.6662 1.09646 24.1992 3.73957 24.1992 7.00012C24.1992 10.2597 23.6664 12.9038 23.0089 12.9038C22.3514 12.9038 21.8188 10.2604 21.8188 7.00012C21.8188 3.73981 22.3517 1.09646 23.0089 1.09646Z" fill="#888888"/>
</g>
</svg>
