<svg width="16" height="19" viewBox="0 0 16 19" fill="none" xmlns="http://www.w3.org/2000/svg">
<path d="M12.3657 8.84265C12.2881 8.80549 12.2094 8.76972 12.1296 8.73548C11.9907 6.17546 10.5918 4.70984 8.24299 4.69484C8.23235 4.69478 8.22176 4.69478 8.21112 4.69478C6.80622 4.69478 5.63779 5.29446 4.91862 6.38569L6.2104 7.27183C6.74765 6.45672 7.5908 6.28295 8.21174 6.28295C8.21891 6.28295 8.22611 6.28295 8.23321 6.28302C9.00659 6.28795 9.59018 6.51281 9.9679 6.95131C10.2428 7.27056 10.4266 7.71172 10.5177 8.26848C9.83196 8.15194 9.0904 8.11611 8.29765 8.16156C6.0645 8.29019 4.62885 9.59262 4.72527 11.4024C4.7742 12.3204 5.23153 13.1101 6.01296 13.626C6.67366 14.0622 7.52459 14.2754 8.40896 14.2272C9.57687 14.1631 10.4931 13.7175 11.1323 12.9028C11.6177 12.284 11.9247 11.4822 12.0603 10.4718C12.6169 10.8077 13.0294 11.2498 13.2572 11.7811C13.6446 12.6844 13.6672 14.1687 12.456 15.3789C11.3949 16.439 10.1193 16.8976 8.19157 16.9118C6.0532 16.8959 4.43598 16.2102 3.3845 14.8735C2.39989 13.6218 1.89103 11.8139 1.87205 9.5C1.89103 7.18604 2.39989 5.37815 3.3845 4.1265C4.43598 2.78983 6.05317 2.10406 8.19155 2.08817C10.3454 2.10418 11.9908 2.79326 13.0826 4.13637C13.6179 4.79502 14.0215 5.62333 14.2875 6.58909L15.8013 6.18521C15.4788 4.99646 14.9713 3.9721 14.2808 3.12256C12.8812 1.40063 10.8342 0.518295 8.19682 0.5H8.18627C5.55421 0.518232 3.53019 1.40392 2.17046 3.13243C0.960486 4.6706 0.336345 6.81085 0.315373 9.49367L0.315308 9.5L0.315373 9.50633C0.336345 12.1891 0.960486 14.3294 2.17046 15.8676C3.53019 17.5961 5.55421 18.4818 8.18627 18.5H8.19682C10.5369 18.4838 12.1863 17.8711 13.5451 16.5135C15.3229 14.7374 15.2694 12.5112 14.6834 11.1445C14.2631 10.1644 13.4616 9.36839 12.3657 8.84265ZM8.32535 12.6413C7.3466 12.6964 6.32978 12.2571 6.27965 11.3161C6.24248 10.6184 6.77616 9.83994 8.38542 9.7472C8.56971 9.73657 8.75056 9.73137 8.92822 9.73137C9.51275 9.73137 10.0596 9.78816 10.5567 9.89684C10.3713 12.2127 9.28362 12.5887 8.32535 12.6413Z" fill="white"/>
</svg>
