<svg width="14" height="12" viewBox="0 0 14 12" fill="none" xmlns="http://www.w3.org/2000/svg">
<path d="M9.00009 5.58809L12.8751 9.48809C13.0584 9.67142 13.1543 9.90059 13.1626 10.1756C13.1709 10.4506 13.0751 10.6881 12.8751 10.8881C12.6918 11.0714 12.4584 11.1631 12.1751 11.1631C11.8918 11.1631 11.6584 11.0714 11.4751 10.8881L6.87509 6.28809C6.77509 6.18809 6.70425 6.07975 6.66259 5.96309C6.62092 5.84642 6.60009 5.72142 6.60009 5.58809C6.60009 5.45475 6.62092 5.32975 6.66259 5.21309C6.70425 5.09642 6.77509 4.98809 6.87509 4.88809L11.4751 0.288086C11.6584 0.104752 11.8876 0.00891878 12.1626 0.000585469C12.4376 -0.00774784 12.6751 0.0880859 12.8751 0.288086C13.0584 0.471419 13.1501 0.704752 13.1501 0.988086C13.1501 1.27142 13.0584 1.50475 12.8751 1.68809L9.00009 5.58809ZM2.40009 5.58808L6.27509 9.48809C6.45842 9.67142 6.55425 9.90059 6.56259 10.1756C6.57092 10.4506 6.47509 10.6881 6.27509 10.8881C6.09175 11.0714 5.85842 11.1631 5.57509 11.1631C5.29175 11.1631 5.05842 11.0714 4.87509 10.8881L0.275086 6.28808C0.175086 6.18808 0.104252 6.07975 0.0625853 5.96308C0.0209187 5.84642 8.53527e-05 5.72142 8.53644e-05 5.58808C8.53761e-05 5.45475 0.0209187 5.32975 0.0625854 5.21308C0.104252 5.09642 0.175086 4.98808 0.275086 4.88808L4.87509 0.288085C5.05842 0.104752 5.28759 0.0089182 5.56259 0.000584892C5.83759 -0.00774842 6.07509 0.0880853 6.27509 0.288085C6.45842 0.471419 6.55009 0.704752 6.55009 0.988085C6.55009 1.27142 6.45842 1.50475 6.27509 1.68808L2.40009 5.58808Z" fill="#808080"/>
</svg>
