<svg width="24" height="24" viewBox="0 0 24 24" fill="none" xmlns="http://www.w3.org/2000/svg">
<mask id="mask0_7427_14976" style="mask-type:alpha" maskUnits="userSpaceOnUse" x="0" y="0" width="24" height="24">
<rect x="24" y="24" width="24" height="24" transform="rotate(-180 24 24)" fill="#808080"/>
</mask>
<g mask="url(#mask0_7427_14976)">
<path d="M11.4002 12.0002L15.3002 15.9002C15.4835 16.0835 15.5752 16.3169 15.5752 16.6002C15.5752 16.8835 15.4835 17.1169 15.3002 17.3002C15.1169 17.4835 14.8835 17.5752 14.6002 17.5752C14.3169 17.5752 14.0835 17.4835 13.9002 17.3002L9.3002 12.7002C9.2002 12.6002 9.12936 12.4919 9.0877 12.3752C9.04603 12.2585 9.0252 12.1335 9.0252 12.0002C9.0252 11.8669 9.04603 11.7419 9.0877 11.6252C9.12936 11.5085 9.2002 11.4002 9.3002 11.3002L13.9002 6.7002C14.0835 6.51686 14.3169 6.42519 14.6002 6.42519C14.8835 6.42519 15.1169 6.51686 15.3002 6.7002C15.4835 6.88353 15.5752 7.11686 15.5752 7.4002C15.5752 7.68353 15.4835 7.91686 15.3002 8.10019L11.4002 12.0002Z" fill="#808080"/>
</g>
</svg>
