<svg width="55" height="26" viewBox="0 0 55 26" fill="none" xmlns="http://www.w3.org/2000/svg">
<g clip-path="url(#clip0_2019_38972)">
<path d="M0 12C0 5.37258 5.37258 0 12 0H43C49.6274 0 55 5.37258 55 12V14C55 20.6274 49.6274 26 43 26H12C5.37258 26 0 20.6274 0 14V12Z" fill="black"/>
<path d="M0.539543 5.63116L36.5192 23.5558C44.4969 27.5302 53.8702 21.7279 53.8702 12.8149V7V33.5017H0.539543V5.63116Z" fill="url(#paint0_linear_2019_38972)"/>
<path d="M0.834694 12.4833L36.9485 31.2403C45.1244 35.4867 54.8377 29.3176 54.47 20.1121L54.1653 12.4833V50.1115H0.834694V12.4833Z" fill="black"/>
<path d="M55.2952 22.0977L17.687 3.05278C9.51183 -1.08715 -0.0993809 5.09358 0.275715 14.2495L0.597233 22.0977L0.597236 -15.5305L55.2952 -15.5305L55.2952 22.0977Z" fill="url(#paint1_linear_2019_38972)"/>
<path d="M55.2952 20.5805L17.687 1.5356C9.51183 -2.60433 -0.0993809 3.5764 0.275715 12.7324L0.597233 20.5805L0.597236 -17.0477L55.2952 -17.0477L55.2952 20.5805Z" fill="black"/>
<g filter="url(#filter0_d_2019_38972)">
<mask id="path-7-outside-1_2019_38972" maskUnits="userSpaceOnUse" x="7" y="8" width="40" height="11" fill="black">
<rect fill="white" x="7" y="8" width="40" height="11"/>
<path d="M8.708 18V9.36H15.38C15.676 9.36 15.944 9.432 16.184 9.576C16.432 9.72 16.628 9.916 16.772 10.164C16.924 10.412 17 10.684 17 10.98V12.696C17 12.808 16.988 12.916 16.964 13.02C16.948 13.116 16.92 13.208 16.88 13.296C17.024 13.496 17.136 13.696 17.216 13.896C17.304 14.088 17.348 14.284 17.348 14.484V16.38C17.348 16.676 17.272 16.948 17.12 17.196C16.976 17.444 16.78 17.64 16.532 17.784C16.292 17.928 16.024 18 15.728 18H8.708ZM10.364 16.548H15.68C15.736 16.548 15.784 16.528 15.824 16.488C15.872 16.448 15.896 16.396 15.896 16.332V14.544C15.896 14.48 15.872 14.428 15.824 14.388C15.784 14.348 15.736 14.328 15.68 14.328H10.364C10.308 14.328 10.256 14.348 10.208 14.388C10.168 14.428 10.148 14.48 10.148 14.544V16.332C10.148 16.396 10.168 16.448 10.208 16.488C10.256 16.528 10.308 16.548 10.364 16.548ZM10.364 12.876H15.32C15.384 12.876 15.436 12.856 15.476 12.816C15.516 12.768 15.536 12.716 15.536 12.66V11.028C15.536 10.964 15.516 10.912 15.476 10.872C15.436 10.832 15.384 10.812 15.32 10.812H10.364C10.308 10.812 10.256 10.832 10.208 10.872C10.168 10.912 10.148 10.964 10.148 11.028V12.66C10.148 12.716 10.168 12.768 10.208 12.816C10.256 12.856 10.308 12.876 10.364 12.876ZM18.6804 18V9.36H26.6124V10.812H20.1324V12.96H25.3524V14.4H20.1324V16.548H26.6124V18H18.6804ZM31.0119 18V10.812H27.4119V9.36H36.0519V10.812H32.4519V18H31.0119ZM36.9733 18V10.98C36.9733 10.684 37.0453 10.412 37.1893 10.164C37.3333 9.916 37.5293 9.72 37.7773 9.576C38.0253 9.432 38.2973 9.36 38.5933 9.36H43.9933C44.2893 9.36 44.5573 9.432 44.7973 9.576C45.0453 9.72 45.2413 9.916 45.3853 10.164C45.5373 10.412 45.6133 10.684 45.6133 10.98V18H44.1613V15.036H38.4133V18H36.9733ZM38.4133 13.596H44.1613V11.028C44.1613 10.964 44.1373 10.912 44.0893 10.872C44.0493 10.832 44.0013 10.812 43.9453 10.812H38.6293C38.5733 10.812 38.5213 10.832 38.4733 10.872C38.4333 10.912 38.4133 10.964 38.4133 11.028V13.596Z"/>
</mask>
<path d="M8.708 18V9.36H15.38C15.676 9.36 15.944 9.432 16.184 9.576C16.432 9.72 16.628 9.916 16.772 10.164C16.924 10.412 17 10.684 17 10.98V12.696C17 12.808 16.988 12.916 16.964 13.02C16.948 13.116 16.92 13.208 16.88 13.296C17.024 13.496 17.136 13.696 17.216 13.896C17.304 14.088 17.348 14.284 17.348 14.484V16.38C17.348 16.676 17.272 16.948 17.12 17.196C16.976 17.444 16.78 17.64 16.532 17.784C16.292 17.928 16.024 18 15.728 18H8.708ZM10.364 16.548H15.68C15.736 16.548 15.784 16.528 15.824 16.488C15.872 16.448 15.896 16.396 15.896 16.332V14.544C15.896 14.48 15.872 14.428 15.824 14.388C15.784 14.348 15.736 14.328 15.68 14.328H10.364C10.308 14.328 10.256 14.348 10.208 14.388C10.168 14.428 10.148 14.48 10.148 14.544V16.332C10.148 16.396 10.168 16.448 10.208 16.488C10.256 16.528 10.308 16.548 10.364 16.548ZM10.364 12.876H15.32C15.384 12.876 15.436 12.856 15.476 12.816C15.516 12.768 15.536 12.716 15.536 12.66V11.028C15.536 10.964 15.516 10.912 15.476 10.872C15.436 10.832 15.384 10.812 15.32 10.812H10.364C10.308 10.812 10.256 10.832 10.208 10.872C10.168 10.912 10.148 10.964 10.148 11.028V12.66C10.148 12.716 10.168 12.768 10.208 12.816C10.256 12.856 10.308 12.876 10.364 12.876ZM18.6804 18V9.36H26.6124V10.812H20.1324V12.96H25.3524V14.4H20.1324V16.548H26.6124V18H18.6804ZM31.0119 18V10.812H27.4119V9.36H36.0519V10.812H32.4519V18H31.0119ZM36.9733 18V10.98C36.9733 10.684 37.0453 10.412 37.1893 10.164C37.3333 9.916 37.5293 9.72 37.7773 9.576C38.0253 9.432 38.2973 9.36 38.5933 9.36H43.9933C44.2893 9.36 44.5573 9.432 44.7973 9.576C45.0453 9.72 45.2413 9.916 45.3853 10.164C45.5373 10.412 45.6133 10.684 45.6133 10.98V18H44.1613V15.036H38.4133V18H36.9733ZM38.4133 13.596H44.1613V11.028C44.1613 10.964 44.1373 10.912 44.0893 10.872C44.0493 10.832 44.0013 10.812 43.9453 10.812H38.6293C38.5733 10.812 38.5213 10.832 38.4733 10.872C38.4333 10.912 38.4133 10.964 38.4133 11.028V13.596Z" fill="#CCFF00"/>
<path d="M8.708 18H7.708V19H8.708V18ZM8.708 9.36V8.36H7.708V9.36H8.708ZM16.184 9.576L15.6695 10.4335L15.6757 10.4372L15.6819 10.4408L16.184 9.576ZM16.772 10.164L15.9072 10.6661L15.9132 10.6764L15.9194 10.6866L16.772 10.164ZM16.964 13.02L15.9896 12.7951L15.9827 12.8252L15.9776 12.8556L16.964 13.02ZM16.88 13.296L15.9696 12.8822L15.7298 13.4099L16.0685 13.8803L16.88 13.296ZM17.216 13.896L16.2875 14.2674L16.2967 14.2903L16.3069 14.3127L17.216 13.896ZM17.12 17.196L16.2674 16.6734L16.2612 16.6836L16.2552 16.6939L17.12 17.196ZM16.532 17.784L16.0299 16.9192L16.0237 16.9228L16.0175 16.9265L16.532 17.784ZM15.824 16.488L15.1838 15.7198L15.149 15.7488L15.1169 15.7809L15.824 16.488ZM15.824 14.388L15.1169 15.0951L15.149 15.1272L15.1838 15.1562L15.824 14.388ZM10.208 14.388L9.56782 13.6198L9.53297 13.6488L9.50089 13.6809L10.208 14.388ZM10.208 16.488L9.50089 17.1951L9.53297 17.2272L9.56782 17.2562L10.208 16.488ZM15.476 12.816L16.1831 13.5231L16.2152 13.491L16.2442 13.4562L15.476 12.816ZM10.208 10.872L9.56782 10.1038L9.53297 10.1328L9.50089 10.1649L10.208 10.872ZM10.208 12.816L9.43978 13.4562L9.49798 13.526L9.56782 13.5842L10.208 12.816ZM9.708 18V9.36H7.708V18H9.708ZM8.708 10.36H15.38V8.36H8.708V10.36ZM15.38 10.36C15.5056 10.36 15.594 10.3882 15.6695 10.4335L16.6985 8.71851C16.294 8.47582 15.8464 8.36 15.38 8.36V10.36ZM15.6819 10.4408C15.7795 10.4975 15.8505 10.5685 15.9072 10.6661L17.6368 9.66186C17.4055 9.26351 17.0845 8.94251 16.6861 8.71121L15.6819 10.4408ZM15.9194 10.6866C15.9732 10.7744 16 10.865 16 10.98H18C18 10.503 17.8748 10.0496 17.6246 9.64144L15.9194 10.6866ZM16 10.98V12.696H18V10.98H16ZM16 12.696C16 12.736 15.9958 12.7684 15.9896 12.7951L17.9384 13.2449C17.9802 13.0636 18 12.88 18 12.696H16ZM15.9776 12.8556C15.9759 12.8661 15.9733 12.8742 15.9696 12.8822L17.7904 13.7098C17.8667 13.5418 17.9201 13.3659 17.9504 13.1844L15.9776 12.8556ZM16.0685 13.8803C16.1716 14.0236 16.2417 14.1528 16.2875 14.2674L18.1445 13.5246C18.0303 13.2392 17.8764 12.9684 17.6915 12.7117L16.0685 13.8803ZM16.3069 14.3127C16.3384 14.3814 16.348 14.4358 16.348 14.484H18.348C18.348 14.1322 18.2696 13.7946 18.1251 13.4793L16.3069 14.3127ZM16.348 14.484V16.38H18.348V14.484H16.348ZM16.348 16.38C16.348 16.495 16.3212 16.5856 16.2674 16.6734L17.9726 17.7186C18.2228 17.3104 18.348 16.857 18.348 16.38H16.348ZM16.2552 16.6939C16.1985 16.7915 16.1275 16.8625 16.0299 16.9192L17.0341 18.6488C17.4325 18.4175 17.7535 18.0965 17.9848 17.6981L16.2552 16.6939ZM16.0175 16.9265C15.942 16.9718 15.8536 17 15.728 17V19C16.1944 19 16.642 18.8842 17.0465 18.6415L16.0175 16.9265ZM15.728 17H8.708V19H15.728V17ZM10.364 17.548H15.68V15.548H10.364V17.548ZM15.68 17.548C16.0042 17.548 16.3057 17.4205 16.5311 17.1951L15.1169 15.7809C15.1811 15.7167 15.2666 15.6544 15.3734 15.6099C15.4804 15.5653 15.5862 15.548 15.68 15.548V17.548ZM16.4642 17.2562C16.7465 17.021 16.896 16.6845 16.896 16.332H14.896C14.896 16.2364 14.9146 16.12 14.97 15.9999C15.0258 15.8792 15.1043 15.7861 15.1838 15.7198L16.4642 17.2562ZM16.896 16.332V14.544H14.896V16.332H16.896ZM16.896 14.544C16.896 14.1915 16.7465 13.855 16.4642 13.6198L15.1838 15.1562C15.1043 15.0899 15.0258 14.9968 14.97 14.8761C14.9146 14.756 14.896 14.6396 14.896 14.544H16.896ZM16.5311 13.6809C16.3057 13.4555 16.0042 13.328 15.68 13.328V15.328C15.5862 15.328 15.4804 15.3107 15.3734 15.2661C15.2666 15.2216 15.1811 15.1593 15.1169 15.0951L16.5311 13.6809ZM15.68 13.328H10.364V15.328H15.68V13.328ZM10.364 13.328C10.0468 13.328 9.77337 13.4485 9.56782 13.6198L10.8482 15.1562C10.7386 15.2475 10.5693 15.328 10.364 15.328V13.328ZM9.50089 13.6809C9.24811 13.9337 9.148 14.2528 9.148 14.544H11.148C11.148 14.6167 11.1364 14.7117 11.0963 14.816C11.0553 14.9226 10.9925 15.0177 10.9151 15.0951L9.50089 13.6809ZM9.148 14.544V16.332H11.148V14.544H9.148ZM9.148 16.332C9.148 16.6232 9.24811 16.9423 9.50089 17.1951L10.9151 15.7809C10.9925 15.8583 11.0553 15.9534 11.0963 16.06C11.1364 16.1643 11.148 16.2593 11.148 16.332H9.148ZM9.56782 17.2562C9.77337 17.4275 10.0468 17.548 10.364 17.548V15.548C10.5693 15.548 10.7386 15.6285 10.8482 15.7198L9.56782 17.2562ZM10.364 13.876H15.32V11.876H10.364V13.876ZM15.32 13.876C15.6112 13.876 15.9303 13.7759 16.1831 13.5231L14.7689 12.1089C14.8463 12.0315 14.9414 11.9687 15.048 11.9277C15.1523 11.8876 15.2473 11.876 15.32 11.876V13.876ZM16.2442 13.4562C16.4155 13.2506 16.536 12.9772 16.536 12.66H14.536C14.536 12.4547 14.6165 12.2854 14.7078 12.1758L16.2442 13.4562ZM16.536 12.66V11.028H14.536V12.66H16.536ZM16.536 11.028C16.536 10.7368 16.4359 10.4177 16.1831 10.1649L14.7689 11.5791C14.6915 11.5017 14.6287 11.4066 14.5877 11.3C14.5476 11.1957 14.536 11.1007 14.536 11.028H16.536ZM16.1831 10.1649C15.9303 9.91211 15.6112 9.812 15.32 9.812V11.812C15.2473 11.812 15.1523 11.8004 15.048 11.7603C14.9414 11.7193 14.8463 11.6565 14.7689 11.5791L16.1831 10.1649ZM15.32 9.812H10.364V11.812H15.32V9.812ZM10.364 9.812C10.0468 9.812 9.77337 9.93248 9.56782 10.1038L10.8482 11.6402C10.7386 11.7315 10.5693 11.812 10.364 11.812V9.812ZM9.50089 10.1649C9.24811 10.4177 9.148 10.7368 9.148 11.028H11.148C11.148 11.1007 11.1364 11.1957 11.0963 11.3C11.0553 11.4066 10.9925 11.5017 10.9151 11.5791L9.50089 10.1649ZM9.148 11.028V12.66H11.148V11.028H9.148ZM9.148 12.66C9.148 12.9773 9.26849 13.2506 9.43978 13.4562L10.9762 12.1758C11.0675 12.2854 11.148 12.4547 11.148 12.66H9.148ZM9.56782 13.5842C9.77337 13.7555 10.0468 13.876 10.364 13.876V11.876C10.5693 11.876 10.7386 11.9565 10.8482 12.0478L9.56782 13.5842ZM18.6804 18H17.6804V19H18.6804V18ZM18.6804 9.36V8.36H17.6804V9.36H18.6804ZM26.6124 9.36H27.6124V8.36H26.6124V9.36ZM26.6124 10.812V11.812H27.6124V10.812H26.6124ZM20.1324 10.812V9.812H19.1324V10.812H20.1324ZM20.1324 12.96H19.1324V13.96H20.1324V12.96ZM25.3524 12.96H26.3524V11.96H25.3524V12.96ZM25.3524 14.4V15.4H26.3524V14.4H25.3524ZM20.1324 14.4V13.4H19.1324V14.4H20.1324ZM20.1324 16.548H19.1324V17.548H20.1324V16.548ZM26.6124 16.548H27.6124V15.548H26.6124V16.548ZM26.6124 18V19H27.6124V18H26.6124ZM19.6804 18V9.36H17.6804V18H19.6804ZM18.6804 10.36H26.6124V8.36H18.6804V10.36ZM25.6124 9.36V10.812H27.6124V9.36H25.6124ZM26.6124 9.812H20.1324V11.812H26.6124V9.812ZM19.1324 10.812V12.96H21.1324V10.812H19.1324ZM20.1324 13.96H25.3524V11.96H20.1324V13.96ZM24.3524 12.96V14.4H26.3524V12.96H24.3524ZM25.3524 13.4H20.1324V15.4H25.3524V13.4ZM19.1324 14.4V16.548H21.1324V14.4H19.1324ZM20.1324 17.548H26.6124V15.548H20.1324V17.548ZM25.6124 16.548V18H27.6124V16.548H25.6124ZM26.6124 17H18.6804V19H26.6124V17ZM31.0119 18H30.0119V19H31.0119V18ZM31.0119 10.812H32.0119V9.812H31.0119V10.812ZM27.4119 10.812H26.4119V11.812H27.4119V10.812ZM27.4119 9.36V8.36H26.4119V9.36H27.4119ZM36.0519 9.36H37.0519V8.36H36.0519V9.36ZM36.0519 10.812V11.812H37.0519V10.812H36.0519ZM32.4519 10.812V9.812H31.4519V10.812H32.4519ZM32.4519 18V19H33.4519V18H32.4519ZM32.0119 18V10.812H30.0119V18H32.0119ZM31.0119 9.812H27.4119V11.812H31.0119V9.812ZM28.4119 10.812V9.36H26.4119V10.812H28.4119ZM27.4119 10.36H36.0519V8.36H27.4119V10.36ZM35.0519 9.36V10.812H37.0519V9.36H35.0519ZM36.0519 9.812H32.4519V11.812H36.0519V9.812ZM31.4519 10.812V18H33.4519V10.812H31.4519ZM32.4519 17H31.0119V19H32.4519V17ZM36.9733 18H35.9733V19H36.9733V18ZM37.1893 10.164L36.3246 9.66186L36.3246 9.66186L37.1893 10.164ZM37.7773 9.576L37.2752 8.71121L37.2752 8.71121L37.7773 9.576ZM44.7973 9.576L44.2828 10.4335L44.289 10.4372L44.2952 10.4408L44.7973 9.576ZM45.3853 10.164L44.5206 10.6661L44.5265 10.6764L44.5327 10.6866L45.3853 10.164ZM45.6133 18V19H46.6133V18H45.6133ZM44.1613 18H43.1613V19H44.1613V18ZM44.1613 15.036H45.1613V14.036H44.1613V15.036ZM38.4133 15.036V14.036H37.4133V15.036H38.4133ZM38.4133 18V19H39.4133V18H38.4133ZM38.4133 13.596H37.4133V14.596H38.4133V13.596ZM44.1613 13.596V14.596H45.1613V13.596H44.1613ZM44.0893 10.872L43.3822 11.5791L43.4143 11.6112L43.4492 11.6402L44.0893 10.872ZM38.4733 10.872L37.8332 10.1038L37.7983 10.1328L37.7662 10.1649L38.4733 10.872ZM37.9733 18V10.98H35.9733V18H37.9733ZM37.9733 10.98C37.9733 10.8544 38.0016 10.7566 38.0541 10.6661L36.3246 9.66186C36.0891 10.0674 35.9733 10.5136 35.9733 10.98H37.9733ZM38.0541 10.6661C38.1108 10.5685 38.1818 10.4975 38.2795 10.4408L37.2752 8.71121C36.8769 8.94251 36.5559 9.26351 36.3246 9.66186L38.0541 10.6661ZM38.2795 10.4408C38.3699 10.3883 38.4678 10.36 38.5933 10.36V8.36C38.1269 8.36 37.6808 8.47572 37.2752 8.71121L38.2795 10.4408ZM38.5933 10.36H43.9933V8.36H38.5933V10.36ZM43.9933 10.36C44.119 10.36 44.2073 10.3882 44.2828 10.4335L45.3118 8.71851C44.9074 8.47582 44.4597 8.36 43.9933 8.36V10.36ZM44.2952 10.4408C44.3929 10.4975 44.4639 10.5685 44.5206 10.6661L46.2501 9.66186C46.0188 9.26351 45.6978 8.94251 45.2995 8.71121L44.2952 10.4408ZM44.5327 10.6866C44.5866 10.7744 44.6133 10.865 44.6133 10.98H46.6133C46.6133 10.503 46.4881 10.0496 46.2379 9.64144L44.5327 10.6866ZM44.6133 10.98V18H46.6133V10.98H44.6133ZM45.6133 17H44.1613V19H45.6133V17ZM45.1613 18V15.036H43.1613V18H45.1613ZM44.1613 14.036H38.4133V16.036H44.1613V14.036ZM37.4133 15.036V18H39.4133V15.036H37.4133ZM38.4133 17H36.9733V19H38.4133V17ZM38.4133 14.596H44.1613V12.596H38.4133V14.596ZM45.1613 13.596V11.028H43.1613V13.596H45.1613ZM45.1613 11.028C45.1613 10.6755 45.0118 10.339 44.7295 10.1038L43.4492 11.6402C43.3696 11.5739 43.2911 11.4808 43.2354 11.3601C43.18 11.24 43.1613 11.1236 43.1613 11.028H45.1613ZM44.7965 10.1649C44.5711 9.9395 44.2696 9.812 43.9453 9.812V11.812C43.8516 11.812 43.7457 11.7947 43.6387 11.7501C43.5319 11.7056 43.4464 11.6433 43.3822 11.5791L44.7965 10.1649ZM43.9453 9.812H38.6293V11.812H43.9453V9.812ZM38.6293 9.812C38.3121 9.812 38.0387 9.93248 37.8332 10.1038L39.1135 11.6402C39.004 11.7315 38.8346 11.812 38.6293 11.812V9.812ZM37.7662 10.1649C37.5135 10.4177 37.4133 10.7368 37.4133 11.028H39.4133C39.4133 11.1007 39.4018 11.1957 39.3617 11.3C39.3207 11.4066 39.2578 11.5017 39.1804 11.5791L37.7662 10.1649ZM37.4133 11.028V13.596H39.4133V11.028H37.4133Z" fill="black" mask="url(#path-7-outside-1_2019_38972)"/>
</g>
</g>
<path d="M12 0.5H43C49.3513 0.5 54.5 5.64873 54.5 12V14C54.5 20.3513 49.3513 25.5 43 25.5H12C5.64872 25.5 0.5 20.3513 0.5 14V12C0.5 5.64873 5.64873 0.5 12 0.5Z" stroke="url(#paint2_linear_2019_38972)"/>
<defs>
<filter id="filter0_d_2019_38972" x="1.708" y="2.35999" width="50.9053" height="22.64" filterUnits="userSpaceOnUse" color-interpolation-filters="sRGB">
<feFlood flood-opacity="0" result="BackgroundImageFix"/>
<feColorMatrix in="SourceAlpha" type="matrix" values="0 0 0 0 0 0 0 0 0 0 0 0 0 0 0 0 0 0 127 0" result="hardAlpha"/>
<feOffset/>
<feGaussianBlur stdDeviation="3"/>
<feComposite in2="hardAlpha" operator="out"/>
<feColorMatrix type="matrix" values="0 0 0 0 0 0 0 0 0 0 0 0 0 0 0 0 0 0 1 0"/>
<feBlend mode="normal" in2="BackgroundImageFix" result="effect1_dropShadow_2019_38972"/>
<feBlend mode="normal" in="SourceGraphic" in2="effect1_dropShadow_2019_38972" result="shape"/>
</filter>
<linearGradient id="paint0_linear_2019_38972" x1="27.2049" y1="7" x2="27.2049" y2="33.5017" gradientUnits="userSpaceOnUse">
<stop stop-color="#CCFF00"/>
<stop offset="1" stop-color="#00FFB3"/>
</linearGradient>
<linearGradient id="paint1_linear_2019_38972" x1="27.9462" y1="22.0977" x2="27.9462" y2="-15.5305" gradientUnits="userSpaceOnUse">
<stop stop-color="#CCFF00"/>
<stop offset="1" stop-color="#00FFB3"/>
</linearGradient>
<linearGradient id="paint2_linear_2019_38972" x1="27.5" y1="0" x2="27.5" y2="26" gradientUnits="userSpaceOnUse">
<stop stop-color="#CCFF00"/>
<stop offset="1" stop-color="#00FFB3"/>
</linearGradient>
<clipPath id="clip0_2019_38972">
<path d="M0 12C0 5.37258 5.37258 0 12 0H43C49.6274 0 55 5.37258 55 12V14C55 20.6274 49.6274 26 43 26H12C5.37258 26 0 20.6274 0 14V12Z" fill="white"/>
</clipPath>
</defs>
</svg>
