<svg width="21" height="20" viewBox="0 0 21 20" fill="none" xmlns="http://www.w3.org/2000/svg">
<rect x="0.417969" width="20" height="20" rx="10" fill="#222222"/>
<g clip-path="url(#clip0_2471_92884)">
<g clip-path="url(#clip1_2471_92884)">
<path d="M10.2472 5.79353C9.73676 5.54461 9.40725 5.06466 9.22459 4.53995C9.14937 4.32147 9.09744 4.09761 9.06341 3.86839C9.04909 3.76631 9.04192 3.07684 9.03476 2.97297C9.02939 2.8888 9.03655 2.78852 9.0079 2.70793C8.95238 2.55571 8.63003 2.46617 8.4796 2.51094C8.3632 2.54496 8.3632 2.69539 8.36857 2.7921C8.37931 2.94074 8.37931 3.67677 8.37931 3.8272C8.37931 4.12985 8.37752 4.4325 8.37573 4.73515C8.37573 5.13092 8.37215 5.5267 8.37215 5.92247C8.37215 6.37913 8.36857 6.834 8.36678 7.29067C8.36678 7.77419 8.3632 8.25771 8.36141 8.74124C8.36141 9.21939 8.35782 9.69575 8.35603 10.1739C8.35603 10.6127 8.35245 11.0514 8.35066 11.4902C8.35066 11.8573 8.34887 12.2244 8.34708 12.5915C8.34708 12.8548 8.34529 13.1162 8.34529 13.3795C8.34529 13.5048 8.34529 13.6302 8.34529 13.7556V13.7735C7.70238 13.4547 6.72101 13.512 5.79515 13.9937C4.50933 14.6617 3.82523 15.8902 4.26399 16.7355C4.70453 17.5808 5.81484 17.767 7.10066 17.0973C8.17337 16.5403 8.87717 15.5894 8.87179 14.8032V7.0883C10.4406 7.03995 11.8947 8.93823 11.8947 8.93823C13.3596 11.517 10.985 12.2065 10.985 12.2065C10.8274 12.6936 11.1497 12.5915 11.1497 12.5915C11.9896 12.0847 12.9656 10.4891 12.9656 10.4891C13.9703 8.56925 10.2436 5.79353 10.2436 5.79353H10.2472Z" fill="#00D5A7"/>
</g>
<g clip-path="url(#clip2_2471_92884)">
<path d="M15.9139 5.79353C15.4035 5.54461 15.074 5.06466 14.8913 4.53995C14.8161 4.32147 14.7642 4.09761 14.7302 3.86839C14.7158 3.76631 14.7087 3.07684 14.7015 2.97297C14.6961 2.8888 14.7033 2.78852 14.6746 2.70793C14.6191 2.55571 14.2968 2.46617 14.1463 2.51094C14.0299 2.54496 14.0299 2.69539 14.0353 2.7921C14.0461 2.94074 14.0461 3.67677 14.0461 3.8272C14.0461 4.12985 14.0443 4.4325 14.0425 4.73515C14.0425 5.13092 14.0389 5.5267 14.0389 5.92247C14.0389 6.37913 14.0353 6.834 14.0335 7.29067C14.0335 7.77419 14.0299 8.25771 14.0282 8.74124C14.0282 9.21939 14.0246 9.69575 14.0228 10.1739C14.0228 10.6127 14.0192 11.0514 14.0174 11.4902C14.0174 11.8573 14.0156 12.2244 14.0138 12.5915C14.0138 12.8548 14.012 13.1162 14.012 13.3795C14.012 13.5048 14.012 13.6302 14.012 13.7556V13.7735C13.3691 13.4547 12.3878 13.512 11.4619 13.9937C10.1761 14.6617 9.49198 15.8902 9.93073 16.7355C10.3713 17.5808 11.4816 17.767 12.7674 17.0973C13.8401 16.5403 14.5439 15.5894 14.5385 14.8032V7.0883C16.1073 7.03995 17.5615 8.93823 17.5615 8.93823C19.0264 11.517 16.6517 12.2065 16.6517 12.2065C16.4941 12.6936 16.8165 12.5915 16.8165 12.5915C17.6564 12.0847 18.6324 10.4891 18.6324 10.4891C19.637 8.56925 15.9103 5.79353 15.9103 5.79353H15.9139Z" fill="#00D5A7"/>
</g>
</g>
<defs>
<clipPath id="clip0_2471_92884">
<rect width="15.0824" height="16" fill="white" transform="translate(4.13562 2)"/>
</clipPath>
<clipPath id="clip1_2471_92884">
<rect width="9.41619" height="15" fill="white" transform="translate(4.13562 2.5)"/>
</clipPath>
<clipPath id="clip2_2471_92884">
<rect width="9.41619" height="15" fill="white" transform="translate(9.80164 2.5)"/>
</clipPath>
</defs>
</svg>
