<svg width="21" height="20" viewBox="0 0 21 20" fill="none" xmlns="http://www.w3.org/2000/svg">
<rect x="0.536133" width="20" height="20" rx="10" fill="#222222"/>
<path d="M11.9522 10.1842C11.7608 10.0363 11.4439 9.97467 11.2115 9.96352C11.0895 9.95765 11.0748 9.9823 11.0144 9.89427C10.9586 9.81211 10.9568 9.6161 10.9363 9.51751C10.8841 9.26692 10.8324 9.01692 10.7802 8.76633C11.3313 8.42596 11.7444 7.86844 11.9099 7.24226C12.0754 6.61609 11.9915 5.9277 11.6804 5.35904C11.5813 5.17829 11.4228 4.98932 11.2168 5.00047C11.0625 5.00927 10.9392 5.12899 10.8448 5.25165C10.5466 5.64014 10.3905 6.12489 10.343 6.61257C10.296 7.10025 10.3524 7.59203 10.4469 8.07267C10.4557 8.11844 10.4651 8.16715 10.4498 8.21117C10.4334 8.2587 10.3911 8.29274 10.3512 8.32384C9.77022 8.7722 9.14521 9.22408 8.83829 9.89016C8.65577 10.2857 8.6012 10.7388 8.68453 11.166C8.77021 11.6061 9.012 12.0275 9.39111 12.2675C9.63935 12.4248 9.9316 12.4982 10.2215 12.5439C10.5889 12.6026 10.9692 12.6214 11.3301 12.5316C11.3717 12.7511 11.407 12.9723 11.434 13.1942C11.4557 13.3691 11.4774 13.5475 11.485 13.7247C11.4874 13.7816 11.4833 13.8368 11.4833 13.8931C11.4721 14.0087 11.4269 14.1232 11.3641 14.2206C11.3365 14.264 11.3043 14.3051 11.269 14.3426C11.1617 14.4559 11.0267 14.5404 10.8841 14.6026C10.7825 14.6472 10.6734 14.6742 10.5625 14.6795C10.5067 14.6824 10.451 14.6795 10.3958 14.6701C10.3911 14.6695 10.3864 14.6684 10.3817 14.6678C10.6018 14.5492 10.7532 14.3192 10.7532 14.0516C10.7532 13.6631 10.4386 13.3485 10.0501 13.3485C9.66165 13.3485 9.34709 13.6631 9.34709 14.0516C9.34709 14.1695 9.37878 14.2787 9.42984 14.3761L9.42573 14.3749C9.43571 14.3943 9.44744 14.4107 9.45859 14.4289C9.4627 14.436 9.46681 14.443 9.47092 14.4495C9.83946 15.0316 10.6476 14.9993 10.6476 14.9993C10.7462 15.004 10.8506 14.9829 10.9451 14.9588C11.1564 14.9049 11.3547 14.7986 11.5073 14.6425C11.5801 14.568 11.6423 14.4829 11.6928 14.3914C11.7344 14.3162 11.7708 14.2382 11.7902 14.1543C11.8172 14.0381 11.8084 13.9189 11.7972 13.8016C11.7714 13.5287 11.7203 13.2587 11.6669 12.9894C11.654 12.9254 11.6417 12.862 11.6288 12.798C11.6059 12.6842 11.583 12.5703 11.5607 12.4565C11.5595 12.4506 11.5584 12.4448 11.5572 12.4395C11.5572 12.4395 12.2338 12.2423 12.3747 11.6501C12.3747 11.6501 12.6423 10.72 11.9516 10.1842H11.9522ZM10.7397 5.9635C11.0155 5.59144 11.6118 5.75634 11.6546 6.21761C11.6546 6.21761 11.7385 6.879 11.1628 7.53393C11.0695 7.66128 10.87 7.85612 10.6382 8.06504L10.5689 7.7364C10.5642 7.71234 10.5607 7.65072 10.5566 7.62666C10.4956 7.23229 10.485 6.66714 10.522 6.44825C10.5713 6.15775 10.7397 5.9635 10.7397 5.9635ZM9.62291 12.0187C9.33477 11.7746 9.12526 11.423 9.10765 11.0457C9.08711 10.6126 9.31364 10.2047 9.58536 9.86669C9.86118 9.52338 10.191 9.22291 10.5595 8.98054C10.6229 9.25401 10.6857 9.52749 10.7491 9.80096C10.7626 9.85847 10.7755 9.92127 10.7503 9.97467C10.7233 10.0334 10.6599 10.0639 10.6036 10.095C10.1881 10.3215 9.93336 10.7757 9.92515 11.2446C9.92221 11.4219 9.94862 11.605 10.0431 11.7546C10.1376 11.9043 10.3101 12.0134 10.4862 11.9946C10.4105 12.0028 10.2896 11.676 10.2726 11.6202C10.2256 11.4653 10.2162 11.298 10.2456 11.1384C10.3084 10.8004 10.5648 10.568 10.9105 10.5357C11.0349 11.0962 11.1793 11.7617 11.296 12.345C11.296 12.3479 11.2972 12.3509 11.2978 12.3538C10.7315 12.534 10.0766 12.4031 9.6235 12.0187H9.62291ZM11.512 12.2482L11.4633 11.9929C11.4621 11.9858 11.4621 11.9788 11.461 11.9717L11.1564 10.5275C11.35 10.5381 11.8917 10.6325 12.0325 11.3579C12.0325 11.3579 12.1534 11.9037 11.512 12.2482Z" fill="#5A9BF6"/>
</svg>
