<svg width="21" height="20" viewBox="0 0 21 20" fill="none" xmlns="http://www.w3.org/2000/svg">
<rect x="0.118164" width="20" height="20" rx="10" fill="#222222"/>
<g clip-path="url(#clip0_2471_92801)">
<g clip-path="url(#clip1_2471_92801)">
<path d="M9.16566 7.19555C8.82541 7.02959 8.60573 6.70963 8.48395 6.35982C8.43381 6.21417 8.39919 6.06493 8.3765 5.91212C8.36695 5.84406 8.36218 5.38442 8.3574 5.31517C8.35382 5.25906 8.35859 5.1922 8.33949 5.13848C8.30248 5.037 8.08758 4.9773 7.9873 5.00715C7.90969 5.02983 7.90969 5.13012 7.91327 5.19459C7.92044 5.29368 7.92044 5.78437 7.92044 5.88466C7.92044 6.08642 7.91924 6.28819 7.91805 6.48996C7.91805 6.75381 7.91566 7.01766 7.91566 7.28151C7.91566 7.58595 7.91327 7.88919 7.91208 8.19364C7.91208 8.51598 7.90969 8.83833 7.9085 9.16068C7.9085 9.47945 7.90611 9.79703 7.90492 10.1158C7.90492 10.4083 7.90253 10.7008 7.90134 10.9933C7.90134 11.238 7.90014 11.4828 7.89895 11.7275C7.89895 11.903 7.89775 12.0774 7.89775 12.2529C7.89775 12.3364 7.89775 12.42 7.89775 12.5036V12.5155C7.46915 12.303 6.8149 12.3412 6.19766 12.6624C5.34045 13.1077 4.88438 13.9267 5.17689 14.4902C5.47058 15.0537 6.21079 15.1779 7.068 14.7314C7.78314 14.3601 8.25234 13.7261 8.24876 13.202V8.05873C9.2946 8.02649 10.264 9.29201 10.264 9.29201C11.2406 11.0112 9.65754 11.4709 9.65754 11.4709C9.55248 11.7956 9.76738 11.7275 9.76738 11.7275C10.3273 11.3897 10.978 10.3259 10.978 10.3259C11.6478 9.04603 9.16328 7.19555 9.16328 7.19555H9.16566Z" fill="#00D5A7"/>
</g>
<g clip-path="url(#clip2_2471_92801)">
<path d="M12.943 7.19555C12.6027 7.02959 12.3831 6.70963 12.2613 6.35982C12.2112 6.21417 12.1765 6.06493 12.1538 5.91212C12.1443 5.84406 12.1395 5.38442 12.1347 5.31517C12.1312 5.25906 12.1359 5.1922 12.1168 5.13848C12.0798 5.037 11.8649 4.9773 11.7646 5.00715C11.687 5.02983 11.687 5.13012 11.6906 5.19459C11.6978 5.29368 11.6978 5.78437 11.6978 5.88466C11.6978 6.08642 11.6966 6.28819 11.6954 6.48996C11.6954 6.75381 11.693 7.01766 11.693 7.28151C11.693 7.58595 11.6906 7.88919 11.6894 8.19364C11.6894 8.51598 11.687 8.83833 11.6858 9.16068C11.6858 9.47945 11.6835 9.79703 11.6823 10.1158C11.6823 10.4083 11.6799 10.7008 11.6787 10.9933C11.6787 11.238 11.6775 11.4828 11.6763 11.7275C11.6763 11.903 11.6751 12.0774 11.6751 12.2529C11.6751 12.3364 11.6751 12.42 11.6751 12.5036V12.5155C11.2465 12.303 10.5922 12.3412 9.975 12.6624C9.11779 13.1077 8.66173 13.9267 8.95423 14.4902C9.24793 15.0537 9.98814 15.1779 10.8453 14.7314C11.5605 14.3601 12.0297 13.7261 12.0261 13.202V8.05873C13.0719 8.02649 14.0414 9.29201 14.0414 9.29201C15.018 11.0112 13.4349 11.4709 13.4349 11.4709C13.3298 11.7956 13.5447 11.7275 13.5447 11.7275C14.1047 11.3897 14.7553 10.3259 14.7553 10.3259C15.4251 9.04603 12.9406 7.19555 12.9406 7.19555H12.943Z" fill="#00D5A7"/>
</g>
</g>
<defs>
<clipPath id="clip0_2471_92801">
<rect width="10" height="10" fill="white" transform="translate(5.11816 5)"/>
</clipPath>
<clipPath id="clip1_2471_92801">
<rect width="6.27746" height="10" fill="white" transform="translate(5.09082 5)"/>
</clipPath>
<clipPath id="clip2_2471_92801">
<rect width="6.27746" height="10" fill="white" transform="translate(8.86816 5)"/>
</clipPath>
</defs>
</svg>
