<svg width="21" height="20" viewBox="0 0 21 20" fill="none" xmlns="http://www.w3.org/2000/svg">
<rect x="0.90918" width="20" height="20" rx="10" fill="#222222"/>
<g clip-path="url(#clip0_2471_92797)">
<path d="M11.8473 7.19487C11.507 7.02892 11.2874 6.70896 11.1656 6.35915C11.1155 6.2135 11.0808 6.06426 11.0581 5.91144C11.0486 5.84339 11.0438 5.38375 11.039 5.3145C11.0355 5.25839 11.0402 5.19153 11.0211 5.13781C10.9841 5.03633 10.7692 4.97663 10.6689 5.00648C10.5913 5.02916 10.5913 5.12945 10.5949 5.19392C10.6021 5.29301 10.6021 5.7837 10.6021 5.88399C10.6021 6.08575 10.6009 6.28752 10.5997 6.48929C10.5997 6.75314 10.5973 7.01698 10.5973 7.28083C10.5973 7.58528 10.5949 7.88852 10.5937 8.19296C10.5937 8.51531 10.5913 8.83766 10.5901 9.16001C10.5901 9.47878 10.5878 9.79635 10.5866 10.1151C10.5866 10.4076 10.5842 10.7001 10.583 10.9926C10.583 11.2374 10.5818 11.4821 10.5806 11.7269C10.5806 11.9024 10.5794 12.0767 10.5794 12.2522C10.5794 12.3358 10.5794 12.4193 10.5794 12.5029V12.5148C10.1508 12.3023 9.49654 12.3405 8.8793 12.6617C8.02209 13.107 7.56602 13.926 7.85853 14.4895C8.15222 15.053 8.89243 15.1772 9.74964 14.7307C10.4648 14.3594 10.934 13.7254 10.9304 13.2013V8.05805C11.9762 8.02582 12.9457 9.29134 12.9457 9.29134C13.9223 11.0105 12.3392 12.7226 12.3392 12.7226C12.2341 13.0473 12.449 12.9793 12.449 12.9793C13.009 12.6414 13.6596 11.5776 13.6596 11.5776C15.1568 9.07644 11.8449 7.19487 11.8449 7.19487H11.8473Z" fill="#B89334"/>
</g>
<defs>
<clipPath id="clip0_2471_92797">
<rect width="10" height="10.0024" fill="white" transform="translate(5.90918 4.99878)"/>
</clipPath>
</defs>
</svg>
