<svg width="21" height="20" viewBox="0 0 21 20" fill="none" xmlns="http://www.w3.org/2000/svg">
<rect x="0.835938" width="20" height="20" rx="10" fill="#222222"/>
<path d="M12.9601 10.2763C12.6731 10.0544 12.1978 9.96201 11.8492 9.94528C11.6661 9.93648 11.6441 9.97345 11.5534 9.84141C11.4698 9.71817 11.4671 9.42415 11.4363 9.27626C11.358 8.90038 11.2805 8.52538 11.2022 8.1495C12.0287 7.63893 12.6485 6.80266 12.8967 5.8634C13.1449 4.92413 13.0191 3.89156 12.5525 3.03856C12.4037 2.76743 12.1661 2.48398 11.8571 2.50071C11.6256 2.51391 11.4407 2.69349 11.299 2.87747C10.8518 3.46022 10.6176 4.18733 10.5463 4.91885C10.4759 5.65037 10.5604 6.38805 10.7022 7.109C10.7154 7.17766 10.7294 7.25073 10.7066 7.31675C10.6819 7.38805 10.6185 7.43911 10.5587 7.48576C9.68718 8.1583 8.74968 8.83612 8.28929 9.83525C8.01552 10.4286 7.93366 11.1081 8.05866 11.749C8.18718 12.4092 8.54986 13.0412 9.11852 13.4013C9.49088 13.6372 9.92926 13.7472 10.3641 13.8159C10.9152 13.9039 11.4856 13.9321 12.027 13.7974C12.0895 14.1266 12.1423 14.4585 12.1828 14.7913C12.2154 15.0536 12.2479 15.3212 12.2594 15.587C12.2629 15.6724 12.2567 15.7552 12.2567 15.8397C12.24 16.0131 12.1722 16.1847 12.078 16.3309C12.0367 16.396 11.9883 16.4576 11.9354 16.514C11.7743 16.6839 11.5719 16.8106 11.358 16.9039C11.2057 16.9708 11.0419 17.0113 10.8756 17.0193C10.7919 17.0237 10.7083 17.0193 10.6256 17.0052C10.6185 17.0043 10.6115 17.0025 10.6044 17.0016C10.9345 16.8238 11.1617 16.4788 11.1617 16.0773C11.1617 15.4946 10.6898 15.0228 10.1071 15.0228C9.52433 15.0228 9.0525 15.4946 9.0525 16.0773C9.0525 16.2543 9.10003 16.418 9.17662 16.5641L9.17046 16.5624C9.18542 16.5914 9.20303 16.6161 9.21975 16.6434C9.22591 16.6539 9.23208 16.6645 9.23824 16.6742C9.79106 17.5474 11.0032 17.499 11.0032 17.499C11.1511 17.5061 11.3078 17.4744 11.4495 17.4383C11.7664 17.3573 12.064 17.198 12.2928 16.9638C12.402 16.852 12.4953 16.7244 12.571 16.587C12.6335 16.4744 12.6881 16.3573 12.7171 16.2314C12.7576 16.0571 12.7444 15.8784 12.7277 15.7023C12.689 15.293 12.6124 14.8881 12.5323 14.484C12.5129 14.3881 12.4944 14.293 12.475 14.1971C12.4407 14.0263 12.4064 13.8555 12.3729 13.6847C12.3712 13.6759 12.3694 13.6671 12.3677 13.6592C12.3677 13.6592 13.3826 13.3634 13.5939 12.4752C13.5939 12.4752 13.9953 11.08 12.9592 10.2763H12.9601ZM11.1414 3.94525C11.5551 3.38715 12.4495 3.63451 12.5138 4.32642C12.5138 4.32642 12.6397 5.3185 11.7761 6.3009C11.6361 6.49192 11.3368 6.78418 10.9891 7.09756L10.8853 6.6046C10.8782 6.56851 10.8729 6.47608 10.8668 6.43998C10.7752 5.84843 10.7594 5.00072 10.8148 4.67237C10.8888 4.23663 11.1414 3.94525 11.1414 3.94525ZM9.46623 13.028C9.03401 12.6618 8.71975 12.1346 8.69334 11.5685C8.66253 10.9189 9.00232 10.3071 9.40989 9.80003C9.82363 9.28507 10.3183 8.83436 10.8712 8.4708C10.9662 8.88102 11.0604 9.29123 11.1555 9.70144C11.1757 9.78771 11.1951 9.8819 11.1573 9.96201C11.1168 10.05 11.0217 10.0958 10.9372 10.1425C10.3139 10.4823 9.9319 11.1636 9.91958 11.8669C9.91518 12.1328 9.95479 12.4074 10.0965 12.6319C10.2382 12.8564 10.497 13.0201 10.7611 12.9919C10.6476 13.0043 10.4662 12.514 10.4407 12.4303C10.3703 12.1979 10.3562 11.9471 10.4002 11.7076C10.4944 11.2006 10.8791 10.852 11.3976 10.8036C11.5842 11.6442 11.8007 12.6425 11.9759 13.5175C11.9759 13.5219 11.9777 13.5263 11.9786 13.5307C11.1291 13.8009 10.1467 13.6046 9.46711 13.028H9.46623ZM12.2999 13.3722L12.2268 12.9893C12.225 12.9787 12.225 12.9682 12.2233 12.9576L11.7664 10.7912C12.0569 10.8071 12.8694 10.9488 13.0807 12.0368C13.0807 12.0368 13.262 12.8555 12.2999 13.3722Z" fill="#5A9BF6"/>
</svg>
