<svg width="21" height="20" viewBox="0 0 21 20" fill="none" xmlns="http://www.w3.org/2000/svg">
<rect x="0.208984" width="20" height="20" rx="10" fill="#222222"/>
<path d="M11.6159 5.79336C11.1057 5.54449 10.7762 5.06466 10.5936 4.54007C10.5184 4.32164 10.4665 4.09784 10.4325 3.86867C10.4182 3.76662 10.411 3.07731 10.4038 2.97347C10.3985 2.88932 10.4056 2.78906 10.377 2.70849C10.3215 2.55631 9.9992 2.46679 9.84881 2.51155C9.73243 2.54556 9.73243 2.69596 9.7378 2.79264C9.74854 2.94124 9.74854 3.6771 9.74854 3.82749C9.74854 4.13007 9.74675 4.43265 9.74496 4.73523C9.74496 5.13091 9.74138 5.52659 9.74138 5.92227C9.74138 6.37882 9.7378 6.83358 9.73601 7.29014C9.73601 7.77354 9.73243 8.25695 9.73064 8.74036C9.73064 9.2184 9.72706 9.69465 9.72527 10.1727C9.72527 10.6113 9.72169 11.05 9.7199 11.4886C9.7199 11.8557 9.71811 12.2227 9.71632 12.5897C9.71632 12.8529 9.71453 13.1143 9.71453 13.3775C9.71453 13.5028 9.71453 13.6282 9.71453 13.7535V13.7714C9.07177 13.4527 8.09063 13.51 7.16499 13.9916C5.87948 14.6594 5.19554 15.8877 5.63419 16.7327C6.07463 17.5778 7.18468 17.764 8.47019 17.0944C9.54265 16.5376 10.2463 15.5869 10.2409 14.8009V7.08782C11.8093 7.03948 13.2631 8.93731 13.2631 8.93731C14.7277 11.5155 12.3536 14.0829 12.3536 14.0829C12.196 14.5699 12.5183 14.4679 12.5183 14.4679C13.358 13.9612 14.3338 12.3659 14.3338 12.3659C16.5789 8.61503 11.6124 5.79336 11.6124 5.79336H11.6159Z" fill="#B89334"/>
</svg>
