<svg width="21" height="20" viewBox="0 0 21 20" fill="none" xmlns="http://www.w3.org/2000/svg">
<rect x="0.327148" width="20" height="20" rx="10" fill="#222222"/>
<path d="M14.0163 5.06231V5.06763L8.79382 6.13148C8.75339 6.14 8.72361 6.17617 8.72361 6.21766V12.7997C8.34168 12.6104 7.75869 12.6444 7.20868 12.9306C6.44483 13.3274 6.03844 14.0572 6.29908 14.5593C6.56079 15.0615 7.3906 15.1477 8.15444 14.7498C8.79169 14.4189 9.20979 13.854 9.2066 13.387V7.56662C9.2066 7.53045 9.23213 7.49854 9.2683 7.49109L13.9227 6.54639C13.9705 6.53681 14.0152 6.57298 14.0152 6.62192V11.4763C13.6333 11.2869 13.0503 11.321 12.5003 11.6071C11.7364 12.004 11.33 12.7338 11.5907 13.2359C11.8524 13.738 12.6822 13.8242 13.4461 13.4263C14.0833 13.0955 14.4705 12.5327 14.4301 12.0635H14.4344V5.08784C14.4344 5.03252 14.3844 4.99103 14.3301 5.00167L14.0152 5.06231H14.0163Z" fill="#DF454D"/>
</svg>
