<svg width="21" height="20" viewBox="0 0 21 20" fill="none" xmlns="http://www.w3.org/2000/svg">
<rect x="0.626953" width="20" height="20" rx="10" fill="#222222"/>
<path d="M15.6604 2.59347V2.60145L7.82672 4.19723C7.76608 4.20999 7.7214 4.26425 7.7214 4.32649V14.1996C7.14851 13.9155 6.27402 13.9666 5.449 14.3959C4.30323 14.9911 3.69364 16.0858 4.08461 16.839C4.47717 17.5922 5.72188 17.7215 6.86765 17.1247C7.82352 16.6284 8.45067 15.781 8.44588 15.0805V6.34994C8.44588 6.29568 8.48418 6.24781 8.53843 6.23664L15.52 4.81958C15.5918 4.80522 15.6588 4.85948 15.6588 4.93288V12.2144C15.0859 11.9304 14.2114 11.9814 13.3864 12.4107C12.2406 13.0059 11.6311 14.1006 12.022 14.8539C12.4146 15.6071 13.6593 15.7363 14.8051 15.1395C15.7609 14.6432 16.3418 13.799 16.2812 13.0953H16.2875V2.63177C16.2875 2.54878 16.2125 2.48655 16.1312 2.50251L15.6588 2.59347H15.6604Z" fill="#DF454D"/>
</svg>
