<svg width="21" height="20" viewBox="0 0 21 20" fill="none" xmlns="http://www.w3.org/2000/svg">
<rect x="0.5" width="20" height="20" rx="10" fill="#222222"/>
<path d="M14.1653 7L15.0991 9.03126L17.3197 9.29166L15.6761 10.8075L16.1148 13L14.1653 11.9052L12.2158 13L12.6542 10.8075L11.0109 9.29166L13.2315 9.03126L14.1653 7Z" fill="url(#paint0_linear_2778_135167)"/>
<path d="M14.1654 7.63074L13.4184 9.25574L11.6419 9.46406L12.9568 10.6767L12.6058 12.4307L14.1654 11.5549L15.725 12.4307L15.3743 10.6767L16.689 9.46406L14.9125 9.25574L14.1654 7.63074Z" fill="url(#paint1_linear_2778_135167)" fill-opacity="0.8" style="mix-blend-mode:lighten"/>
<g opacity="0.4">
<mask id="mask0_2778_135167" style="mask-type:alpha" maskUnits="userSpaceOnUse" x="11" y="7" width="6" height="6">
<path d="M14.1653 7.63074L14.9123 9.25574L16.6888 9.46406L15.3739 10.6767L15.7248 12.4307L14.1653 11.5549L12.6057 12.4307L12.9564 10.6767L11.6417 9.46406L13.4182 9.25574L14.1653 7.63074Z" fill="url(#paint2_linear_2778_135167)"/>
</mask>
<g mask="url(#mask0_2778_135167)">
<rect x="13.4697" y="8.51501" width="3.2055" height="0.626799" transform="rotate(35.9347 13.4697 8.51501)" fill="white" style="mix-blend-mode:overlay"/>
<rect x="11.9041" y="8.81104" width="5.30361" height="0.30727" transform="rotate(35.9347 11.9041 8.81104)" fill="white" style="mix-blend-mode:overlay"/>
<rect x="11.6417" y="9.14258" width="5.30361" height="0.147896" transform="rotate(35.9347 11.6417 9.14258)" fill="white" style="mix-blend-mode:overlay"/>
</g>
</g>
<path d="M6.83461 7L7.76843 9.03126L9.98905 9.29166L8.34539 10.8075L8.78408 13L6.83461 11.9052L4.88515 13L5.32354 10.8075L3.68018 9.29166L5.9008 9.03126L6.83461 7Z" fill="url(#paint3_linear_2778_135167)"/>
<path d="M6.83473 7.63074L6.08767 9.25574L4.31118 9.46406L5.62611 10.6767L5.27516 12.4307L6.83473 11.5549L8.3943 12.4307L8.04358 10.6767L9.35828 9.46406L7.58178 9.25574L6.83473 7.63074Z" fill="url(#paint4_linear_2778_135167)" fill-opacity="0.8" style="mix-blend-mode:lighten"/>
<g opacity="0.4">
<mask id="mask1_2778_135167" style="mask-type:alpha" maskUnits="userSpaceOnUse" x="4" y="7" width="6" height="6">
<path d="M6.83471 7.63074L7.58176 9.25574L9.35826 9.46406L8.04333 10.6767L8.39428 12.4307L6.83471 11.5549L5.27514 12.4307L5.62585 10.6767L4.31116 9.46406L6.08765 9.25574L6.83471 7.63074Z" fill="url(#paint5_linear_2778_135167)"/>
</mask>
<g mask="url(#mask1_2778_135167)">
<rect x="6.13904" y="8.51501" width="3.2055" height="0.626799" transform="rotate(35.9347 6.13904 8.51501)" fill="white" style="mix-blend-mode:overlay"/>
<rect x="4.57336" y="8.81104" width="5.30361" height="0.30727" transform="rotate(35.9347 4.57336 8.81104)" fill="white" style="mix-blend-mode:overlay"/>
<rect x="4.31116" y="9.14258" width="5.30361" height="0.147896" transform="rotate(35.9347 4.31116 9.14258)" fill="white" style="mix-blend-mode:overlay"/>
</g>
</g>
<defs>
<linearGradient id="paint0_linear_2778_135167" x1="16.2276" y1="7.58023" x2="12.0245" y2="13" gradientUnits="userSpaceOnUse">
<stop stop-color="#A39F2B"/>
<stop offset="0.336538" stop-color="#FFF700"/>
<stop offset="0.822115" stop-color="#997500"/>
</linearGradient>
<linearGradient id="paint1_linear_2778_135167" x1="16.2019" y1="12.7834" x2="12.5768" y2="8.10903" gradientUnits="userSpaceOnUse">
<stop stop-color="#A39F2B"/>
<stop offset="0.336538" stop-color="#FFF700"/>
<stop offset="1" stop-color="#997500"/>
</linearGradient>
<linearGradient id="paint2_linear_2778_135167" x1="16.0467" y1="8.27055" x2="12.5308" y2="12.4307" gradientUnits="userSpaceOnUse">
<stop stop-color="#7E7E7E"/>
<stop offset="0.39747" stop-color="#F3F3F3"/>
<stop offset="1" stop-color="#5C5C5C"/>
</linearGradient>
<linearGradient id="paint3_linear_2778_135167" x1="8.8969" y1="7.58023" x2="4.69379" y2="13" gradientUnits="userSpaceOnUse">
<stop stop-color="#A39F2B"/>
<stop offset="0.336538" stop-color="#FFF700"/>
<stop offset="0.822115" stop-color="#997500"/>
</linearGradient>
<linearGradient id="paint4_linear_2778_135167" x1="8.87116" y1="12.7834" x2="5.24614" y2="8.10903" gradientUnits="userSpaceOnUse">
<stop stop-color="#A39F2B"/>
<stop offset="0.336538" stop-color="#FFF700"/>
<stop offset="1" stop-color="#997500"/>
</linearGradient>
<linearGradient id="paint5_linear_2778_135167" x1="8.71613" y1="8.27055" x2="5.20028" y2="12.4307" gradientUnits="userSpaceOnUse">
<stop stop-color="#7E7E7E"/>
<stop offset="0.39747" stop-color="#F3F3F3"/>
<stop offset="1" stop-color="#5C5C5C"/>
</linearGradient>
</defs>
</svg>
