<svg width="21" height="20" viewBox="0 0 21 20" fill="none" xmlns="http://www.w3.org/2000/svg">
<rect x="0.5" width="20" height="20" rx="10" fill="#222222"/>
<path d="M10.5 10.7213L11.4338 12.7526L13.6545 13.013L12.0108 14.5288L12.4495 16.7213L10.5 15.6265L8.55056 16.7213L8.98895 14.5288L7.34558 13.013L9.5662 12.7526L10.5 10.7213Z" fill="url(#paint0_linear_2778_135186)"/>
<path d="M10.5 11.3213L11.247 12.9463L13.0235 13.1546L11.7086 14.3673L12.0596 16.1213L10.5 15.2455L8.94042 16.1213L9.29113 14.3673L7.97644 13.1546L9.75294 12.9463L10.5 11.3213Z" fill="url(#paint1_linear_2778_135186)" fill-opacity="0.8" style="mix-blend-mode:overlay"/>
<g opacity="0.4">
<mask id="mask0_2778_135186" style="mask-type:alpha" maskUnits="userSpaceOnUse" x="7" y="11" width="7" height="6">
<path d="M10.5 11.3213L11.247 12.9463L13.0235 13.1546L11.7086 14.3673L12.0596 16.1213L10.5 15.2455L8.94042 16.1213L9.29113 14.3673L7.97644 13.1546L9.75294 12.9463L10.5 11.3213Z" fill="url(#paint2_linear_2778_135186)"/>
</mask>
<g mask="url(#mask0_2778_135186)">
<rect x="9.80432" y="12.2056" width="3.2055" height="0.626799" transform="rotate(35.9347 9.80432 12.2056)" fill="white" style="mix-blend-mode:overlay"/>
<rect x="8.23877" y="12.5016" width="5.30361" height="0.30727" transform="rotate(35.9347 8.23877 12.5016)" fill="white" style="mix-blend-mode:overlay"/>
<rect x="7.97644" y="12.833" width="5.30361" height="0.147896" transform="rotate(35.9347 7.97644 12.833)" fill="white" style="mix-blend-mode:overlay"/>
</g>
</g>
<path d="M6.83469 3.62488L7.76849 5.6561L9.98908 5.9165L8.34544 7.43231L8.78412 9.62479L6.83469 8.53004L4.88526 9.62479L5.32364 7.43231L3.6803 5.9165L5.90088 5.6561L6.83469 3.62488Z" fill="url(#paint3_linear_2778_135186)"/>
<path d="M6.83467 4.22485L7.58171 5.84983L9.35818 6.05815L8.04327 7.2708L8.39422 9.02478L6.83467 8.14898L5.27512 9.02478L5.62583 7.2708L4.31116 6.05815L6.08763 5.84983L6.83467 4.22485Z" fill="url(#paint4_linear_2778_135186)" fill-opacity="0.8" style="mix-blend-mode:overlay"/>
<g opacity="0.4">
<mask id="mask1_2778_135186" style="mask-type:alpha" maskUnits="userSpaceOnUse" x="4" y="4" width="6" height="6">
<path d="M6.83467 4.22485L7.58171 5.84983L9.35818 6.05815L8.04327 7.2708L8.39422 9.02478L6.83467 8.14898L5.27512 9.02478L5.62583 7.2708L4.31116 6.05815L6.08763 5.84983L6.83467 4.22485Z" fill="url(#paint5_linear_2778_135186)"/>
</mask>
<g mask="url(#mask1_2778_135186)">
<rect x="6.13916" y="5.10913" width="3.20545" height="0.626789" transform="rotate(35.9347 6.13916 5.10913)" fill="white" style="mix-blend-mode:overlay"/>
<rect x="4.57349" y="5.40515" width="5.30353" height="0.307266" transform="rotate(35.9347 4.57349 5.40515)" fill="white" style="mix-blend-mode:overlay"/>
<rect x="4.31116" y="5.73657" width="5.30353" height="0.147894" transform="rotate(35.9347 4.31116 5.73657)" fill="white" style="mix-blend-mode:overlay"/>
</g>
</g>
<path d="M14.1653 3.62488L15.0991 5.6561L17.3196 5.9165L15.676 7.43231L16.1147 9.62479L14.1653 8.53004L12.2158 9.62479L12.6542 7.43231L11.0109 5.9165L13.2315 5.6561L14.1653 3.62488Z" fill="url(#paint6_linear_2778_135186)"/>
<path d="M14.1652 4.22473L14.9123 5.84971L16.6887 6.05803L15.3738 7.27067L15.7248 9.02466L14.1652 8.14886L12.6057 9.02466L12.9564 7.27067L11.6417 6.05803L13.4182 5.84971L14.1652 4.22473Z" fill="url(#paint7_linear_2778_135186)" fill-opacity="0.8" style="mix-blend-mode:overlay"/>
<g opacity="0.4">
<mask id="mask2_2778_135186" style="mask-type:alpha" maskUnits="userSpaceOnUse" x="11" y="4" width="6" height="6">
<path d="M14.1652 4.22473L14.9123 5.84971L16.6887 6.05803L15.3738 7.27067L15.7248 9.02466L14.1652 8.14886L12.6057 9.02466L12.9564 7.27067L11.6417 6.05803L13.4182 5.84971L14.1652 4.22473Z" fill="url(#paint8_linear_2778_135186)"/>
</mask>
<g mask="url(#mask2_2778_135186)">
<rect x="13.4696" y="5.10901" width="3.20545" height="0.626789" transform="rotate(35.9347 13.4696 5.10901)" fill="white" style="mix-blend-mode:overlay"/>
<rect x="11.9041" y="5.40503" width="5.30353" height="0.307266" transform="rotate(35.9347 11.9041 5.40503)" fill="white" style="mix-blend-mode:overlay"/>
<rect x="11.6417" y="5.73645" width="5.30353" height="0.147894" transform="rotate(35.9347 11.6417 5.73645)" fill="white" style="mix-blend-mode:overlay"/>
</g>
</g>
<defs>
<linearGradient id="paint0_linear_2778_135186" x1="12.6254" y1="11.4841" x2="8.48988" y2="16.7213" gradientUnits="userSpaceOnUse">
<stop stop-color="#009B7A"/>
<stop offset="0.360577" stop-color="#26FFD0"/>
<stop offset="0.841346" stop-color="#00624D"/>
</linearGradient>
<linearGradient id="paint1_linear_2778_135186" x1="12.4133" y1="15.511" x2="8.5867" y2="12.4792" gradientUnits="userSpaceOnUse">
<stop stop-color="#009B7A"/>
<stop offset="0.360577" stop-color="#26FFD0"/>
<stop offset="1" stop-color="#084236"/>
</linearGradient>
<linearGradient id="paint2_linear_2778_135186" x1="12.3814" y1="11.9611" x2="8.86556" y2="16.1213" gradientUnits="userSpaceOnUse">
<stop stop-color="#7E7E7E"/>
<stop offset="0.39747" stop-color="#F3F3F3"/>
<stop offset="1" stop-color="#5C5C5C"/>
</linearGradient>
<linearGradient id="paint3_linear_2778_135186" x1="8.96007" y1="4.3877" x2="4.82458" y2="9.62479" gradientUnits="userSpaceOnUse">
<stop stop-color="#009B7A"/>
<stop offset="0.360577" stop-color="#26FFD0"/>
<stop offset="0.841346" stop-color="#00624D"/>
</linearGradient>
<linearGradient id="paint4_linear_2778_135186" x1="8.74793" y1="8.41453" x2="4.92141" y2="5.38272" gradientUnits="userSpaceOnUse">
<stop stop-color="#009B7A"/>
<stop offset="0.360577" stop-color="#26FFD0"/>
<stop offset="1" stop-color="#084236"/>
</linearGradient>
<linearGradient id="paint5_linear_2778_135186" x1="8.71606" y1="4.86465" x2="5.20026" y2="9.02478" gradientUnits="userSpaceOnUse">
<stop stop-color="#7E7E7E"/>
<stop offset="0.39747" stop-color="#F3F3F3"/>
<stop offset="1" stop-color="#5C5C5C"/>
</linearGradient>
<linearGradient id="paint6_linear_2778_135186" x1="16.2906" y1="4.3877" x2="12.1551" y2="9.62479" gradientUnits="userSpaceOnUse">
<stop stop-color="#009B7A"/>
<stop offset="0.360577" stop-color="#26FFD0"/>
<stop offset="0.841346" stop-color="#00624D"/>
</linearGradient>
<linearGradient id="paint7_linear_2778_135186" x1="16.0785" y1="8.4144" x2="12.252" y2="5.3826" gradientUnits="userSpaceOnUse">
<stop stop-color="#009B7A"/>
<stop offset="0.360577" stop-color="#26FFD0"/>
<stop offset="1" stop-color="#084236"/>
</linearGradient>
<linearGradient id="paint8_linear_2778_135186" x1="16.0466" y1="4.86453" x2="12.5308" y2="9.02466" gradientUnits="userSpaceOnUse">
<stop stop-color="#7E7E7E"/>
<stop offset="0.39747" stop-color="#F3F3F3"/>
<stop offset="1" stop-color="#5C5C5C"/>
</linearGradient>
</defs>
</svg>
