<svg width="20" height="20" viewBox="0 0 20 20" fill="none" xmlns="http://www.w3.org/2000/svg">
<rect width="20" height="20" rx="10" fill="#222222"/>
<mask id="mask0_2550_171246" style="mask-type:alpha" maskUnits="userSpaceOnUse" x="5" y="5" width="10" height="10">
<rect x="5" y="5" width="10" height="10" fill="#6D6B6B"/>
</mask>
<g mask="url(#mask0_2550_171246)">
<path d="M12.6316 14.2106C12.2632 14.2106 11.9518 14.0834 11.6974 13.829C11.443 13.5746 11.3158 13.2632 11.3158 12.8948C11.3158 12.5264 11.443 12.215 11.6974 11.9606C11.9518 11.7062 12.2632 11.579 12.6316 11.579C12.7018 11.579 12.7807 11.5856 12.8684 11.5988C12.9561 11.6119 13.0526 11.6404 13.1579 11.6843V8.94745H15V10.0001H13.9474V12.8948C13.9474 13.2632 13.8202 13.5746 13.5658 13.829C13.3114 14.0834 13 14.2106 12.6316 14.2106ZM9.21053 10.0001C8.63158 10.0001 8.13597 9.79394 7.72368 9.38166C7.3114 8.96938 7.10526 8.47376 7.10526 7.89481C7.10526 7.31587 7.3114 6.82025 7.72368 6.40797C8.13597 5.99569 8.63158 5.78955 9.21053 5.78955C9.78947 5.78955 10.2851 5.99569 10.6974 6.40797C11.1096 6.82025 11.3158 7.31587 11.3158 7.89481C11.3158 8.47376 11.1096 8.96938 10.6974 9.38166C10.2851 9.79394 9.78947 10.0001 9.21053 10.0001ZM5 14.2106V12.7369C5 12.4299 5.07675 12.1536 5.23026 11.908C5.38377 11.6624 5.58772 11.4738 5.84211 11.3422C6.38596 11.0703 6.9386 10.8663 7.5 10.7303C8.0614 10.5944 8.63158 10.5264 9.21053 10.5264C9.57895 10.5264 9.94518 10.5549 10.3092 10.6119C10.6732 10.6689 11.0395 10.7545 11.4079 10.8685C10.8289 11.2194 10.4693 11.7216 10.3289 12.3751C10.1886 13.0286 10.3026 13.6404 10.6711 14.2106H5Z" fill="#6D6B6B"/>
</g>
</svg>
