<svg width="20" height="20" viewBox="0 0 20 20" fill="none" xmlns="http://www.w3.org/2000/svg">
<rect width="20" height="20" rx="10" fill="#222222"/>
<g clip-path="url(#clip0_2550_171242)">
<path d="M9.32723 5.13155C9.27129 5.04682 9.17547 4.99719 9.07395 5.00012C8.97245 5.00317 8.87977 5.05856 8.82901 5.14651C8.82901 5.14651 8.56416 5.60534 8.20129 6.23374C8.17764 6.27469 8.15473 6.31604 8.13245 6.35768L11.1245 7.85372L9.32723 5.13155Z" fill="#5A9BF6"/>
<path d="M14.707 8.13797H14.5146L14.0569 7.68018C13.6367 7.2601 12.9531 7.26016 12.5329 7.6802L11.5112 8.70205L5.42398 5.6585C5.33316 5.61309 5.22533 5.61793 5.13895 5.67133C5.05258 5.72469 5 5.81899 5 5.92053V7.17574C5 9.37916 6.62262 11.1852 8.71404 11.4992L5.71342 14.4998C5.62963 14.5836 5.60457 14.7096 5.6499 14.8191C5.69525 14.9286 5.80209 15 5.92057 15H7.80338C7.88109 15 7.95559 14.9691 8.01053 14.9141L9.17994 13.7447H10.1569C12.3083 13.7447 14.0586 11.9945 14.0586 9.84305V9.17988L14.5146 8.72389H14.707C14.8688 8.72389 15 8.59272 15 8.43092C15 8.26912 14.8688 8.13797 14.707 8.13797Z" fill="#5A9BF6"/>
</g>
<defs>
<clipPath id="clip0_2550_171242">
<rect width="10" height="10" fill="white" transform="translate(5 5)"/>
</clipPath>
</defs>
</svg>
