<svg width="21" height="20" viewBox="0 0 21 20" fill="none" xmlns="http://www.w3.org/2000/svg">
<rect x="1" y="0.5" width="19" height="19" rx="3.5" fill="url(#paint0_linear_2778_123271)"/>
<rect x="1" y="0.5" width="19" height="19" rx="3.5" stroke="white"/>
<path d="M10.5 7L11.4338 9.03126L13.6545 9.29166L12.0108 10.8075L12.4495 13L10.5 11.9052L8.55056 13L8.98895 10.8075L7.34558 9.29166L9.5662 9.03126L10.5 7Z" fill="url(#paint1_linear_2778_123271)"/>
<path d="M10.5 7.59998L11.247 9.22498L13.0235 9.4333L11.7086 10.646L12.0596 12.4L10.5 11.5242L8.94042 12.4L9.29113 10.646L7.97644 9.4333L9.75294 9.22498L10.5 7.59998Z" fill="url(#paint2_linear_2778_123271)" fill-opacity="0.8" style="mix-blend-mode:lighten"/>
<g opacity="0.4">
<mask id="mask0_2778_123271" style="mask-type:alpha" maskUnits="userSpaceOnUse" x="7" y="7" width="7" height="6">
<path d="M10.5 7.59998L11.247 9.22498L13.0235 9.4333L11.7086 10.646L12.0596 12.4L10.5 11.5242L8.94042 12.4L9.29113 10.646L7.97644 9.4333L9.75294 9.22498L10.5 7.59998Z" fill="url(#paint3_linear_2778_123271)"/>
</mask>
<g mask="url(#mask0_2778_123271)">
<rect x="9.80432" y="8.48413" width="3.2055" height="0.626799" transform="rotate(35.9347 9.80432 8.48413)" fill="white" style="mix-blend-mode:overlay"/>
<rect x="8.23877" y="8.78027" width="5.30361" height="0.30727" transform="rotate(35.9347 8.23877 8.78027)" fill="white" style="mix-blend-mode:overlay"/>
<rect x="7.97644" y="9.11169" width="5.30361" height="0.147896" transform="rotate(35.9347 7.97644 9.11169)" fill="white" style="mix-blend-mode:overlay"/>
</g>
</g>
<defs>
<linearGradient id="paint0_linear_2778_123271" x1="10.5" y1="0" x2="10.5" y2="20" gradientUnits="userSpaceOnUse">
<stop stop-color="#222222" stop-opacity="0.4"/>
<stop offset="1" stop-opacity="0.4"/>
</linearGradient>
<linearGradient id="paint1_linear_2778_123271" x1="12.8518" y1="7.79976" x2="8.45698" y2="13" gradientUnits="userSpaceOnUse">
<stop stop-color="#7E7E7E"/>
<stop offset="0.39747" stop-color="#F3F3F3"/>
<stop offset="0.822115" stop-color="#5C5C5C"/>
</linearGradient>
<linearGradient id="paint2_linear_2778_123271" x1="12.3837" y1="11.7602" x2="8.61625" y2="8.62353" gradientUnits="userSpaceOnUse">
<stop stop-color="#7E7E7E"/>
<stop offset="0.39747" stop-color="#F3F3F3"/>
<stop offset="1" stop-color="#5C5C5C"/>
</linearGradient>
<linearGradient id="paint3_linear_2778_123271" x1="12.3814" y1="8.23979" x2="8.86556" y2="12.4" gradientUnits="userSpaceOnUse">
<stop stop-color="#7E7E7E"/>
<stop offset="0.39747" stop-color="#F3F3F3"/>
<stop offset="1" stop-color="#5C5C5C"/>
</linearGradient>
</defs>
</svg>
