<svg width="20" height="20" viewBox="0 0 20 20" fill="none" xmlns="http://www.w3.org/2000/svg">
<rect width="20" height="20" rx="10" fill="#222222"/>
<g clip-path="url(#clip0_2550_171243)">
<path d="M14.9483 5.10709C14.8924 5.03939 14.8094 5 14.7214 5H13.892C13.814 5 13.7396 5.03084 13.6846 5.08568L13.4772 5.29242L13.2698 5.08568C13.1553 4.97146 12.9697 4.97146 12.8551 5.08568C12.7405 5.1999 12.7405 5.38498 12.8551 5.49922L13.0624 5.70592L12.6475 6.11955L12.4401 5.91275C12.3255 5.79854 12.1399 5.79854 12.0253 5.91275C11.9108 6.02699 11.9108 6.21205 12.0253 6.32629L12.2327 6.53305L10.2423 8.53416L10.2418 8.53451C10.1306 8.64475 9.93817 8.64504 9.82703 8.53422C9.71414 8.42279 9.71071 8.23756 9.82703 8.12098C9.94152 8.00682 9.94152 7.82162 9.82703 7.70744C9.58671 7.46783 9.27365 7.34502 8.9288 7.34104C8.35854 7.34619 7.87361 7.81025 7.80115 8.42025L7.70492 9.23246C7.69375 9.32699 7.63702 9.41039 7.55283 9.45549L5.4668 10.5787C4.77018 10.9642 4.9072 12.0037 5.68075 12.1966C6.73306 12.4591 7.55023 13.2738 7.81345 14.3234C7.93876 14.8227 8.42207 15.0716 8.85287 14.982H12.3816C13.5136 14.982 14.4347 14.0441 14.4347 12.9154V7.61908C14.5141 7.57986 14.5759 7.50873 14.5942 7.4175L15.009 5.34984C15.0262 5.26389 15.0038 5.17479 14.9483 5.10709ZM12.6474 6.94656C12.9023 7.20049 12.8077 7.10617 13.0624 7.36014L10.0344 10.3957L9.61968 9.98215L12.6474 6.94656ZM8.58253 12.6704C8.46798 12.7846 8.28236 12.7846 8.16779 12.6704L7.3383 11.843C7.22375 11.7288 7.22375 11.5437 7.3383 11.4295C7.45285 11.3153 7.63847 11.3153 7.75304 11.4295L8.58253 12.2569C8.69709 12.3711 8.69709 12.5562 8.58253 12.6704ZM9.4123 11.843C9.29775 11.9572 9.11213 11.9572 8.99755 11.843L8.16777 11.016C8.0532 10.9017 8.0532 10.7167 8.16777 10.6024C8.28232 10.4882 8.46794 10.4882 8.58252 10.6024L9.4123 11.4295C9.52687 11.5437 9.52687 11.7288 9.4123 11.843ZM13.8481 12.9154C13.8481 13.7216 13.1902 14.3971 12.3816 14.3971H9.52221L10.5686 12.445C10.6121 12.3651 10.692 12.3091 10.7825 12.2951L11.6312 12.1657C12.2433 12.0724 12.699 11.5503 12.6689 10.9771C12.6534 10.6804 12.5283 10.4008 12.3166 10.1898C12.202 10.0755 12.0164 10.0755 11.9018 10.1898C11.788 10.3033 11.6015 10.3038 11.4862 10.1889C11.3711 10.0735 11.372 9.889 11.4862 9.77566C11.4868 9.77516 11.4869 9.77445 11.4874 9.77395L13.5986 7.65057H13.8481V12.9154Z" fill="#B89334"/>
</g>
<defs>
<clipPath id="clip0_2550_171243">
<rect width="10" height="10" fill="white" transform="translate(5 5)"/>
</clipPath>
</defs>
</svg>
