<svg width="21" height="20" viewBox="0 0 21 20" fill="none" xmlns="http://www.w3.org/2000/svg">
<rect x="1" y="0.5" width="19" height="19" rx="3.5" fill="url(#paint0_linear_2778_123268)"/>
<rect x="1" y="0.5" width="19" height="19" rx="3.5" stroke="#5A9BF6"/>
<path d="M10.5 6.88501L11.4338 8.91627L13.6545 9.17667L12.0108 10.6925L12.4495 12.885L10.5 11.7902L8.55056 12.885L8.98895 10.6925L7.34558 9.17667L9.5662 8.91627L10.5 6.88501Z" fill="url(#paint1_linear_2778_123268)"/>
<path d="M10.5033 7.48499L11.2503 9.10999L13.0268 9.31831L11.7119 10.531L12.0629 12.285L10.5033 11.4092L8.94372 12.285L9.29443 10.531L7.97974 9.31831L9.75623 9.10999L10.5033 7.48499Z" fill="url(#paint2_linear_2778_123268)" fill-opacity="0.8" style="mix-blend-mode:overlay"/>
<g opacity="0.4">
<mask id="mask0_2778_123268" style="mask-type:alpha" maskUnits="userSpaceOnUse" x="7" y="7" width="7" height="6">
<path d="M10.5033 7.48499L11.2503 9.10999L13.0268 9.31831L11.7119 10.531L12.0629 12.285L10.5033 11.4092L8.94372 12.285L9.29443 10.531L7.97974 9.31831L9.75623 9.10999L10.5033 7.48499Z" fill="url(#paint3_linear_2778_123268)"/>
</mask>
<g mask="url(#mask0_2778_123268)">
<rect x="9.80762" y="8.36926" width="3.2055" height="0.626799" transform="rotate(35.9347 9.80762 8.36926)" fill="white" style="mix-blend-mode:overlay"/>
<rect x="8.24207" y="8.66528" width="5.30361" height="0.30727" transform="rotate(35.9347 8.24207 8.66528)" fill="white" style="mix-blend-mode:overlay"/>
<rect x="7.97974" y="8.9967" width="5.30361" height="0.147896" transform="rotate(35.9347 7.97974 8.9967)" fill="white" style="mix-blend-mode:overlay"/>
</g>
</g>
<path d="M6.50783 2.13318L7.44165 4.16444L9.66227 4.42484L8.01861 5.94066L8.4573 8.13318L6.50783 7.03841L4.55837 8.13318L4.99676 5.94066L3.35339 4.42484L5.57401 4.16444L6.50783 2.13318Z" fill="url(#paint4_linear_2778_123268)"/>
<path d="M6.5111 2.73315L7.25815 4.35816L9.03465 4.56648L7.71972 5.77914L8.07067 7.53315L6.5111 6.65734L4.95153 7.53315L5.30224 5.77914L3.98755 4.56648L5.76404 4.35816L6.5111 2.73315Z" fill="url(#paint5_linear_2778_123268)" fill-opacity="0.8" style="mix-blend-mode:overlay"/>
<g opacity="0.4">
<mask id="mask1_2778_123268" style="mask-type:alpha" maskUnits="userSpaceOnUse" x="3" y="2" width="7" height="6">
<path d="M6.5111 2.73315L7.25815 4.35816L9.03465 4.56648L7.71972 5.77914L8.07067 7.53315L6.5111 6.65734L4.95153 7.53315L5.30224 5.77914L3.98755 4.56648L5.76404 4.35816L6.5111 2.73315Z" fill="url(#paint6_linear_2778_123268)"/>
</mask>
<g mask="url(#mask1_2778_123268)">
<rect x="5.81543" y="3.61743" width="3.2055" height="0.626799" transform="rotate(35.9347 5.81543 3.61743)" fill="white" style="mix-blend-mode:overlay"/>
<rect x="4.24988" y="3.91345" width="5.30361" height="0.30727" transform="rotate(35.9347 4.24988 3.91345)" fill="white" style="mix-blend-mode:overlay"/>
<rect x="3.98755" y="4.24487" width="5.30361" height="0.147896" transform="rotate(35.9347 3.98755 4.24487)" fill="white" style="mix-blend-mode:overlay"/>
</g>
</g>
<path d="M6.50783 11.8668L7.44165 13.8981L9.66227 14.1585L8.01861 15.6743L8.4573 17.8668L6.50783 16.7721L4.55837 17.8668L4.99676 15.6743L3.35339 14.1585L5.57401 13.8981L6.50783 11.8668Z" fill="url(#paint7_linear_2778_123268)"/>
<path d="M6.5111 12.4668L7.25815 14.0918L9.03465 14.3001L7.71972 15.5128L8.07067 17.2668L6.5111 16.391L4.95153 17.2668L5.30224 15.5128L3.98755 14.3001L5.76404 14.0918L6.5111 12.4668Z" fill="url(#paint8_linear_2778_123268)" fill-opacity="0.8" style="mix-blend-mode:overlay"/>
<g opacity="0.4">
<mask id="mask2_2778_123268" style="mask-type:alpha" maskUnits="userSpaceOnUse" x="3" y="12" width="7" height="6">
<path d="M6.5111 12.4668L7.25815 14.0918L9.03465 14.3001L7.71972 15.5128L8.07067 17.2668L6.5111 16.391L4.95153 17.2668L5.30224 15.5128L3.98755 14.3001L5.76404 14.0918L6.5111 12.4668Z" fill="url(#paint9_linear_2778_123268)"/>
</mask>
<g mask="url(#mask2_2778_123268)">
<rect x="5.81543" y="13.3511" width="3.2055" height="0.626799" transform="rotate(35.9347 5.81543 13.3511)" fill="white" style="mix-blend-mode:overlay"/>
<rect x="4.24988" y="13.6471" width="5.30361" height="0.30727" transform="rotate(35.9347 4.24988 13.6471)" fill="white" style="mix-blend-mode:overlay"/>
<rect x="3.98755" y="13.9785" width="5.30361" height="0.147896" transform="rotate(35.9347 3.98755 13.9785)" fill="white" style="mix-blend-mode:overlay"/>
</g>
</g>
<path d="M14.4921 2.13318L15.4259 4.16444L17.6465 4.42484L16.0029 5.94066L16.4415 8.13318L14.4921 7.03841L12.5426 8.13318L12.981 5.94066L11.3376 4.42484L13.5583 4.16444L14.4921 2.13318Z" fill="url(#paint10_linear_2778_123268)"/>
<path d="M14.4954 2.73315L15.2424 4.35816L17.0189 4.56648L15.704 5.77914L16.0549 7.53315L14.4954 6.65734L12.9358 7.53315L13.2865 5.77914L11.9718 4.56648L13.7483 4.35816L14.4954 2.73315Z" fill="url(#paint11_linear_2778_123268)" fill-opacity="0.8" style="mix-blend-mode:overlay"/>
<g opacity="0.4">
<mask id="mask3_2778_123268" style="mask-type:alpha" maskUnits="userSpaceOnUse" x="11" y="2" width="7" height="6">
<path d="M14.4954 2.73315L15.2424 4.35816L17.0189 4.56648L15.704 5.77914L16.0549 7.53315L14.4954 6.65734L12.9358 7.53315L13.2865 5.77914L11.9718 4.56648L13.7483 4.35816L14.4954 2.73315Z" fill="url(#paint12_linear_2778_123268)"/>
</mask>
<g mask="url(#mask3_2778_123268)">
<rect x="13.7997" y="3.61743" width="3.2055" height="0.626799" transform="rotate(35.9347 13.7997 3.61743)" fill="white" style="mix-blend-mode:overlay"/>
<rect x="12.2341" y="3.91345" width="5.30361" height="0.30727" transform="rotate(35.9347 12.2341 3.91345)" fill="white" style="mix-blend-mode:overlay"/>
<rect x="11.9718" y="4.24487" width="5.30361" height="0.147896" transform="rotate(35.9347 11.9718 4.24487)" fill="white" style="mix-blend-mode:overlay"/>
</g>
</g>
<path d="M14.4921 11.8668L15.4259 13.8981L17.6465 14.1585L16.0029 15.6743L16.4415 17.8668L14.4921 16.7721L12.5426 17.8668L12.981 15.6743L11.3376 14.1585L13.5583 13.8981L14.4921 11.8668Z" fill="url(#paint13_linear_2778_123268)"/>
<path d="M14.4954 12.4668L15.2424 14.0918L17.0189 14.3001L15.704 15.5128L16.0549 17.2668L14.4954 16.391L12.9358 17.2668L13.2865 15.5128L11.9718 14.3001L13.7483 14.0918L14.4954 12.4668Z" fill="url(#paint14_linear_2778_123268)" fill-opacity="0.8" style="mix-blend-mode:overlay"/>
<g opacity="0.4">
<mask id="mask4_2778_123268" style="mask-type:alpha" maskUnits="userSpaceOnUse" x="11" y="12" width="7" height="6">
<path d="M14.4954 12.4668L15.2424 14.0918L17.0189 14.3001L15.704 15.5128L16.0549 17.2668L14.4954 16.391L12.9358 17.2668L13.2865 15.5128L11.9718 14.3001L13.7483 14.0918L14.4954 12.4668Z" fill="url(#paint15_linear_2778_123268)"/>
</mask>
<g mask="url(#mask4_2778_123268)">
<rect x="13.7997" y="13.3511" width="3.2055" height="0.626799" transform="rotate(35.9347 13.7997 13.3511)" fill="white" style="mix-blend-mode:overlay"/>
<rect x="12.2341" y="13.6471" width="5.30361" height="0.30727" transform="rotate(35.9347 12.2341 13.6471)" fill="white" style="mix-blend-mode:overlay"/>
<rect x="11.9718" y="13.9785" width="5.30361" height="0.147896" transform="rotate(35.9347 11.9718 13.9785)" fill="white" style="mix-blend-mode:overlay"/>
</g>
</g>
<defs>
<linearGradient id="paint0_linear_2778_123268" x1="10.5" y1="0" x2="10.5" y2="20" gradientUnits="userSpaceOnUse">
<stop stop-color="#3E3E3E" stop-opacity="0.4"/>
<stop offset="1" stop-opacity="0.4"/>
</linearGradient>
<linearGradient id="paint1_linear_2778_123268" x1="12.5964" y1="7.71563" x2="8.6358" y2="12.6437" gradientUnits="userSpaceOnUse">
<stop stop-color="#003886"/>
<stop offset="0.341346" stop-color="#B0D1FF"/>
<stop offset="0.850962" stop-color="#0049B0"/>
</linearGradient>
<linearGradient id="paint2_linear_2778_123268" x1="12.3623" y1="11.6205" x2="8.64423" y2="8.55199" gradientUnits="userSpaceOnUse">
<stop stop-color="#003886"/>
<stop offset="0.341346" stop-color="#5CA0FF"/>
<stop offset="1" stop-color="#133D77"/>
</linearGradient>
<linearGradient id="paint3_linear_2778_123268" x1="12.3847" y1="8.1248" x2="8.86886" y2="12.285" gradientUnits="userSpaceOnUse">
<stop stop-color="#7E7E7E"/>
<stop offset="0.39747" stop-color="#F3F3F3"/>
<stop offset="1" stop-color="#5C5C5C"/>
</linearGradient>
<linearGradient id="paint4_linear_2778_123268" x1="8.6042" y1="2.9638" x2="4.64361" y2="7.89186" gradientUnits="userSpaceOnUse">
<stop stop-color="#003886"/>
<stop offset="0.341346" stop-color="#B0D1FF"/>
<stop offset="0.850962" stop-color="#0049B0"/>
</linearGradient>
<linearGradient id="paint5_linear_2778_123268" x1="8.37016" y1="6.86866" x2="4.65204" y2="3.80016" gradientUnits="userSpaceOnUse">
<stop stop-color="#003886"/>
<stop offset="0.341346" stop-color="#5CA0FF"/>
<stop offset="1" stop-color="#133D77"/>
</linearGradient>
<linearGradient id="paint6_linear_2778_123268" x1="8.39252" y1="3.37296" x2="4.87667" y2="7.53315" gradientUnits="userSpaceOnUse">
<stop stop-color="#7E7E7E"/>
<stop offset="0.39747" stop-color="#F3F3F3"/>
<stop offset="1" stop-color="#5C5C5C"/>
</linearGradient>
<linearGradient id="paint7_linear_2778_123268" x1="8.6042" y1="12.6974" x2="4.64361" y2="17.6255" gradientUnits="userSpaceOnUse">
<stop stop-color="#003886"/>
<stop offset="0.341346" stop-color="#B0D1FF"/>
<stop offset="0.850962" stop-color="#0049B0"/>
</linearGradient>
<linearGradient id="paint8_linear_2778_123268" x1="8.37016" y1="16.6023" x2="4.65204" y2="13.5338" gradientUnits="userSpaceOnUse">
<stop stop-color="#003886"/>
<stop offset="0.341346" stop-color="#5CA0FF"/>
<stop offset="1" stop-color="#133D77"/>
</linearGradient>
<linearGradient id="paint9_linear_2778_123268" x1="8.39252" y1="13.1066" x2="4.87667" y2="17.2668" gradientUnits="userSpaceOnUse">
<stop stop-color="#7E7E7E"/>
<stop offset="0.39747" stop-color="#F3F3F3"/>
<stop offset="1" stop-color="#5C5C5C"/>
</linearGradient>
<linearGradient id="paint10_linear_2778_123268" x1="16.5885" y1="2.9638" x2="12.6279" y2="7.89186" gradientUnits="userSpaceOnUse">
<stop stop-color="#003886"/>
<stop offset="0.341346" stop-color="#B0D1FF"/>
<stop offset="0.850962" stop-color="#0049B0"/>
</linearGradient>
<linearGradient id="paint11_linear_2778_123268" x1="16.3544" y1="6.86866" x2="12.6363" y2="3.80016" gradientUnits="userSpaceOnUse">
<stop stop-color="#003886"/>
<stop offset="0.341346" stop-color="#5CA0FF"/>
<stop offset="1" stop-color="#133D77"/>
</linearGradient>
<linearGradient id="paint12_linear_2778_123268" x1="16.3768" y1="3.37296" x2="12.8609" y2="7.53315" gradientUnits="userSpaceOnUse">
<stop stop-color="#7E7E7E"/>
<stop offset="0.39747" stop-color="#F3F3F3"/>
<stop offset="1" stop-color="#5C5C5C"/>
</linearGradient>
<linearGradient id="paint13_linear_2778_123268" x1="16.5885" y1="12.6974" x2="12.6279" y2="17.6255" gradientUnits="userSpaceOnUse">
<stop stop-color="#003886"/>
<stop offset="0.341346" stop-color="#B0D1FF"/>
<stop offset="0.850962" stop-color="#0049B0"/>
</linearGradient>
<linearGradient id="paint14_linear_2778_123268" x1="16.3544" y1="16.6023" x2="12.6363" y2="13.5338" gradientUnits="userSpaceOnUse">
<stop stop-color="#003886"/>
<stop offset="0.341346" stop-color="#5CA0FF"/>
<stop offset="1" stop-color="#133D77"/>
</linearGradient>
<linearGradient id="paint15_linear_2778_123268" x1="16.3768" y1="13.1066" x2="12.8609" y2="17.2668" gradientUnits="userSpaceOnUse">
<stop stop-color="#7E7E7E"/>
<stop offset="0.39747" stop-color="#F3F3F3"/>
<stop offset="1" stop-color="#5C5C5C"/>
</linearGradient>
</defs>
</svg>
