<svg width="20" height="20" viewBox="0 0 20 20" fill="none" xmlns="http://www.w3.org/2000/svg">
<rect width="20" height="20" rx="10" fill="#222222"/>
<path d="M9.8062 8.3324L5.22047 13.5144C4.91368 13.8696 4.92983 14.4023 5.25277 14.7413C5.43038 14.9189 5.65644 14.9996 5.8825 14.9996C6.09241 14.9996 6.30232 14.9189 6.47993 14.7736L11.6631 10.205L9.8062 8.3324Z" fill="#00D5A7"/>
<path d="M9.72547 7.80003L12.2121 10.2861C12.8095 10.3184 13.407 10.157 13.9075 9.80181L10.2099 6.10498C9.85465 6.60542 9.69318 7.20273 9.72547 7.80003Z" fill="#00D5A7"/>
<path d="M14.2303 5.76575C13.4714 5.02316 12.3734 4.81329 11.4369 5.16845L14.8277 8.57469C15.183 7.62224 14.9892 6.52449 14.2303 5.76575Z" fill="#00D5A7"/>
<path d="M10.4843 5.76601C10.452 5.7983 10.4359 5.81444 10.4036 5.84673L14.1335 9.57584C14.1658 9.5597 14.1819 9.52741 14.2142 9.49512C14.408 9.3014 14.5533 9.09154 14.6825 8.86553L11.114 5.29785C10.888 5.427 10.6781 5.57229 10.4843 5.76601Z" fill="#00D5A7"/>
<path d="M14.8925 12.6964C14.94 12.6476 14.9736 12.586 14.9894 12.5184C15.0052 12.4508 15.0027 12.3799 14.982 12.3138C14.9614 12.2476 14.9234 12.1888 14.8725 12.1438C14.8216 12.0989 14.7596 12.0696 14.6936 12.0594L13.7661 11.9177C13.7273 11.912 13.6905 11.8964 13.6588 11.8725C13.6272 11.8486 13.6015 11.817 13.5841 11.7805L13.1695 10.9043C13.1398 10.8417 13.0939 10.7889 13.037 10.7521C12.9801 10.7152 12.9145 10.6957 12.8475 10.6957C12.7805 10.6957 12.7148 10.7152 12.6579 10.7521C12.601 10.7889 12.5551 10.8417 12.5254 10.9043L12.1108 11.78C12.0935 11.8167 12.0679 11.8484 12.0362 11.8724C12.0045 11.8964 11.9677 11.9119 11.9289 11.9177L11.0013 12.0584C10.9353 12.0687 10.8734 12.0979 10.8225 12.1429C10.7715 12.1878 10.7336 12.2467 10.7129 12.3128C10.6923 12.379 10.6897 12.4498 10.7055 12.5174C10.7214 12.585 10.7549 12.6466 10.8025 12.6955L11.4738 13.3786C11.5018 13.4071 11.5228 13.4423 11.5348 13.4812C11.5468 13.52 11.5496 13.5613 11.5429 13.6016L11.3845 14.5645C11.3734 14.6333 11.3809 14.7038 11.4063 14.7683C11.4317 14.8328 11.4738 14.8885 11.528 14.9293C11.5822 14.9701 11.6463 14.9943 11.713 14.9991C11.7797 15.0039 11.8463 14.9892 11.9054 14.9566L12.7351 14.5023C12.7697 14.4832 12.8083 14.4733 12.8475 14.4733C12.8866 14.4733 12.9252 14.4832 12.9598 14.5023L13.7896 14.9566C13.8487 14.9888 13.9152 15.0032 13.9818 14.9982C14.0483 14.9932 14.1122 14.969 14.1662 14.9283C14.2203 14.8876 14.2624 14.832 14.2879 14.7678C14.3134 14.7035 14.3212 14.6332 14.3105 14.5645L14.152 13.6011C14.1452 13.5611 14.1478 13.5199 14.1596 13.4811C14.1713 13.4424 14.192 13.4072 14.2197 13.3786L14.8925 12.6964Z" fill="#00D5A7"/>
</svg>
