<svg width="20" height="20" viewBox="0 0 20 20" fill="none" xmlns="http://www.w3.org/2000/svg">
<rect width="20" height="20" rx="10" fill="#222222"/>
<path d="M14.2883 5.12293C14.4166 4.99424 14.6129 4.96397 14.7737 5.04676C14.9345 5.12966 15.0244 5.30747 14.9944 5.48621L14.2346 10.0429C14.6744 10.1646 15.0001 10.5642 15.0002 11.0419C15.0002 11.381 14.8349 11.68 14.5833 11.87V13.1307C14.8347 13.3207 15.0001 13.619 15.0002 13.9579C15.0002 14.532 14.5328 14.9998 13.9583 14.9999H6.04224C5.46769 14.9999 5.00024 14.532 5.00024 13.9579C5.00037 13.6189 5.16569 13.3207 5.41724 13.1307V11.87C5.16559 11.68 5.00024 11.381 5.00024 11.0419C5.00038 10.5641 5.32598 10.1645 5.76587 10.0429L5.0061 5.48621C4.97612 5.30757 5.06516 5.12974 5.22583 5.04676C5.38651 4.96352 5.58243 4.99312 5.71118 5.12195L7.88892 7.29969L9.67993 5.15027C9.83873 4.96047 10.1619 4.96035 10.3206 5.15027L12.1116 7.29969L14.2883 5.12293ZM8.91235 13.7509H6.03931C5.92591 13.7524 5.83347 13.8441 5.83325 13.9579C5.83325 14.0729 5.92765 14.1669 6.04224 14.1669H8.9729L9.09302 14.994C9.11478 14.9951 10.8776 14.9901 10.8743 14.994L10.9983 14.1669H13.9583C14.0728 14.1668 14.1663 14.0729 14.1663 13.9579C14.166 13.8439 14.0738 13.7521 13.9602 13.7509H11.0608L11.3088 12.0966L8.67114 12.0858L8.91235 13.7509ZM7.38208 10.2245C7.41817 10.4371 7.48081 10.6411 7.5647 10.8339H6.04224C5.92775 10.8339 5.83341 10.927 5.83325 11.0419C5.83325 11.1569 5.92765 11.2509 6.04224 11.2509H7.79224C7.91857 11.4398 8.06831 11.6128 8.23853 11.7655H11.7542C11.9243 11.6128 12.0741 11.4398 12.2004 11.2509H13.9583C14.0728 11.2508 14.1663 11.1569 14.1663 11.0419C14.1661 10.927 14.0727 10.8339 13.9583 10.8339H12.428C12.512 10.641 12.5744 10.4372 12.6106 10.2245H7.38208ZM9.98462 7.14246C8.92305 7.15416 7.9982 7.78194 7.58716 8.6952L9.17114 8.69813C9.16902 8.71513 9.16627 8.73231 9.16626 8.74988C9.16626 8.85032 9.20373 8.94158 9.26294 9.01356L7.45044 9.01453C7.38192 9.26569 7.33622 9.51692 7.33618 9.7909C7.33618 9.83657 7.33619 9.85949 7.33618 9.90516L12.6106 9.90418C12.6219 9.87001 12.6106 9.83548 12.6106 9.78992C12.6106 9.51609 12.5648 9.26458 12.4963 9.01356H10.7366C10.7959 8.94154 10.8333 8.85045 10.8333 8.74988C10.8332 8.73358 10.8292 8.71785 10.8274 8.70203L12.3938 8.70594C11.9715 7.78129 11.0577 7.14234 9.98462 7.14246Z" fill="#DF454D"/>
</svg>
