<svg width="26" height="20" viewBox="0 0 26 20" fill="none" xmlns="http://www.w3.org/2000/svg">
<g id="Discord svg" clip-path="url(#clip0_974_8179)">
<g id="Clip path group">
<mask id="mask0_974_8179" style="mask-type:luminance" maskUnits="userSpaceOnUse" x="0" y="0" width="26" height="20">
<g id="clip0">
<path id="Vector" d="M25.6313 0H0.368164V20H25.6313V0Z" fill="white"/>
</g>
</mask>
<g mask="url(#mask0_974_8179)">
<g id="Group">
<path id="Vector_2" d="M21.7545 1.78168C20.1443 1.02663 18.4176 0.470338 16.6123 0.151727C16.5794 0.145578 16.5465 0.160945 16.5296 0.19168C16.3075 0.59532 16.0616 1.1219 15.8893 1.53579C13.9475 1.2387 12.0157 1.2387 10.1138 1.53579C9.94148 1.1127 9.68657 0.59532 9.46351 0.19168C9.44657 0.16197 9.41373 0.146604 9.38085 0.151727C7.57649 0.46932 5.84981 1.02561 4.23862 1.78168C4.22467 1.78783 4.21272 1.79808 4.20478 1.81139C0.929629 6.8119 0.032427 11.6895 0.472564 16.5066C0.474556 16.5302 0.487501 16.5527 0.505425 16.5671C2.66628 18.1888 4.75943 19.1734 6.81372 19.8259C6.8466 19.8362 6.88143 19.8239 6.90236 19.7962C7.3883 19.118 7.82147 18.403 8.19288 17.651C8.21479 17.6069 8.19387 17.5547 8.14907 17.5372C7.46199 17.2709 6.80774 16.9461 6.17841 16.5773C6.12863 16.5476 6.12464 16.4748 6.17044 16.44C6.30287 16.3386 6.43534 16.2331 6.5618 16.1265C6.58468 16.1071 6.61656 16.103 6.64346 16.1152C10.7779 18.0444 15.254 18.0444 19.3397 16.1152C19.3666 16.1019 19.3985 16.106 19.4223 16.1255C19.5488 16.232 19.6813 16.3386 19.8147 16.44C19.8605 16.4748 19.8575 16.5476 19.8077 16.5773C19.1784 16.9533 18.5242 17.2709 17.8361 17.5362C17.7913 17.5536 17.7713 17.6069 17.7933 17.651C18.1726 18.4019 18.6058 19.117 19.0828 19.7952C19.1027 19.8239 19.1385 19.8362 19.1714 19.8259C21.2357 19.1734 23.3288 18.1888 25.4897 16.5671C25.5086 16.5527 25.5206 16.5312 25.5225 16.5076C26.0493 10.9385 24.6403 6.10092 21.7873 1.81241C21.7804 1.79808 21.7684 1.78783 21.7545 1.78168ZM8.81029 13.5735C7.56553 13.5735 6.53988 12.4056 6.53988 10.9713C6.53988 9.53703 7.54564 8.36914 8.81029 8.36914C10.0849 8.36914 11.1006 9.54728 11.0807 10.9713C11.0807 12.4056 10.0749 13.5735 8.81029 13.5735ZM17.2047 13.5735C15.96 13.5735 14.9344 12.4056 14.9344 10.9713C14.9344 9.53703 15.9401 8.36914 17.2047 8.36914C18.4794 8.36914 19.495 9.54728 19.4752 10.9713C19.4752 12.4056 18.4794 13.5735 17.2047 13.5735Z" fill="#5865F2"/>
</g>
</g>
</g>
</g>
<defs>
<clipPath id="clip0_974_8179">
<rect width="25.2632" height="20" fill="white" transform="translate(0.368164)"/>
</clipPath>
</defs>
</svg>
