<svg width="24" height="16" viewBox="0 0 24 16" fill="none" xmlns="http://www.w3.org/2000/svg">
<g id="YouTube svg" clip-path="url(#clip0_974_2857)">
<g id="g10">
<g id="g12">
<path id="path14" d="M22.7317 2.49845C22.4741 1.51497 21.7152 0.740517 20.7513 0.477678C19.0045 9.53674e-07 11.9998 0 11.9998 0C11.9998 0 4.99513 9.53674e-07 3.24826 0.477678C2.28452 0.740517 1.52546 1.51497 1.26788 2.49845C0.799805 4.28094 0.799805 8 0.799805 8C0.799805 8 0.799805 11.719 1.26788 13.5017C1.52546 14.485 2.28452 15.2595 3.24826 15.5224C4.99513 16 11.9998 16 11.9998 16C11.9998 16 19.0045 16 20.7513 15.5224C21.7152 15.2595 22.4741 14.485 22.7317 13.5017C23.1998 11.719 23.1998 8 23.1998 8C23.1998 8 23.1998 4.28094 22.7317 2.49845Z" fill="#ED1D24"/>
<path id="path16" d="M9.70898 11.377L15.5635 8.0005L9.70898 4.62373V11.377Z" fill="white"/>
</g>
</g>
</g>
<defs>
<clipPath id="clip0_974_2857">
<rect width="22.4" height="16" fill="white" transform="translate(0.799805)"/>
</clipPath>
</defs>
</svg>
